<?xml version="1.0" encoding="UTF-8" standalone="no"?><!DOCTYPE svg PUBLIC "-//W3C//DTD SVG 1.1//EN" "http://www.w3.org/Graphics/SVG/1.1/DTD/svg11.dtd"><svg width="100%" height="100%" viewBox="0 0 512 512" version="1.1" xmlns="http://www.w3.org/2000/svg" xmlns:xlink="http://www.w3.org/1999/xlink" xml:space="preserve" xmlns:serif="http://www.serif.com/" style="fill-rule:evenodd;clip-rule:evenodd;stroke-linejoin:round;stroke-miterlimit:2;"><rect id="safari-pinned-tab" x="0" y="0" width="512" height="512" style="fill:none;"/><g id="UMI-tribe-logo"><path id="image" d="M246.009,418.831l1.931,-1.931l-0.966,8.69l0,9.657l1.932,-0l-0,-3.863c-0,-1.931 0.965,-7.725 1.931,-12.553c0.965,-8.691 0.965,-9.656 -0.966,-13.519c-0.965,-4.828 -0.965,-7.725 -0.965,-20.278l-0,-14.484l-0.966,-0c-1.931,-0 -4.828,8.69 -5.794,16.415l0,7.725l-0.965,0c-0,0 -0.966,-0.965 -1.932,-1.931c-0.965,-1.931 -2.897,-2.897 -3.862,-2.897l-0.966,0l0,0.966c1.931,4.828 1.931,8.69 0,12.553c-1.931,4.828 -2.897,8.691 -3.862,13.519l-0.966,2.897l-0.966,-0c-1.931,-0.966 -1.931,-9.657 -0.965,-11.588c0.965,-0.965 0.965,-11.587 -0.966,-12.553l-0.966,-0.966l-0.965,0c-0,0.966 -0,1.932 -0.966,4.828c0,1.932 -0.965,4.829 -2.897,6.76l-1.931,3.862l-1.931,-1.931c-0.966,-1.931 -2.897,-2.897 -2.897,-2.897l-0.966,0l0,7.725l0.966,7.725l-1.931,0.966l-0.966,-0l0,-4.828c-0.966,-3.863 -2.897,-7.725 -4.828,-7.725l-0.966,-0l0,1.931c0,2.897 -0.965,2.897 -4.828,1.931c-1.931,-0.965 -3.862,-0.965 -4.828,-0.965l-0,0.965l2.897,6.76c0.966,3.862 2.897,7.725 3.862,7.725l0.966,-0l0,-0.966c0,-0.966 -0.966,-2.897 -2.897,-5.794l-1.931,-4.828l-0,-0.965l0.966,-0l2.896,1.931c0.966,0.965 1.932,2.897 1.932,4.828c-0,0.966 -0,3.862 0.965,4.828l0,1.931l1.932,0l-0.966,-4.828l-0,-6.759l0.966,-0.966l1.931,0.966c-0,1.931 0.965,4.828 0.965,7.725l0,4.828l1.932,-0l1.931,-5.794l1.931,0l0,2.897c0,1.931 0,3.863 0.966,4.828l0.965,0l0,-4.828c0,-7.725 1.932,-13.519 4.829,-18.347l2.896,-4.828l0.966,-0l0,0.966l-0.966,3.862c-1.931,4.828 -4.828,17.381 -4.828,21.244c0,0.966 0.966,2.897 1.932,2.897l0.965,-0l0,-13.519l1.931,1.931c0.966,0.966 0.966,2.897 0,6.76l0,5.793l1.932,0l-0,-1.931c-0,-1.931 -0,-2.897 0.965,-2.897c0,-0.965 0.966,-1.931 0.966,-3.862c0.966,-5.794 6.759,-19.313 7.725,-20.278l0.966,-0l-0,4.828c-0,3.862 -0.966,6.759 -2.897,10.622c-0.966,2.897 -1.931,5.793 -1.931,6.759l-0,0.966l-0.966,-0l-0.966,-0.966l0,7.725l1.932,0l-0,-2.897c-0,-2.897 1.931,-7.725 2.896,-7.725l0.966,0l0,5.794l-0.966,4.828l1.932,0l1.931,-19.312l0.966,-0.966l0.965,-0l0,22.209l0.966,-7.725c0.965,-5.793 1.931,-8.69 2.897,-9.656Zm12.553,3.863c0.965,-6.76 0.965,-16.416 0.965,-22.21c-0.965,-15.45 -0.965,-16.416 0,-17.381l0.966,-0l0.966,2.897c0.965,2.897 2.897,27.037 2.897,41.522l-0,7.725l1.931,-0l-0.966,-18.347c0,-15.45 0,-20.278 0.966,-28.003c1.931,-11.588 2.897,-14.485 4.828,-15.45l0.966,-0l-0,5.793c-0,3.863 -0.966,11.588 -1.932,18.347c-1.931,11.588 -2.896,24.141 -0.965,31.866l-0,4.828l1.931,0l-0.966,-15.45c0,-8.691 0,-16.416 0.966,-18.347l0.966,-2.897l-0,5.794c-0,3.863 -0,11.588 0.965,18.347l0,12.553l0.966,0l0.966,-0.966l0.965,-20.278c0,-13.519 0,-22.209 0.966,-26.072l0.965,-5.793l0.966,0.965c0,0 0,5.794 -0.966,12.553c-0.965,5.794 -0.965,17.382 -0.965,25.107l-0,13.518l2.897,0l-0.966,-4.828l0,-4.828l1.931,0l0,9.656l1.932,-0.965c0.965,-0 1.931,-0.966 1.931,-2.897c0.965,-1.931 1.931,-4.828 2.897,-5.794l1.931,-0.965l-0.966,3.862l0,4.828l1.932,0l0.965,-2.897c0.966,-2.897 1.931,-8.69 2.897,-15.45l0.966,-2.897l1.931,0l0.966,4.829l-0,9.656l-0.966,4.828l2.897,-0l-0,-8.691c-0.966,-4.828 -0.966,-10.622 -1.931,-12.553l-0,-2.897l0.965,0c1.932,0 3.863,3.863 3.863,7.725c-0,2.897 0.965,6.76 0.965,9.657l0.966,4.828l2.897,-0l1.931,-5.794l1.931,3.862l1.932,0l-0,-1.931c-0,-0.965 -0.966,-3.862 -0.966,-5.794c-0.966,-1.931 -1.931,-4.828 -1.931,-7.725l-0,-4.828l0.965,0c0.966,0 4.829,8.691 6.76,14.485l0.965,3.862l0.966,-0.965c0.966,-0 0.966,-2.897 0.966,-6.76c-0,-10.622 1.931,-22.209 2.897,-23.175l0.965,-0.966l-0.965,14.485l-0,15.45l1.931,-0l-0,-6.759c0.966,-2.897 0.966,-9.657 0.966,-13.519l-0,-7.725l1.931,-0l-0,26.072l0.965,-0l0.966,-0.966l0,-10.622c0,-5.794 0,-14.484 -0.966,-20.278l0,-10.622l1.932,0l0.965,5.794c0,2.897 0.966,9.656 1.932,14.484c0.965,4.828 1.931,11.588 2.896,13.519l0,4.828l0.966,-0.965l0,-17.382l0.966,0l1.931,0.966l-0,2.897c-0,1.931 0.966,3.862 0.966,3.862c0.965,0.966 0.965,2.897 0.965,4.828l0,2.897l0.966,0c0.965,-0.965 0.965,-2.897 0.965,-5.793c0,-2.897 0,-6.76 0.966,-7.726l0.966,-1.931l0.965,0.966c0.966,1.931 0.966,3.862 0.966,7.725l-0.966,4.828l0.966,0l1.931,-0.966l0,-2.896c0,-6.76 1.931,-14.485 5.794,-21.244l2.897,-6.76l0.966,0c-0,0.966 -0.966,5.794 -2.897,11.588l-1.932,10.622l-0.965,-0.966l-0.966,0l0,5.794l0.966,-0c-0,-0 0.965,-0 1.931,-0.966c1.931,-0.965 1.931,-1.931 1.931,-5.794c0,-2.896 0,-5.793 0.966,-5.793l-0,-1.932l1.931,0l0,10.622l0.966,0c-0,-0.965 0.965,-10.622 0.965,-22.209c0.966,-11.588 0.966,-21.244 1.932,-21.244l0.965,-0.966l0.966,0.966c-0,0.966 -0,3.863 -0.966,7.725c-0.965,2.897 -0.965,11.588 -0.965,19.313l-0,13.518l1.931,0l-0,-16.415c-0,-10.622 -0,-16.416 0.966,-17.382l0.965,0l1.931,0.966c0.966,1.931 0.966,3.863 0.966,14.485l0,12.553l0.966,-0l0.965,-0.966l0,-8.691l1.932,0l-0,1.932c0.965,-0 0.965,1.931 0.965,2.897l0,1.931l0.966,-0.966c0.965,0 0.965,-1.931 -0,-5.794c-0.966,-5.793 -0,-23.175 0.965,-24.14l0.966,-0l0.966,1.931c0.965,1.931 0.965,5.794 0.965,13.519l0,10.622l0.966,-0.966c-0,0 0.966,-2.897 0.966,-6.759l0.965,-7.725l0.966,0.965c0.965,0 0.965,2.897 0.965,5.794l0,4.828l0.966,-0.965c0.966,-0 0.966,-3.863 0,-10.622c-0.966,-10.622 0,-37.66 0.966,-39.591l0.965,-0.966l0.966,1.931c0.966,0.966 0.966,10.622 0.966,22.21l-0,21.244l0.965,-0c0.966,-0 2.897,-1.931 2.897,-3.863l0,-1.931l1.931,-0l1.932,-0.966l-0,-1.931c-1.932,-3.862 -1.932,-9.656 -0.966,-21.244c0.966,-6.759 2.897,-14.484 2.897,-16.415l0.966,-4.829l0.965,0c0.966,0.966 0,16.416 -0.965,29.935c-0,4.828 -0.966,9.656 -0,9.656l2.896,-1.931c2.897,-2.897 2.897,-2.897 1.932,-12.553c-0,-6.76 -0,-10.622 0.965,-15.45c0.966,-2.897 1.932,-6.76 1.932,-7.725l-0,-1.932l1.931,0l-0,-2.896c-0,-0.966 0.965,-3.863 1.931,-4.829l0.966,-2.896l-0,3.862c-0.966,1.931 -1.932,8.691 -1.932,13.519c-0.965,3.862 -1.931,10.622 -1.931,14.484l0,6.76l1.931,-2.897c1.932,-2.897 2.897,-4.828 2.897,-7.725l0,-4.828l1.932,-0l-0,4.828l0.965,-0c0.966,-0.966 0.966,-3.863 0,-7.725l0,-5.794l0.966,-0c-0,0.966 0.965,1.931 0.965,3.862l0,2.897l1.932,0l-0,-9.656c0.965,-7.725 0.965,-10.622 2.897,-13.519c0.965,-2.897 1.931,-4.828 1.931,-5.794c-0,-0.965 -0,-1.931 0.966,-1.931l0.965,-0.965l0,0.965c0,0 -1.931,7.725 -3.862,14.485c-0.966,0.965 -0.966,3.862 -0.966,6.759l0,3.863l0.966,-4.829c0.965,-1.931 0.965,-4.828 1.931,-4.828c1.931,-1.931 3.862,-16.415 2.897,-20.278l-0,-3.862l-1.931,1.931l-1.932,2.897l-1.931,-0.966c0,-0.966 -0.966,-1.931 -0.966,-2.897c0,-0.965 -0.965,-1.931 -1.931,-2.897l-0.966,-0.965l0.966,5.793l0,9.657c0.966,1.931 0.966,4.828 0,6.759l-0.966,3.863l0,-2.897c-0.965,-3.863 -3.862,-12.553 -4.828,-14.485l0,-0.965l-0.965,3.862c-0,1.931 -1.932,4.828 -2.897,7.725l-0.966,3.863l-0.965,-15.45c-0.966,-8.691 -1.328,-14.479 -1.932,-20.278c-0.504,-4.846 -1.045,-10.976 -1.689,-14.516c-0.421,-2.319 -1.489,-5.285 -2.173,-6.728c-0.39,-0.823 -1.147,-2.011 -1.931,-1.932c-0.785,0.079 -2.527,1.207 -2.777,2.406c-0.476,2.273 -0.438,8.334 -0.077,11.237c0.272,2.177 0.15,5.241 2.247,6.185c2.089,0.939 1.572,3.348 1.572,11.073l0,8.69l-4.828,-8.69l-3.862,-8.691l-0.966,0.966c-1.931,2.896 -0,29.934 2.897,36.693c0.965,4.829 0.965,4.829 -0.966,7.725c-0.965,0.966 -1.931,2.897 -2.897,2.897l-0.965,0l-0,-2.897c-0,-0.965 -0,-4.828 -0.966,-6.759l0,-4.828l-1.931,-0l-0,5.794c-0,9.656 -1.932,19.312 -5.794,25.106l-2.897,4.828l-0.966,-3.862c0,-2.897 0.966,-6.76 1.932,-9.657c3.862,-14.484 6.759,-31.865 5.793,-34.762l0,-1.932l-3.862,6.76c-1.931,2.897 -3.863,6.759 -4.828,7.725l-0.966,0.966l-0.965,-2.897c-0,-1.932 -0.966,-3.863 -1.932,-4.829l-0.965,-0.965l-0,5.794c-0.966,7.725 -3.863,19.312 -5.794,21.243l-0.966,1.932l0.966,-8.691c-0,-4.828 0.966,-8.691 0.966,-9.656c-0,-1.931 0.965,-5.794 0.965,-9.657c0.966,-3.862 1.931,-10.621 1.931,-14.484c0.966,-4.828 1.932,-11.587 2.897,-14.484c0.494,-2.706 0.426,-4.752 1.093,-7.026c0.953,-3.25 3.888,-8.618 4.624,-12.477c0.667,-3.496 0.486,-8.603 -0.207,-10.677c-0.457,-1.368 -2.757,-2.12 -3.952,-1.767c-1.194,0.352 -2.766,2.262 -3.215,3.882c-0.7,2.525 -2.292,8.76 -2.757,12.452c-0.47,3.728 0.191,4.93 0.438,11.182c0,5.794 -0.852,11.19 -0.852,13.121c-0.965,1.932 -1.931,7.725 -2.897,13.519c0,5.794 -1.609,9.334 -1.931,11.588c-0.091,0.637 0.161,1.448 0,1.931c-0.144,0.432 -0.379,1.066 -0.966,0.966c-0.854,-0.146 -0.965,-3.836 -0.965,-5.794c-0,-2.575 0.965,-6.76 0.965,-9.657l0.966,-5.793l-0.966,-0c-0.965,-0 -3.862,5.793 -6.759,16.415c-1.931,3.863 -3.863,7.725 -3.863,8.691l-0.965,0l-0.966,-0.966l0,-0.965l0.966,-0.966c0.965,-0.965 1.931,-4.828 1.931,-7.725c0.966,-3.862 0.966,-6.759 1.931,-7.725c1.932,-3.862 2.897,-12.553 2.897,-15.45c-0.965,-1.931 -2.897,-4.828 -5.794,-7.725l-3.862,-2.897l-1.931,-0.966c-1.932,-0.965 -5.794,-1.931 -9.657,-2.896l-7.725,-0c0,-0 -0.317,-3.889 0,-5.794c0.322,-1.931 0.668,-4.373 1.352,-6.29c0.805,-2.253 2.511,-5.298 3.477,-7.229c2.896,-3.862 5.39,-9.654 6.759,-20.278c0.261,-2.029 0.019,-4.845 -0.113,-6.135c-0.2,-1.942 -0.853,-1.59 -0.853,-1.59c-0.965,-0 -2.937,0.913 -3.956,2.659c-2.307,2.723 -7.631,17.619 -7.631,21.482c-0,4.828 -2.897,22.209 -3.863,23.175c-0.965,0.965 -8.69,2.896 -24.14,4.828c-6.76,0.965 -14.485,1.931 -16.416,2.897c-1.931,-0 -7.725,1.931 -12.553,1.931c-12.554,1.931 -25.107,4.828 -39.591,7.725c-5.794,0.966 -10.622,1.931 -11.588,1.931c0,-0.965 0,-5.794 0.966,-11.587c0.966,-5.794 0.966,-12.554 1.931,-15.45c0,-2.897 0,-5.794 -0.965,-5.794c-0,-0.966 -3.863,-0.966 -6.76,-0.966c-4.828,0 -5.794,0 -8.69,2.897c-3.863,2.897 -11.588,6.759 -13.519,6.759c-0.966,0 -1.932,0 -1.932,0.966c-0.965,0.966 -1.931,0.966 -3.862,0.966l-2.897,-0l0,-0.966c0,-0.966 1.931,-2.897 3.863,-4.828c1.931,-2.897 2.997,-4.831 2.896,-6.759c-0.157,-3.029 1.073,-2.51 1.504,-3.803c0.483,-1.448 0.428,-1.991 1.393,-4.888c0,-1.931 0.966,-5.794 1.932,-6.76l0.965,-1.931l-0.965,-1.931c-0.966,-0.966 -1.932,-1.931 -1.932,-2.897c0,0 -1.931,-2.897 -3.862,-4.828c-3.863,-2.897 -5.794,-3.863 -8.691,-3.863c-2.897,0 -5.794,0.966 -7.725,1.932l-2.897,1.931l-1.931,-0.966c0,-0.965 -1.931,-1.931 -1.931,-3.862c-1.931,-2.897 -8.691,-6.76 -13.519,-6.76l-2.897,0l0,4.829c0,5.793 2.897,9.656 9.656,12.553l3.863,0.965l-0,1.932c-0,0.965 -0,1.931 -0.966,1.931c0,0.965 -0.965,2.897 -1.931,5.794c-0.966,5.793 -2.897,8.69 -7.725,10.622c-2.897,0.965 -5.794,5.793 -5.794,10.621c0,0.966 -0.965,3.863 -0.965,5.794c-1.932,4.828 -1.932,9.657 -0.966,12.553c0.966,0.966 0.966,2.897 -0,4.829c-0.966,1.931 -0.966,6.759 -1.931,11.587c-0,5.794 -0.966,7.725 -1.932,8.691c-2.896,0.965 -12.553,1.931 -12.553,0.965c-0.965,-0.965 -3.862,-0.965 -6.759,-0.965c-4.828,-0 -6.76,-0 -7.725,1.931c-0.966,0.966 -2.897,1.931 -4.828,1.931c-0.966,0 -2.897,0.966 -2.897,1.932l-0,0.965l3.862,-0.965l3.863,-0l-0,0.965c-0,0 -0.966,0.966 -1.931,1.931c-0.966,0.966 -1.932,2.897 -1.932,2.897l0.966,0.966l-5.794,0.966c-5.794,0.965 -14.484,-0 -21.244,-1.932l-2.897,0l0,0.966c0,0.966 0.966,2.897 2.897,3.862l1.932,1.932l3.862,-1.932l0.966,0.966c-0,0.966 0.965,0.966 1.931,0.966c1.931,-0 2.897,0.965 3.862,0.965c0.966,0.966 1.932,0.966 4.829,0c5.793,-0.965 6.759,-0.965 6.759,2.897l0,1.931l-3.862,0l-0,1.932l3.862,-0l0,7.725l-1.931,0.965l-1.931,0l1.931,0.966l2.897,0.966l-0,6.759l-2.897,0c-1.931,0 -4.828,0 -5.794,0.966l-1.931,0.965l0.965,0.966c1.932,0.966 4.829,0.966 8.691,0.966c4.828,-0 5.794,0.965 8.691,2.896c0.965,1.932 2.897,2.897 3.862,2.897c0,0 2.897,0.966 3.863,1.932l3.862,0.965l0,1.931l-0.965,0.966l1.931,0c0.965,-0.966 1.931,0 2.897,0c0.965,0.966 2.897,1.931 3.862,1.931l1.932,0.966l-0,0.966l0.965,0.965l-5.794,0c-3.862,0.966 -8.69,0.966 -11.587,1.932l-5.794,-0l1.931,1.931c0.966,1.931 1.932,1.931 7.725,1.931c10.622,-0.966 17.382,-2.897 25.107,-7.725c1.931,-1.931 6.759,-2.897 10.622,-3.863c2.897,-0.965 6.759,-0.965 6.759,-1.931c0.966,0 4.828,-0.965 8.691,-1.931c4.828,-0.966 10.622,-1.931 14.484,-2.897c12.553,-3.862 16.416,-3.862 17.381,-3.862c0,0.965 0,1.931 -0.965,3.862l-0.966,3.863l-7.725,-0c-11.587,0.965 -15.45,1.931 -14.484,4.828l0.965,0.965l2.897,-1.931c1.931,-0.966 5.794,-1.931 8.691,-1.931l5.794,-0l-1.932,0.965c0,0 -2.896,0.966 -5.793,1.932c-7.725,0.965 -12.554,5.794 -12.554,12.553c0,1.931 -0.965,2.897 -3.862,5.794c-2.897,0.965 -7.725,3.862 -10.622,5.793c-16.416,6.76 -19.313,7.725 -20.278,7.725l-1.931,0.966l0.965,1.931c2.897,0.966 5.794,0.966 9.656,-0.965c1.932,-0.966 3.863,-1.932 3.863,-2.897l-0,-1.931l2.897,-0.966l1.931,-0.966l0.966,0.966l0.965,1.931l0,-3.862l1.932,-0c2.897,0.965 13.518,-3.863 17.381,-7.725c2.897,-1.932 2.897,-2.897 2.897,-6.76c-0,-3.862 0.965,-4.828 2.897,-6.759l1.931,-1.931l-0,0.965l0.966,-0.965c0.965,-0 2.897,-0.966 3.862,-0.966l2.897,-0l-2.897,2.897l-2.897,3.862l0,0.966l0.966,0l1.931,-1.931c2.897,-2.897 3.863,-2.897 6.76,0.965c2.896,2.897 8.69,2.897 15.45,0l3.862,-0.965l0.966,0.965l1.931,0.966l-2.897,2.897l-2.897,1.931l0.966,0c0.965,0 2.897,-0.965 4.828,-1.931l2.897,-2.897l-1.931,-1.931c-0,-0.966 -1.932,-1.931 -2.897,-1.931l-2.897,-0l-0,-3.863l5.794,-0.966c4.828,0 7.725,0 8.69,-0.965c0.966,-0.966 2.092,-1.449 2.897,-1.932c0.617,-0.37 1.449,-0.482 1.931,-0.965c0.483,-0.483 0.966,-1.61 0.966,-1.931c0,-0.322 -0.678,0.144 -0.966,-0c-0.321,-0.161 -0.643,-0.966 -0.965,-0.966c-0.322,-0 -0.529,0.837 -0.966,0.966c-2.736,0.804 -10.622,3.862 -15.45,3.862c-3.862,0 -5.794,-0.966 -5.794,-3.862l0,-0.966l1.932,-0.966c0.965,0 5.793,-0.965 9.656,-1.931c5.794,-0.966 8.691,-1.931 8.691,-3.862l-0,-0.966l-1.932,0.966c-1.931,-0 -14.484,2.896 -17.381,2.896l-1.931,0.966l-0.966,-3.862l0,-2.897l1.931,-0.966c1.932,0 4.828,-0.966 7.725,-1.931c5.794,-0.966 9.657,-1.931 32.832,-6.76c17.381,-4.828 33.797,-7.725 35.728,-7.725l0.966,0l-1.932,1.932c-1.931,1.931 -3.862,2.896 -7.725,2.896c-12.553,1.932 -30.9,6.76 -37.659,11.588l-0,0.966l0.965,-0l1.932,-0.966c7.725,-3.862 12.553,-4.828 18.347,-6.759c3.862,-0 7.725,-0.966 9.656,-1.932c1.931,-0.965 4.828,-0.965 5.794,-0.965l3.862,-0l-2.897,0.965c-0.965,0 -3.862,0.966 -5.793,0.966c-1.932,0.966 -4.829,1.931 -5.794,1.931l-0.966,1.932c0,0.965 2.897,-0 4.828,-0c1.932,-0.966 5.794,-1.932 7.725,-1.932c1.932,0 3.863,-0.965 9.657,-6.759c5.793,-4.828 6.759,-5.794 11.587,-6.76l4.828,0l0,1.932c0,0.965 -2.414,2.897 -2.897,3.862c-0.287,0.576 -0.321,1.61 0,1.931c0.322,0.322 1.792,-0.628 1.932,0c0.322,1.449 -0,8.691 -0,8.691c-0,4.828 -0.644,7.403 -0.966,8.691c-0.11,0.441 -0.762,-0.559 -0.966,-0.966c-0.321,-0.644 -0.965,-1.931 -0.965,-2.897c-0,-2.897 -3.863,-7.725 -6.76,-8.69l-1.931,-0.966l-0.965,0.966c-0.966,0.965 -3.863,1.931 -6.76,2.897c0,-0 -3.637,0.075 -4.442,0.236c-0.269,0.054 -0.386,0.729 -0.386,0.729c-0,1.931 2.897,2.897 7.725,2.897c5.794,0 6.759,0.966 8.691,5.794c0.965,3.862 2.897,21.244 1.931,24.141l-0.966,0.965l-0.965,-0.965c-0,-0 -1.932,-6.76 -2.897,-13.519l-1.931,-13.519l-0.966,-0l-0.966,0.966l0,6.759c0,3.862 0.966,11.588 0.966,18.347c0.966,5.794 1.931,14.484 2.897,17.381l-0,6.76l-0.966,-0l-0.965,-0.966l-0.966,-9.656c-0.966,-17.382 -5.794,-35.729 -9.656,-39.591l-1.932,-0.966l0,3.863l-1.931,-0l-1.931,-0.966l-0,18.347c-0.966,10.622 -0.966,20.278 -1.931,21.244l-0,2.897l-0.966,-0.966c-0.966,0 -0.966,-5.794 0.966,-18.347c0.965,-8.69 0.965,-12.553 -0,-18.347c-0.966,-5.793 -0.966,-5.793 1.931,-8.69l3.862,-2.897l-3.862,0.965c-1.931,0 -5.794,0.966 -8.691,2.897c-3.862,0.966 -7.725,2.897 -8.69,2.897c-0.966,0.966 -2.897,1.931 -3.863,2.897c-1.931,0.966 -4.828,2.897 -8.691,3.863c-9.656,3.862 -13.518,6.759 -15.45,8.69l-1.931,2.897l0.966,0.966l-0,0.965l1.931,-1.931c0.966,-1.931 8.691,-6.759 9.656,-6.759l0.966,-0l-0,2.897c-0,1.931 -0,3.862 0.965,4.828c0.966,-0 0.966,5.794 0,10.622c-0.965,1.931 -1.931,4.828 -1.931,5.793l0,1.932l2.897,-1.932l1.931,-1.931l0.966,0.966c0.966,0.965 0.966,2.897 0.966,4.828c-0,0.966 -0,3.862 0.965,5.794c0.966,1.931 0,6.759 -0.965,14.484c-0,6.76 -0.966,13.519 -0.966,15.45l-0,3.863l1.931,-0l0.966,-12.553Zm-59.869,1.931c-0.966,-3.863 -1.931,-4.828 -3.863,-4.828l-1.931,0.965l-0.966,1.932l0,1.931l1.932,-0l-0,-0.966l0.965,-0.965l1.932,1.931c-0,0.965 1.931,1.931 1.931,1.931l0.966,0l-0.966,-1.931Zm-18.347,-11.588c2.897,-1.931 6.759,-4.828 7.725,-4.828c1.931,-0.965 4.828,-2.897 5.794,-4.828l2.897,-2.897l-0.966,0c-0.966,0 -1.931,0.966 -2.897,1.931c-1.931,0.966 -15.45,10.622 -18.347,11.588l-1.931,0.966l-0,0.965c1.931,1.931 2.897,0.966 7.725,-2.897Zm-8.691,-3.862c1.932,-0.966 5.794,-2.897 7.725,-3.863c1.932,-0.965 2.897,-1.931 2.897,-1.931c0.966,-0 3.863,-0.966 7.725,-3.863c5.794,-3.862 12.553,-6.759 13.519,-5.793l0,0.965l-1.931,1.932c-1.931,-0 -2.897,1.931 -2.897,2.896l-0,0.966l2.897,-1.931c0.965,-0.966 3.862,-2.897 5.794,-3.863c1.931,-0.965 4.828,-1.931 7.725,-1.931c2.896,0 4.828,-0.966 7.725,-2.897c1.931,-1.931 4.828,-3.862 5.793,-3.862c0.966,-0 3.863,-1.932 6.76,-2.897l3.862,-3.863l-0.965,-0.965l-0.966,-0l-1.931,1.931c-2.897,2.897 -5.794,3.862 -8.691,3.862c-1.931,0 -3.862,0.966 -4.828,2.897c-1.931,1.932 -4.828,2.897 -7.725,2.897c-1.931,0.966 -4.828,0.966 -5.794,1.931l-0.965,0l-0,-2.896l1.931,-0c1.931,-0 2.897,-0.966 3.862,-1.932l0.966,-0.965l-4.828,-0c-1.931,-0 -6.76,1.931 -9.656,2.897c-2.897,1.931 -5.794,2.896 -6.76,2.896l2.897,-2.896c1.931,-2.897 2.897,-3.863 2.897,-6.76c-0,-1.931 -0.966,-3.862 -1.931,-3.862l-0.966,-0l-0,3.862c-0,2.897 -0.966,3.863 -2.897,5.794c-2.897,2.897 -13.519,8.691 -22.209,12.553c-3.863,0.966 -8.691,2.897 -10.622,3.863l-2.897,1.931l1.931,1.931l3.863,-1.931c1.931,-1.931 4.828,-2.897 6.759,-3.863c2.897,-0.965 4.828,-1.931 5.794,-1.931c-0,-0.966 1.931,-0.966 1.931,-0.966l1.931,0.966l-5.793,1.931l-0,3.863l-0.966,-0.966l-1.931,-0.965l-0,2.897l-1.932,-0l0,2.896l-2.896,0l-2.897,-0.965l-0,1.931l0.965,0c1.932,0.966 2.897,0.966 7.725,-1.931Zm-20.278,-20.278c2.897,-0.966 5.794,-2.897 6.759,-3.863l0,-0.966c-0.965,0 -10.621,3.863 -14.484,5.794c-0.966,0 -3.862,0.966 -5.794,0.966l-2.897,-0l0.966,0.965c0.966,1.932 8.691,0.966 15.45,-2.896Zm69.525,-5.794l0,-0.966l-0.965,0c-0.966,0 -1.932,0.966 -1.932,1.931l0,0.966l0.966,0c0.966,0 1.931,-0.966 1.931,-1.931Zm-52.144,-2.897c1.932,-2.897 4.829,-4.828 5.794,-5.794c1.931,0 2.897,-0.965 2.897,-1.931l0,-0.966l-1.931,0c-1.931,0 -4.828,1.932 -8.691,5.794l-6.759,5.794l0.965,-0c0.966,1.931 2.897,0.965 7.725,-2.897Zm14.485,-10.622l0.965,-0.966l0,-0.965l-0.965,-0l-1.931,0.965c-0.966,0 -1.932,0.966 -1.932,1.932l0,0.965l0.966,0c0.966,0 1.931,-0.965 2.897,-1.931Zm-60.835,-6.759c-2.897,-1.932 -4.828,-1.932 -9.656,-2.897l-6.759,-0l-0,0.965c0.965,0 2.896,0.966 4.828,0.966c2.897,-0 5.793,0.966 7.725,1.931c0.965,0.966 3.862,1.931 4.828,1.931l2.897,0l-3.863,-2.896Zm128.429,-1.932c3.058,-1.448 12.553,-6.437 15.45,-7.725c0.588,-0.261 1.609,0.161 1.931,0c0.069,-0.034 0.113,-0.09 0.138,-0.16c0.082,-0.224 -0.028,-0.586 -0.138,-0.805c-0.161,-0.322 -0.965,-0.805 -0.965,-0.966c-0,-0.161 0.643,0 0.965,0c0.483,0 1.61,0.161 1.931,0c0.288,-0.144 0,-0.644 0,-0.966c0,-0.321 0.313,-0.887 0,-0.965c-0.643,-0.161 -2.711,-0.576 -3.862,-0c-3.863,1.931 -16.094,9.495 -19.313,11.587c-0.27,0.176 -0.161,0.805 0,0.966c0.161,0.161 0.654,0.078 0.966,-0c0.644,-0.161 1.977,-0.53 2.897,-0.966Zm-3.863,-7.725c0.364,-0.273 1.288,-0.804 0.966,-0.965c-0.322,-0.161 -2.092,-0 -2.897,-0c-0.644,-0 -1.609,-0.322 -1.931,-0c-0.322,0.322 -0,1.448 -0,1.931c-0,0.322 -0.161,0.805 -0,0.966c0.161,0.16 0.678,0.144 0.965,-0c0.644,-0.322 2.254,-1.449 2.897,-1.932Zm27.038,-4.828c-0.161,-0.322 -0.644,-0.805 -0.966,-0.965c-0.288,-0.144 -0.804,-0.161 -0.965,-0c-0.161,0.16 -0.144,0.677 -0,0.965c0.161,0.322 0.643,0.805 0.965,0.966c0.288,0.144 0.805,0.161 0.966,-0c0.161,-0.161 0.144,-0.678 -0,-0.966Zm-169.951,-5.794l0,-0.965l-10.622,-0l0,0.965c0,1.932 1.932,1.932 5.794,1.932l3.863,-0l0.965,-1.932Zm0,-8.69c0,-0.966 -1.931,-1.932 -2.897,-1.932l-1.931,0l0,2.897l4.828,0l0,-0.965Zm-6.759,-0l-0,-1.932l-0.966,0c-0.965,-0.965 -2.897,-0.965 -4.828,-0.965l-3.862,-0.966l-0,1.931l1.931,0c0.965,0 2.897,0 3.862,0.966c0.966,0.966 1.932,0.966 2.897,0.966l0.966,-0Zm4.828,-20.278l0,-0.966l-1.931,-0c-1.932,-0 -2.897,-0.966 -3.863,-1.931l-0.965,-1.932l-3.863,0l-2.897,0.966l-0.965,0.966l-0,0.965l2.896,0c0.966,0 2.897,0.966 4.829,1.932c2.896,1.931 5.793,1.931 6.759,-0Zm3.863,-0l-0,-0.966l-1.932,-0l0,1.931c0.966,0 0.966,0 1.932,-0.965Zm-20.279,-2.897l0,-1.932l-1.931,0l0,1.932l1.931,-0Zm179.607,-129.395c4.828,-4.828 8.274,-5.326 12.459,-6.292c4.111,-0.948 8.709,-2.226 12.648,0.499l-0,-2.897c-0,-4.828 -2.897,-6.76 -9.657,-7.725c-3.862,-0 -6.759,-0.966 -7.725,-0.966l0,-0.966l2.897,-3.862l2.897,-2.897l0,-0.966l-0.966,-0.965l2.897,-2.897c3.863,-2.897 10.622,-6.76 12.553,-6.76c0.966,0 4.829,-4.828 6.76,-8.69c0.966,-1.931 2.897,-3.863 4.828,-5.794c6.759,-7.725 10.622,-18.347 8.691,-28.003c-0,-0 0.161,-4.989 -0,-5.794c-0.09,-0.446 -0.713,0.587 -0.966,0.966c-0.322,0.482 -0.966,0.965 -0.966,1.931c0,-0 -0.511,2.76 -1.456,2.787c-1.006,0.028 -1.122,-4.604 -1.007,-7.358c0.096,-2.274 -0.039,-6.169 -0.433,-7.017c-0.384,-0.825 -1.449,1.771 -1.932,1.932c-0.432,0.144 -0.643,-0.644 -0.965,-0.966c-0.483,-0.483 -1.681,-2.806 -1.932,-1.931c-0.417,1.457 1.677,7.695 -0.573,10.677c-0.769,1.018 -0.166,3.334 -0.392,3.807c-0.196,0.411 -0.797,-0.543 -0.966,-0.965c-0.322,-0.805 -0.965,-1.932 -0.965,-3.863c-0,0 0.16,-2.414 -0,-2.897c-0.102,-0.305 -0.678,-0.144 -0.966,0c-0.322,0.161 -0.855,0.524 -0.966,0.966c-0.322,1.287 -0.965,6.759 -0.965,6.759c-0,0 0.322,4.667 -0,5.794c-0.198,0.692 -1.449,0.805 -1.932,0.966c-0.305,0.101 -0.821,0.287 -0.965,-0c-0.161,-0.322 0.106,-1.297 -0,-1.932c-0.161,-0.965 -0,-2.897 -0.966,-3.862l-0.966,-0.966c-0.965,0 -0.965,2.897 -1.931,5.794c0,-0 0.161,4.023 0,4.828c-0.063,0.316 -0.738,0.228 -0.965,0c-0.483,-0.483 -1.288,-1.931 -1.932,-2.897c-0.643,-0.965 -1.287,-2.414 -1.931,-2.897c-0.515,-0.386 -1.775,-0.624 -1.931,0c-0.161,0.644 0.805,2.575 0.965,3.863c0.16,1.277 0.161,3.219 0,3.862c-0.078,0.313 -0.677,-0.144 -0.965,0c-0.322,0.161 -0.511,0.966 -0.966,0.966c-0.483,-0 -1.355,-0.534 -1.931,-0.966c-0.644,-0.482 -1.931,-1.931 -1.931,-1.931l-0.966,0c-0.966,0.966 -0.966,1.931 -0.966,1.931c0,0.966 -0.965,2.897 -2.896,4.829c-1.932,1.931 -3.863,3.862 -4.829,5.793c0,1.932 -1.931,2.897 -2.896,3.863c-0.966,-0 -3.863,1.931 -4.829,2.897c-0.965,1.931 -2.897,2.897 -3.862,2.897c-1.931,-0 -7.725,5.793 -9.656,9.656l-0.966,3.862l-0.966,-5.793c0,-5.794 0,-5.794 -11.587,-16.416c-10.622,-9.656 -11.588,-10.622 -12.553,-16.416c-0.966,-2.897 -1.932,-5.15 -2.897,-7.725c-0.966,-2.575 -1.932,-5.794 -2.897,-7.725c-0,0 -0.644,-4.023 -0.966,-4.828c-0.119,-0.299 -0.887,-0.312 -0.965,0c-0.161,0.644 -0,3.863 -0,3.863c-0,1.931 0.965,5.793 1.931,8.69c-0,3.863 0.965,5.794 0.965,6.76l0,0.965l-1.931,-2.897c-2.897,-3.862 -6.759,-10.622 -7.725,-14.484c0,-0 -0.273,-2.576 -0.595,-3.22c-0.221,-0.442 -1.161,-0.18 -1.336,-0.643c-0.223,-0.59 -0,-2.896 -0,-2.896c-0,-0 0.161,-1.61 -0,-1.932c-0.144,-0.288 -0.678,-0.144 -0.966,0c-0.322,0.161 -0.855,0.524 -0.965,0.966c-0.161,0.644 -0,2.897 -0,2.897c-0,2.897 0.965,6.759 3.862,11.587c0,0 0.228,1.194 0,0.966c-0.322,-0.322 -1.931,-2.897 -1.931,-2.897c-1.931,-0.966 -2.897,-2.897 -2.897,-3.862c0,-0.966 -6.277,-7.243 -7.725,-8.691c-0.228,-0.228 -0.805,-0.161 -0.966,-0c-0.161,0.161 -0.178,0.698 0,0.966c0.644,0.965 1.932,2.896 3.863,4.828c0.966,2.897 2.897,4.828 2.897,4.828c-0,0.965 1.931,2.897 3.862,5.794c0,-0 2.414,3.057 2.897,3.862c0.166,0.276 0.161,0.805 0,0.966c-0.161,0.161 -0.738,0.227 -0.965,-0c-1.449,-1.449 -7.725,-8.691 -7.725,-8.691c-4.829,-4.828 -7.082,-7.242 -8.691,-8.691c-0.239,-0.215 -0.805,-0.161 -0.966,0c-0.161,0.161 -0.184,0.702 0,0.966c1.127,1.609 2.897,4.828 6.76,8.691c-0,-0 4.828,5.472 5.793,6.759c0.194,0.258 0.161,0.805 0,0.966c-0.161,0.161 -0.714,0.201 -0.965,-0c-0.805,-0.644 -3.863,-3.863 -3.863,-3.863c-3.862,-1.931 -5.794,-3.862 -8.69,-3.862c-1.932,-0.966 -3.863,-0.966 -3.863,-0l1.931,1.931c0.966,1.931 4.828,3.862 9.657,6.759c3.862,1.932 6.437,3.863 7.725,4.828c0.257,0.194 0.322,0.966 -0,0.966c-0.483,0 -2.897,-0.966 -2.897,-0.966c-0.966,0 -4.828,-0.965 -7.725,-2.896c-0,-0 -4.667,-1.61 -5.794,-1.932c-0.31,-0.088 -0.805,-0.161 -0.966,0c-0.161,0.161 -0.165,0.69 0,0.966c0.483,0.805 2.897,3.862 2.897,3.862c2.897,1.932 4.828,4.829 4.828,5.794c0.966,1.932 1.932,2.897 5.794,2.897c1.931,0 3.863,0.644 4.828,0.966c0.432,0.144 1.288,0.804 0.966,0.965c-0.322,0.161 -2.897,0 -2.897,0c0,0 -3.219,-0.161 -3.862,0c-0.313,0.078 -0.114,0.665 -0,0.966c0.482,1.288 0.965,3.863 2.896,6.759c1.932,2.897 2.897,6.76 2.897,7.725c0,0.966 0,1.932 0.966,2.897c-0,0 1.931,2.897 2.897,6.76c4.828,14.484 6.759,16.415 20.278,16.415l4.828,0.966l0,1.931l-1.931,0.966c-2.897,0.966 -13.519,0.966 -19.313,-0.966c0,0 -2.342,-1.83 -3.465,-2.338c-1.016,-0.461 -2.238,-0.459 -3.27,-0.713c-0.981,-0.242 -2.273,-0.837 -2.921,-0.811c-0.455,0.018 -0.601,0.692 -0.966,0.965c-0.643,0.483 -1.931,1.932 -2.896,1.932l-0.966,-0l-0,0.965c-0.349,3.889 4.341,4.533 5.513,5.3c0.415,0.271 0.11,0.995 0.281,1.46c0.207,0.565 0.482,1.609 0.965,1.931c0.483,0.322 1.932,-0 1.932,-0c0.965,-0 2.896,0.966 3.862,2.897c2.897,2.897 3.863,3.862 8.691,1.931c2.897,-0.966 3.862,-0.966 16.415,1.931c1.932,0.966 4.829,0.966 5.794,1.932c1.931,0.965 11.588,2.897 15.45,2.897c2.897,-0 3.863,-0.966 7.725,-4.829Zm-21.244,229.82c-0.965,-3.862 -0.965,-10.622 0,-13.519l0.966,-1.931l0,0.966c1.931,4.828 3.863,11.587 3.863,12.553c-0,1.931 -2.897,4.828 -3.863,4.828l-0.966,-0l0,-2.897Zm-4.828,-7.725c0.061,-0.422 0.644,-1.931 0.966,-1.931c0.322,-0 0.966,1.448 0.966,1.931c-0,0.455 -0.745,0.865 -0.966,0.966c-0.156,0.07 -0.242,-0.242 -0.362,-0.363c-0.161,-0.161 -0.644,-0.321 -0.604,-0.603Zm44.419,21.244l-1.931,-3.863l1.931,-2.897c3.863,-3.862 5.794,-8.69 5.794,-15.45l-0,-4.828l1.931,1.931c0.966,1.932 1.931,3.863 1.931,6.76c0,4.828 -0.965,5.794 -3.862,10.622c-1.931,2.897 -3.863,5.794 -4.828,6.759l-0.966,0.966Zm21.244,-8.691c0,-5.794 0.966,-19.312 2.897,-26.072c1.931,-5.794 1.931,-28.969 -0,-32.831c-1.931,-4.828 -4.506,-6.277 -5.794,-7.725c-0.478,-0.538 -2.092,-0.644 -1.931,-0.966c0.161,-0.322 1.931,-0.805 2.897,-0.965c0.952,-0.159 2.143,-0.604 2.897,-0c0.804,0.643 1.931,3.862 1.931,3.862c2.897,8.691 3.862,14.484 2.897,34.763c-0.966,19.312 -1.931,32.831 -3.863,33.797l-0.965,0.965l-0.966,-4.828Zm-26.072,1.931l0,-15.45l1.931,0l0.966,1.932l-0,7.725l-0.966,5.793l-1.931,0Zm6.759,-14.484c0,-3.863 0,-14.484 0.966,-23.175l0,-15.45l1.931,-0l0,11.587c0,11.588 -0.965,21.244 -2.897,30.901l-0.965,3.862l0.965,-7.725Zm33.797,-7.725c0,-8.691 0,-16.416 0.966,-18.347l0.966,-2.897l-0.966,10.622c0,5.794 -0.966,14.484 -0.966,18.347l-0.965,6.759l0.965,-14.484Zm-4.828,7.725c0,-0.644 -0.161,-1.77 0,-1.931c0.161,-0.161 0.713,0.587 0.966,0.965c0.322,0.483 0.805,1.288 0.966,1.932c0.156,0.624 0.161,1.609 -0,1.931c-0.144,0.288 -0.644,-0 -0.966,-0c-0.322,-0 -0.864,0.305 -0.966,-0c-0.161,-0.483 0,-2.092 0,-2.897Zm-19.312,-12.553c-0,-7.725 -0,-13.519 -0.966,-14.485c0,-1.931 -0.966,-4.828 -0.966,-6.759l-0.965,-3.863l0.965,0.966c2.897,2.897 5.794,33.797 3.863,36.694l-0.966,0.966l-0.965,-13.519Zm-141.948,10.622l0,-1.932l1.932,0c0.965,-0.965 0.965,-0.965 1.931,-0.965l-0,1.931c-0.966,0.966 -1.931,0.966 -2.897,0.966l-0.966,-0Zm189.264,-1.932c-0,-0.965 -0,-3.862 0.965,-5.793l0.966,-3.863l0.965,0.966l0.966,-0l-0.966,3.862c0,1.932 -0.965,3.863 -0.965,4.828l-0.966,1.932l-0.965,-1.932Zm5.793,-5.793c-1.931,-4.828 -0.965,-11.588 1.932,-22.21c0.965,-3.862 1.931,-10.622 2.896,-14.484c0.966,-4.828 2.897,-9.656 2.897,-10.622l0.966,-1.931l1.931,-0l0,2.897c0,1.931 0,4.828 -0.965,7.725l-0.966,3.862l-2.897,4.828c-0.966,0.966 -3.862,10.622 -3.862,15.45c-0,1.932 -0,5.794 0.965,8.691c0.966,3.862 0.966,6.759 0,7.725l-0.965,1.931l-1.932,-3.862Zm-56.972,-0c0,-0.966 -0.965,-2.897 -0.965,-4.828l-0,-1.932l0.965,0.966c0,-0 0.966,1.931 0.966,3.862l0.965,3.863c0,-0 -0.965,-0.966 -1.931,-1.931Zm21.244,-10.622c0.966,-5.794 1.931,-15.45 1.931,-21.244c0,-6.759 1.449,-15.289 1.932,-20.278c0.311,-3.22 0.159,-9.581 0.965,-9.657c0.837,-0.078 0.966,7.725 0.966,7.725c-0,15.451 -1.931,45.385 -2.897,50.213l-0.966,4.828l-1.931,0l0,-11.587Zm-7.725,10.622c0,-0.966 -0.966,-3.863 -0.966,-6.76l-0.965,-4.828l1.931,3.863c0,1.931 0.966,4.828 0.966,5.793l-0,2.897l-0.966,-0.965Zm30.9,-2.897c-1.931,-3.863 -1.931,-19.313 0,-24.141c0.966,-2.897 2.897,-5.794 2.897,-5.794c0.966,-0.965 0.966,-1.931 0.966,-2.897l-0,-1.931l1.931,0l-0,12.553c-0.966,6.76 -0.966,14.485 -1.931,18.347l-0.966,5.794l-0.966,0c-0.965,0 -0.965,-0.966 -1.931,-1.931Zm5.794,-3.863c-0,-1.931 -0,-3.862 0.966,-3.862c0.965,-0.966 0.965,-1.931 0.965,-3.863c0,-1.931 0.966,-4.828 0.966,-6.759l0.965,-4.828l1.932,-0l-0,-2.897c-0,-3.863 2.897,-16.416 3.862,-17.381c0.966,-0.966 0.966,-5.794 0.966,-13.519l-0.966,-13.519l0.966,-0c1.931,-0 2.897,4.828 2.897,13.519c-0,8.69 -0.966,15.45 -6.76,37.659l-2.897,10.622l-1.931,2.897l-1.931,5.794l-0,-3.863Zm-18.347,-2.897c-0,-2.896 0.966,-8.69 0.966,-12.553l0.965,-6.759l0,6.759c0,3.863 0,8.691 0.966,10.622c-0,1.931 -0,3.863 -0.966,5.794l-1.931,1.931l-0,-5.794Zm28.969,0c-0,-3.862 0.965,-13.518 3.862,-19.312c0.966,-2.897 2.897,-6.76 2.897,-9.656l1.932,-4.829l1.931,0l-0,3.863c-0,3.465 -0.995,9.416 -2.627,16.07c-0.642,2.618 -1.383,5.344 -2.201,8.071l-2.897,9.656l-1.932,-0l-0.965,-3.863Zm-166.088,-1.931c-0,-1.931 -0,-3.862 0.965,-3.862l0.966,-0l-0,3.862l-0.966,3.863l-1.931,-0l0.966,-3.863Zm69.525,-0.965c-0,-1.932 8.691,-18.347 10.622,-19.313c0.966,-0.966 2.897,-1.931 3.862,-1.931c0.966,0.965 3.863,5.793 2.897,6.759l-0.965,0l-1.932,-1.931l-1.931,-0.966l-1.931,0.966c-0.966,-0 -1.931,1.931 -2.897,4.828c-1.931,3.863 -6.759,12.553 -7.725,12.553l-0,-0.965Zm6.759,-0.966c0,-1.931 0.966,-3.863 0.966,-5.794c0.966,-1.931 1.931,-3.862 1.931,-3.862c0,-0.966 0.966,-1.932 0.966,-2.897l1.931,-0.966l0.966,0l0.965,0.966l-1.931,6.759c-1.931,3.863 -2.897,6.76 -3.862,6.76l-0.966,0.965l-0.966,-1.931Zm28.969,-1.931c-0.965,-0 -0.965,-0.966 -0.965,-2.897l-0,-1.931l0.965,0.965c0.966,0 0.966,1.931 0.966,2.897l-0,1.931l-0.966,-0.965Zm35.729,-5.794c-0,-2.897 -0,-7.725 0.965,-12.553c0.966,-4.828 0.966,-8.691 0.966,-9.657c0.965,-2.896 2.897,-5.793 3.862,-5.793l0.966,-0l-0.966,4.828c0,1.931 -0.965,7.725 -1.931,12.553c-0.966,4.828 -1.931,9.656 -1.931,11.588l-0,2.896l-1.931,0l-0,-3.862Zm-116.842,1.931c-1.931,-0.965 -0.965,-7.725 0.966,-10.622c0.966,-1.931 1.931,-4.828 1.931,-10.622l0.966,-7.725l1.931,0l0,8.691c0,5.794 0.966,10.622 1.931,12.553c0.966,1.931 1.932,4.828 1.932,5.794l-0,2.897l-4.828,-0c-1.932,-0 -4.829,-0 -4.829,-0.966Zm44.419,0c-0.322,-0.322 -0.804,-1.448 -0.965,-1.931c-0.102,-0.305 -0.161,-0.966 -0,-0.966c0.161,0 0.713,0.587 0.965,0.966c0.322,0.483 0.966,1.609 0.966,1.931c-0,0.322 -0.738,0.228 -0.966,0Zm19.313,0c-0.322,-0.644 -0.805,-2.092 -0.966,-2.897c-0.126,-0.631 -0.161,-1.77 0,-1.931c0.161,-0.161 0.797,0.543 0.966,0.966c0.322,0.804 0.805,3.057 0.966,3.862c0.063,0.316 0.16,0.966 -0,0.966c-0.161,-0 -0.763,-0.559 -0.966,-0.966Zm2.897,-1.931c0.322,-1.288 1.448,-3.541 1.931,-4.828c0.357,-0.953 0.644,-2.092 0.966,-2.897c0.267,-0.668 0.643,-1.931 0.965,-1.931c0.322,-0 0.966,1.211 0.966,1.931c-0,0.805 -0.686,1.918 -0.966,2.897c-0.322,1.126 -0.499,2.62 -0.965,3.862c-0.483,1.288 -1.449,3.219 -1.932,3.863c-0.193,0.257 -0.863,0.305 -0.965,-0c-0.161,-0.483 -0.234,-1.96 -0,-2.897Zm116.841,-0.966l-0,-19.312c-0,-13.519 -0,-17.382 1.931,-18.347c0.966,-0.966 1.931,-1.932 1.931,-1.932l0.966,0l0,2.897c0,1.932 -0.966,6.76 -1.931,10.622c-0,2.897 -1.931,10.622 -1.931,16.416l-0.966,9.656Zm-248.167,-2.897c0,-0.965 0.966,-1.931 1.932,-1.931l1.931,0l-0,0.966c-0,0.965 -0.966,1.931 -1.931,1.931l-1.932,-0l0,-0.966Zm112.013,0.966l-2.897,-2.897c0,-0.966 1.932,-1.609 2.897,-1.931c0.916,-0.306 2.897,-0 2.897,-0l0,0.965c0,1.932 -1.931,3.863 -2.897,3.863Zm62.766,-14.484c0,-5.794 0.966,-13.519 0.966,-15.451l0.965,-3.862l0,6.759c0,2.897 -0.965,10.622 -1.931,15.45l-0.966,8.691l0.966,-11.587Zm12.553,9.656c0,-0.966 0.966,-3.863 1.932,-6.76c0.965,-2.896 1.931,-5.793 1.931,-6.759c-0,-0.966 0.965,-3.862 1.931,-5.794l1.931,-3.862l0,1.931c0,0.966 -0.965,4.828 -1.931,7.725c-0.966,2.897 -1.931,6.759 -2.897,9.656c-0.965,1.932 -1.931,3.863 -1.931,4.828l-0.966,0l0,-0.965Zm41.522,-0.966c0,-1.931 -0.965,-3.862 -1.931,-5.794c-1.931,-5.793 2.897,-37.659 7.725,-43.453c0.966,-1.931 2.897,-3.862 2.897,-4.828l0.966,0l-0,2.897c-0,2.897 -1.932,9.656 -4.829,21.244c-0.965,5.793 -1.931,11.587 -1.931,17.381c0,4.828 -0.965,10.622 -0.965,11.588l-0.966,2.896l-0.966,-1.931Zm-99.459,-1.931c-0,-0.966 0.965,-1.931 1.931,-2.897l0.965,-0.966l0,1.932c0,1.931 -0.965,3.862 -1.931,3.862l-0.965,0l-0,-1.931Zm110.081,0.966c-0.965,-0 -0.965,-2.897 -0.965,-5.794l-0,-4.828l1.931,-0l-0,11.587c-0.966,0 -0.966,0 -0.966,-0.965Zm-237.544,-1.932c-0,0 -0,-3.862 0.965,-6.759c0,-3.863 0.966,-8.691 0.966,-10.622l-0,-4.828l6.759,-1.931c3.863,-0 8.691,-0.966 11.588,-1.932c1.931,-0.965 4.828,-0.965 6.759,-0.965c0.966,-0 6.76,-0.966 11.588,-1.932c8.69,-1.931 8.69,-1.931 10.622,0c1.931,0.966 4.828,2.897 6.759,3.863c5.794,1.931 6.759,3.862 6.759,9.656l0,4.828l-2.896,0c-1.932,0 -4.829,0.966 -5.794,0.966c-0.966,0.966 -5.794,1.931 -9.657,1.931c-8.69,1.932 -29.934,6.76 -36.693,8.691c-2.897,-0 -4.829,0.966 -5.794,0.966l-0.966,-0l-0.965,-1.932Zm196.022,-1.931c-0.965,-5.794 -0.965,-19.313 0,-19.313l0.966,-0.965l-0,3.862l1.931,0l0,3.863c0,2.897 0,6.759 -0.966,10.622l0,5.794l-1.931,-0l0,-3.863Zm-209.541,0.966c-1.932,-0.966 -11.588,-5.794 -11.588,-5.794l0,-0.966l0.966,0l5.794,2.897c2.896,1.931 6.759,2.897 8.69,2.897l3.863,0l-0,0.966c-0.966,1.931 -1.931,1.931 -7.725,-0Zm138.085,-0.966c0.322,-0.483 1.448,-1.609 1.931,-1.931c0.268,-0.179 0.805,-0.161 0.966,-0c0.16,0.161 0.178,0.698 -0,0.965c-0.322,0.483 -1.449,1.61 -1.932,1.932c-0.268,0.178 -0.804,0.161 -0.965,-0c-0.161,-0.161 -0.179,-0.698 -0,-0.966Zm52.144,-22.209c-0.966,-13.519 -0.966,-25.107 -0,-26.072l-0,-2.897l1.931,-0l-0,7.725c0.966,8.69 -0,40.556 -0.966,42.487l-0.965,1.932l-0,-23.175Zm42.487,19.312c0,-1.931 -1.931,-5.794 -4.828,-9.656c-1.931,-3.863 -3.862,-7.725 -3.862,-8.691l0.965,-0.965l1.932,3.862c4.828,8.691 7.725,14.485 8.69,15.45l0,1.931l-1.931,0l-0.966,-1.931Zm-227.888,0c-0.966,-0.965 -1.931,-0.965 -2.897,-0.965c-2.897,-0 -8.691,-2.897 -15.45,-7.725l-4.828,-3.863l0.965,-0.966c0.966,0 2.897,0.966 3.863,1.932c2.897,1.931 11.587,6.759 13.519,6.759c-0,0 0.965,0.966 2.897,1.931c0.965,0.966 2.897,1.932 3.862,1.932c0.966,-0 1.931,-0 2.897,0.965l0,0.966l-1.931,-0c-1.931,-0 -2.897,-0 -2.897,-0.966Zm-0,-4.828l-4.828,-0.966l-0,-1.931l0.965,0c0.966,0 1.932,0 2.897,0.966c0,0.965 1.932,0.965 2.897,0.965l1.931,0l0.966,-3.862l0,-3.863l-1.931,0.966l-0.966,0l-0.965,-0.966c-0.966,-0.965 -1.932,-1.931 -2.897,-1.931c-1.932,0 -2.897,-0.966 -4.829,-0.966l-0.965,-1.931l1.931,-0.965l1.931,-1.932l-2.897,0c-0.965,0 -2.896,-0.965 -3.862,-2.897l-1.931,-2.896l0.965,-0c0,-0 2.897,0.965 4.828,2.896c1.932,0.966 3.863,1.932 4.829,1.932c0.965,-0 1.931,0.965 2.897,1.931c0.965,0.966 2.896,1.931 3.862,1.931l1.931,0l0.966,0.966c-0,0.965 -0,4.828 -0.966,7.725l0,5.794l-0.965,0.965c-0.966,0 -3.863,-0.965 -5.794,-1.931Zm229.82,-1.931c-1.932,-0.966 -0.966,-7.725 0.965,-17.382c1.931,-5.793 2.897,-10.621 3.863,-10.621l0.965,-0.966l0,4.828c-0.965,2.897 -1.931,9.656 -2.897,15.45l-0.965,9.656l-0.966,0c0,0 -0.965,0 -0.965,-0.965Zm14.484,-0.966l-0.966,-0.965l0.966,-1.932l1.931,-0.965l0.966,-0l-0,2.897l-0.966,1.931l-0.965,-0c-0,-0 -0.966,-0 -0.966,-0.966Zm-165.123,-1.931c0,-0.966 -0.965,-1.931 -0.965,-3.863c-0,-1.931 -3.863,-4.828 -11.588,-8.69c-4.828,-2.897 -9.656,-7.725 -9.656,-10.622c-0,-0.966 -0.966,-2.897 -1.931,-4.828c-1.932,-1.932 -3.863,-5.794 -4.828,-9.657c-0.966,-2.897 -2.897,-5.793 -3.863,-6.759c-0.966,-1.931 -1.931,-2.897 -1.931,-3.863l-0.966,-1.931l-1.931,0l-0,0.966c-0,0.965 0.966,1.931 0.966,2.897c0.965,-0 1.931,3.862 1.931,7.725c-0,5.794 -0,7.725 -0.966,8.69c-0.965,0.966 -1.931,1.932 -0.965,5.794l-0,3.863l-8.691,-0c-7.725,-0 -8.691,-0 -14.485,-3.863c-8.69,-5.794 -7.725,-4.828 -7.725,-20.278l0,-13.519l1.932,-0.965c0.965,-0 2.897,-0.966 2.897,-1.932l-0,-1.931l-3.863,0l-0.966,-5.794c0,-2.897 0,-5.794 0.966,-7.725c0.966,-0.965 1.931,-2.897 1.931,-3.862c0,-2.897 3.863,-7.725 7.725,-9.657l3.863,-1.931l-0,4.828l-0.966,3.863l2.897,-0l1.931,-9.656l1.932,-0.966l2.897,-0l-0,2.897c-0,1.931 0.965,3.862 2.896,5.794c2.897,3.862 2.897,6.759 -0.965,10.621c-3.863,3.863 -4.828,8.691 -2.897,10.622l0.966,0l3.862,-2.896c1.931,-1.932 4.828,-4.829 6.759,-5.794l2.897,-0.966l3.863,2.897c0.965,2.897 2.897,4.828 2.897,5.794c-0,0.965 -0,1.931 0.965,1.931c0,0.966 0.966,2.897 0.966,3.863c0.966,1.931 0.966,5.793 1.931,6.759l0,3.862l-1.931,0.966l-0.966,0l-5.793,-5.794l-0.966,0l-0,0.966l1.931,2.897c0.966,2.897 2.897,3.862 4.828,4.828c2.897,0.966 3.863,0.966 4.829,7.725c0.965,3.863 1.931,8.691 3.862,9.656c4.828,7.725 9.656,13.519 11.588,14.485c0.965,-0 2.896,1.931 4.828,3.862c1.931,1.931 2.897,2.897 2.897,5.794l-0,2.897l-1.932,0.966c-0.965,-0 -1.931,-0 -2.897,-0.966Zm-56.972,-34.763c0,-0.965 0.966,-2.897 0.966,-3.862c0.966,-0.966 0.966,-4.828 0.966,-7.725l-0,-6.76l-1.932,0l0,4.828c-0.965,1.932 -0.965,4.829 -0.965,6.76c-0,0.965 -0.966,3.862 -1.932,4.828c0,1.931 -0.965,3.863 -0.965,5.794l-0,2.897l1.931,-1.932c0,-1.931 0.966,-3.862 1.931,-4.828Zm11.588,-20.278c1.931,-0.966 2.897,-1.931 3.862,-1.931l0.966,-0l0,-4.828l-0.966,-0c0,-0 -1.931,1.931 -4.828,3.862l-3.862,3.863l0.965,-0c0.966,0.965 1.932,0.965 3.863,-0.966Zm-8.691,-8.691l0,-14.484l-1.931,-0l-0,1.931c-0.966,1.931 -0.966,10.622 -0,11.588c-0,0.965 0.966,0.965 0.966,0.965l0.965,0Zm165.123,57.938c-0,-3.862 -0,-6.759 0.965,-7.725l0,-0.966l3.863,0l-0,2.897c-0,1.932 -0,2.897 -0.966,2.897c0,0.966 -0.965,1.931 -0.965,3.863c-0.966,1.931 -1.932,2.897 -2.897,3.862l-0.966,0.966l0.966,-5.794Zm-199.885,3.863l-0.966,-0.966l2.897,0l-0,1.931l-0.966,0c0,0 -0.965,0 -0.965,-0.965Zm0.965,-2.897c-3.862,-1.932 -7.725,-3.863 -8.69,-4.828c-2.897,-0.966 -6.76,-3.863 -6.76,-4.829l0,-0.965l2.897,0.965c0.966,0.966 5.794,3.863 10.622,6.76c4.828,1.931 8.691,4.828 10.622,4.828l1.931,1.931l-1.931,0c-0.966,0 -4.828,-1.931 -8.691,-3.862Zm95.597,2.897c0,-0.966 -0.965,-1.932 -0.965,-3.863c-0,-0.966 -0.966,-2.897 -1.931,-3.862c-2.897,-1.932 -2.897,-2.897 -2.897,-7.725l-0,-4.829l0.965,0c0.966,-0.965 4.828,-1.931 9.657,-2.896l7.725,-0.966l-0,-1.931l1.931,-0c1.931,-0 7.725,-0.966 13.519,-2.897c5.793,-0.966 14.484,-2.897 19.312,-3.863c3.863,-0.965 8.691,-2.897 9.657,-2.897c0.965,-0.965 16.576,-4.184 20.278,-4.828c0.709,-0.123 1.685,0.289 1.931,0.966c0.644,1.77 1.127,7.081 1.931,9.656c0.644,2.061 1.932,4.024 2.897,5.794c0.899,1.648 2.414,3.701 2.897,4.828c0.254,0.592 0,1.931 0,1.931l-4.828,0.966c-1.931,0.966 -6.759,1.931 -9.656,2.897c-2.897,-0 -6.76,1.931 -8.691,1.931c-1.931,0 -6.759,0.966 -14.484,2.897c-6.76,1.931 -30.901,6.759 -36.694,7.725c-3.863,0.966 -7.725,0.966 -8.691,1.931c-0.966,0 -2.897,0 -3.863,-0.965Zm110.082,-6.76c0.966,-3.862 0.966,-7.725 1.931,-7.725l0.966,-0.965l0.966,-0c0.965,0.965 -1.932,13.518 -2.897,14.484l-0.966,1.931l0,-7.725Zm11.588,3.863c-0.966,-1.932 -2.897,-23.175 -1.932,-28.003l0.966,-0.966l0.966,2.897c1.931,3.862 2.897,21.244 1.931,26.072l-0.966,2.897l-0.965,-2.897Zm15.45,-1.932c-0.966,-0.965 -0.966,-2.896 -0.966,-4.828l0,-1.931l-0.965,0.966l-1.932,-0l0,-0.966c-0.965,-0.966 -0.965,-4.828 -1.931,-7.725c-1.931,-6.759 -1.931,-7.725 -0,-13.519c0.966,-3.862 2.897,-6.759 2.897,-6.759c-0,-0 0.651,-1.295 0.966,-0.966c0.323,0.339 0.342,9.027 0.342,13.542c-0,4.667 -0.84,14.019 -0.342,14.461c0.51,0.454 0.643,-1.287 0.965,-1.931c0.322,-0.644 0.644,-1.931 0.966,-1.931c0.322,-0 0.738,1.248 0.965,1.931c0.483,1.449 0.966,4.828 1.932,6.76l-0,4.828l-0.966,-0l-0.966,0.965l-0.965,-2.897Zm-22.21,-3.862c0,-0.966 0.966,-2.897 0.966,-3.863l0.966,-1.931l-0,2.897c-0,1.931 -0,3.863 -0.966,4.828l-0.966,0l0,-1.931Zm-196.988,-1.931c-0.966,-0 -3.862,-1.932 -5.794,-2.897c-0.965,-0.966 -2.897,-1.931 -2.897,-1.931c-0.965,-0 -2.897,-0.966 -4.828,-1.932l-2.897,-2.897l-0.965,0.966l-5.794,-5.794l-0,-0.965c0.966,-0.966 2.897,-1.932 5.794,-2.897c1.931,-0.966 4.828,-1.931 6.759,-1.931c0.966,-0.966 3.863,-0.966 6.76,-1.932l4.828,0l-0,0.966c-0.966,-0 -3.863,1.931 -7.725,2.897c-2.897,0.965 -6.76,2.897 -7.725,2.897l-1.932,1.931l3.863,3.862c1.931,1.932 4.828,3.863 6.759,4.829c0.966,-0 2.897,0.965 3.863,1.931c5.794,2.897 17.381,0.965 48.281,-4.828l2.897,-0l-0.966,0.965c-0.965,0 -7.725,1.932 -15.45,2.897c-8.69,1.931 -16.415,3.863 -18.347,3.863c-2.896,0.965 -9.656,0.965 -14.484,-0Zm176.71,-2.897c0,-0.644 0.644,-1.61 0.966,-1.931c0.227,-0.228 0.821,-0.288 0.965,-0c0.161,0.321 0.156,1.306 0,1.931c-0.161,0.644 -0.643,1.931 -0.965,1.931c-0.322,0 -0.966,-1.287 -0.966,-1.931Zm72.422,-0c0,-0.966 1.932,-3.863 3.863,-5.794l3.862,-3.862l-0.129,1.966c-0,0.965 -2.768,5.759 -2.768,5.759c-1.931,1.931 -3.862,2.896 -3.862,2.896l-0.966,0l0,-0.965Zm-178.641,-0l-0,-31.866c-0,-26.072 1.448,-27.198 1.931,-32.831c0.039,-0.454 0.644,-0.966 0.966,-0.966c0.322,0 0.951,0.511 0.965,0.966c0.161,5.15 0.966,10.622 0,29.934c-0.965,16.416 -0.965,30.9 -0.965,31.866l-0,2.897l-2.897,-0Zm-93.666,-1.931c-0,-0.966 -0.966,-1.932 -0.966,-1.932l0,-0.965l1.932,0.965c0.965,0.966 1.931,1.932 1.931,1.932l-0,0.965l-0.966,0c0,0 -0.965,-0.965 -1.931,-0.965Zm29.934,-0.966c-0.965,-0.966 -0.965,-2.897 -0.965,-3.863l-0,-1.931l0.965,0c0.966,0 1.932,0 2.897,0.966c0,0.965 0.966,0.965 1.932,0.965c0.965,0 2.896,0.966 3.862,1.932l1.931,2.897l-1.931,-0c-4.828,1.931 -7.725,0.965 -8.691,-0.966Zm179.607,-0.966c0,-0.965 9.657,-5.793 11.588,-5.793l-0,0.965c-0,1.931 -7.725,6.76 -9.656,6.76l-1.932,-0l0,-1.932Zm76.285,-7.725c-0.966,-4.828 -0.966,-13.519 0,-18.347l0,-8.69l0.966,17.381c0.965,9.656 0.965,18.347 -0,18.347l-0.966,0.966l0,-9.657Zm8.691,7.725c-0,-0.965 0.965,-4.828 1.931,-6.759l0.966,-4.828l-0.966,5.794c-0,3.862 -0,6.759 -0.966,6.759l-0.965,0.966l-0,-1.932Zm-97.529,-3.862c-0.322,-1.127 -0.644,-2.736 -0.965,-3.863c-0.28,-0.978 -0.66,-1.926 -0.966,-2.897c-0.966,-3.057 -4.989,-12.714 -4.828,-15.45c0.115,-1.954 2.897,-0.965 5.794,-0.965l5.793,-0.966l0,12.553c0,11.588 -0.965,14.485 -2.897,14.485l-0.965,-0c-0,-0 -0.686,-1.918 -0.966,-2.897Zm-182.504,-0c0,-0.966 0,-1.931 0.966,-2.897l1.931,-0c0,0.966 0,0.966 -0.965,1.931l-0,1.931l-1.932,0l0,-0.965Zm73.388,-0c0.161,-0.322 0.644,-0.805 0.966,-0.966c0.288,-0.144 0.804,-0.161 0.965,0c0.161,0.161 0.144,0.678 0,0.966c-0.161,0.322 -0.643,0.804 -0.965,0.965c-0.288,0.144 -0.805,0.161 -0.966,0c-0.161,-0.161 -0.144,-0.677 0,-0.965Zm-78.216,-1.931l0,-2.897l3.863,-0l-0.966,1.931l0,0.966l-2.897,-0Zm200.851,-4.829c0.966,-2.896 0.966,-6.759 1.931,-8.69l0,-2.897l-1.931,-0l-0.966,1.931c0,0 0,1.931 -0.965,2.897l-0.966,0c-0.965,-0.966 -0.965,-4.828 -0.965,-7.725l0.965,-4.828l7.725,-2.897c4.828,-0.966 8.691,-1.931 8.691,-2.897l-0,-0.966l-0.966,0c0,0 -3.862,0.966 -6.759,1.932c-3.863,0.965 -6.76,1.931 -7.725,1.931l-1.931,-0l-0,-0.966c0.965,0 4.828,-1.931 8.69,-2.897c13.519,-2.896 17.381,-6.759 11.588,-12.553c-2.897,-1.931 -4.828,-2.897 -10.622,-3.862l-6.76,-0l2.897,-0.966c9.657,-2.897 25.107,8.691 19.313,14.485l-0.966,0.965l0.966,0.966c1.931,0.965 2.897,3.862 0.965,5.794c0,-0 -1.931,3.862 -2.896,7.725c-0,3.862 -0.966,7.725 -1.932,7.725l0,0.965l-3.862,-1.931c-0.966,0 -0.966,1.931 -0.966,3.863c0,2.896 0,2.896 -5.794,4.828c-2.896,1.931 -5.793,2.897 -5.793,2.897l-0.966,-0l0,-4.829Zm-109.116,2.897c1.931,-1.931 13.519,-4.828 18.347,-4.828l2.897,0l-0,-0.965c-0,-0 10.622,-2.897 24.141,-5.794c12.553,-3.863 24.14,-5.794 26.071,-6.76c1.932,-0.965 4.829,-0.965 6.76,-1.931l3.862,0l0,1.931l-2.896,0c-0.966,0 -4.829,0.966 -7.726,1.932c-2.896,0.965 -7.725,1.931 -10.621,2.896c-3.863,0.966 -6.76,1.932 -6.76,1.932c-1.931,0.965 -21.244,5.794 -28.003,5.794l-4.828,0.965l-0,1.931l-2.897,0c-3.863,0 -11.588,1.932 -12.553,2.897c-0.966,0.966 -2.897,0.966 -3.863,0.966l-2.897,-0l0.966,-0.966Zm87.156,-4.896c-1.127,-3.058 -2.608,-10.414 -3.146,-13.451c-0.278,-1.565 -0.283,-3.791 -0.084,-4.768c0.111,-0.55 1.084,-1.624 1.275,-1.097c1.152,3.172 3.899,13.766 5.633,20.127c0.307,1.128 0.548,4.221 -0.065,4.085c-0.613,-0.135 -2.912,-2.993 -3.613,-4.896Zm-167.303,1.999l-0,-0.965l0.965,-0.966l2.897,0l0,1.931c-0.965,0.966 -2.897,0.966 -3.862,0Zm256.857,0c-0.966,-1.931 -2.897,-9.656 -2.897,-12.553l0.966,-1.931l1.931,3.862c0.966,2.897 1.931,6.76 1.931,8.691l0,2.897l-1.931,-0.966Zm-278.101,-3.862l-0,-1.931l4.828,-0l0,0.965c-0.966,0.966 -1.931,0.966 -2.897,0.966l-1.931,-0Zm279.067,-8.691c-1.932,-3.862 -2.897,-9.656 -3.863,-11.587l0,-4.828l0.966,-0l1.931,3.862c1.931,5.794 3.863,14.484 3.863,17.381l-0,2.897l-2.897,-7.725Zm-191.195,2.897c0.161,-0.644 1.288,-1.448 0.966,-1.931c-0.322,-0.483 -2.092,-0.644 -2.897,-0.966c-0.668,-0.267 -2.253,-0.644 -1.931,-0.965c0.322,-0.322 2.736,-0.966 3.862,-0.966c1.018,-0 2.414,0.322 2.897,0.966c0.483,0.643 0,1.931 0,2.896c0,0.966 0.161,2.415 0,2.897c-0.102,0.306 -0.644,0 -0.966,0c-0.482,0 -1.609,0.322 -1.931,0c-0.322,-0.322 -0.156,-1.306 0,-1.931Zm20.278,-2.897l0,-1.931l1.932,-0c-0,-0.966 1.931,-0.966 3.862,-0.966c0.966,0 4.828,-0.965 6.76,-0.965c1.931,-0.966 5.793,-1.932 6.759,-1.932l2.897,0l-0,3.863l-0.966,-0c-0.965,-0 -1.931,-0 -2.897,-0.966c0,-0.965 -2.897,0 -6.759,0.966c-3.863,0.966 -7.725,1.931 -9.656,1.931l-1.932,0Zm-3.862,-3.862c0.965,-0.966 7.725,-1.932 14.484,-3.863c5.794,-0.965 12.553,-1.931 12.553,-2.897c0.966,0 8.691,-1.931 18.347,-3.862c8.691,-1.931 21.244,-3.863 27.038,-5.794c5.794,-0.966 11.588,-1.931 12.553,-1.931l0.966,-0l-0,0.965c-0.966,0 -7.725,1.932 -16.416,3.863c-7.725,0.966 -15.45,2.897 -15.45,2.897l0,1.931c0.966,0 2.897,0 4.828,-0.966c6.76,-1.931 22.21,-4.828 23.175,-4.828l0.966,0l-0,0.966c-0.966,-0 -2.897,0.966 -4.828,0.966c-9.657,1.931 -10.622,1.931 -10.622,3.862l-0.966,1.931l-4.828,0c-3.862,-0.965 -8.691,0 -14.484,1.932c-5.794,0.965 -12.554,1.931 -14.485,1.931l-3.862,0.965l1.931,-0.965c1.931,-0.966 8.691,-2.897 14.484,-3.863c1.932,0 3.863,-0.965 4.829,-0.965l0.965,-0.966l-3.862,0c-2.897,0.966 -5.794,0.966 -6.76,0.966c-0.965,0.965 -4.828,0.965 -8.69,1.931c-3.863,0.966 -11.588,2.897 -17.382,3.862c-6.759,1.932 -13.519,2.897 -14.484,2.897l-2.897,0l2.897,-0.965Zm85.941,-0.966l-0,-2.897l2.897,0c0.965,-0.965 3.862,-0.965 5.793,-0.965l3.863,-0.966l-0,1.931l-4.828,0.966c-1.931,0.965 -4.828,0.965 -5.794,1.931l-1.931,0Zm-104.288,-1.931c0.644,-0.483 2.253,-1.77 2.897,-1.931c0.441,-0.111 0.804,0.643 0.965,0.965c0.144,0.288 0,0.644 0,0.966c0,0.322 0.306,0.864 0,0.965c-0.482,0.161 -2.092,0 -2.896,0c-0.644,0 -1.771,0.161 -1.932,0c-0.161,-0.16 0.602,-0.692 0.966,-0.965Zm27.038,-2.897c0.965,-0 2.896,-0.966 4.828,-0.966l3.862,-0.965l0,1.931l-3.862,-0c-1.932,0.966 -3.863,0.966 -4.828,0.966l-0.966,-0l0.966,-0.966Zm-10.622,-0l-0,-0.966l8.69,-1.931c12.553,-2.897 39.591,-8.691 53.11,-10.622c5.794,-0.965 14.484,-2.897 19.312,-3.862c4.829,-0.966 11.588,-1.932 14.485,-1.932l5.794,-0.965l-0,1.931l-3.863,-0c-1.931,0.966 -5.794,0.966 -7.725,1.931c-2.897,0 -8.691,0.966 -13.519,1.932c-12.553,1.931 -40.556,6.759 -61.8,11.587c-6.759,1.931 -12.553,2.897 -13.519,2.897l-0.965,-0Zm-21.244,-3.863c-0.644,-1.609 -1.931,-4.828 -2.897,-6.759c-0.966,-3.862 -0.966,-3.862 4.828,-9.656c2.897,-2.897 5.472,-4.024 6.759,-4.828c0.273,-0.171 0.939,-0.321 0.966,-0c0.161,1.931 0,11.587 0,11.587c0,0 0.483,8.691 0,10.622c-0.247,0.988 -1.918,0.686 -2.897,0.966c-1.126,0.322 -2.897,0.804 -3.862,0.965c-0.635,0.106 -1.476,0.456 -1.932,0c-0.482,-0.482 -0.587,-1.952 -0.965,-2.897Zm109.116,-2.896c-0.966,-0 -0.966,-0.966 -0.966,-1.932l0,-0.965l3.863,-0c1.931,-0.966 4.828,-0.966 6.759,-1.932l3.863,0l-0,2.897l-2.897,0c-0.966,0 -2.897,0 -3.863,0.966c-0.965,0.966 -5.794,1.931 -6.759,0.966Zm18.347,-3.863l0.965,-0.966l5.794,-0.965c3.863,-0 6.76,-0 7.725,0.965l1.931,1.932l-16.415,-0l-0,-0.966Zm-0,-2.897l-0,-3.862l0.965,-0c0.966,-0 1.932,-0 2.897,0.965c0,0.966 2.897,0.966 5.794,0.966l4.828,-0c0,0.966 -3.862,0.966 -7.725,0.966l-6.759,0.965Zm-138.085,-7.725l-0.966,-1.931l0.966,-0.966c-0,0 2.897,-0.965 4.828,-2.897c4.828,-1.931 8.691,-3.862 13.519,-7.725c4.828,-3.862 11.103,-2.517 11.587,1.932c0.078,0.715 -0.322,1.609 -0.965,1.931c-0.644,0.322 -2.897,-0 -2.897,-0c-0.966,-0 -2.575,1.448 -3.863,1.931c-1.242,0.466 -2.697,0.33 -3.862,0.966c-1.771,0.965 -3.863,1.931 -6.76,4.828c-5.793,3.862 -8.69,4.828 -11.587,1.931Zm211.473,0c-0.322,-1.126 -0.805,-4.023 -0.966,-5.794c-0.146,-1.602 -0.291,-4.058 -0,-4.828c0.207,-0.548 1.493,-0.317 1.745,0.212c0.537,1.128 1.288,4.661 1.48,6.557c0.162,1.602 0.051,4.619 -0.328,4.819c-0.285,0.15 -0.678,0.144 -0.966,-0c-0.322,-0.161 -0.84,-0.528 -0.965,-0.966Zm-30.942,-7.835c0.886,-7.634 1.957,-14.584 3.831,-16.852c0.588,-0.712 2.507,-0.829 2.79,0.057c0.482,1.508 0.634,6.039 0.102,8.987c-0.588,3.255 -2.731,8.625 -3.626,10.544c-0.282,0.604 -1.296,1.041 -1.746,0.973c-1.095,-0.165 -1.522,-2.235 -1.351,-3.709Zm-188.256,-6.649c-0.966,-0.966 1.931,-6.76 3.862,-8.691l1.932,-1.931l0.965,-0c0,0.965 -1.931,7.725 -3.862,9.656c-0.966,1.931 -2.897,1.931 -2.897,0.966Zm147.817,-9.77c-0.719,-4.75 0.89,-9.543 3.787,-17.268c-0,0 2.307,-5.467 2.951,-6.755c0.199,-0.397 0.598,-0.808 0.911,-0.97c0.286,-0.148 0.815,-0.284 0.966,0c0.502,0.948 0.185,5.034 0.185,5.034c-0,6.759 -2.962,16.88 -5.818,19.88c-0.628,0.659 -1.537,1.109 -2.016,1.044c-0.451,-0.06 -0.898,-0.515 -0.966,-0.965Zm-170.992,-23.062l-2.897,-2.897l0.965,-0.965l0,-0.966l2.897,2.897c0.966,0.966 1.932,2.897 1.932,3.863l-0,0.965c-0.966,0 -1.932,-0.965 -2.897,-2.897Zm2.897,-1.931c-0.966,0 -0.966,-0.966 -0.966,-1.931l-0,-0.966l1.931,0l1.932,0.966l-0,1.931l-1.932,0.966c0,-0 -0.965,-0 -0.965,-0.966Zm109.116,-54.075c-0.331,-1.139 -1.981,-3.935 -1.981,-3.935c-0,-0 3.947,1 7.774,1.038c5.146,0.051 8.691,0.966 8.691,2.897l0,0.965l-2.897,0c0,0 -1.59,0.027 -1.061,-0.813c0.124,-0.196 1.007,0.034 1.235,-0.139c0.228,-0.172 0.457,-0.608 0.134,-0.896c-0.277,-0.247 -1.989,-0.397 -2.162,-0.019c-0.227,0.492 0.086,0.673 0.073,0.984c-0.012,0.299 -0.15,0.883 -0.15,0.883c-0,0 -1.666,0.308 -1.698,-0.11c-0.086,-1.1 -0.632,-0.836 -0.632,-0.836c-0,0 -1.139,0.493 -1.533,0.946c-0.416,0.48 -0.965,1.932 -0.965,1.932l-4.828,-0c-0,-0 0.269,-1.97 -0,-2.897Z" style="fill-rule:nonzero;"/><path id="text" d="M193.707,438.054c-0.259,-0.027 -0.507,-0.016 -0.746,0.032c-0.458,0.092 -0.931,0.33 -1.419,0.715c-0.151,0.127 -1.032,0.994 -2.643,2.6l-18.477,19.031l-0.794,-0.342l0.843,-20.733l-15.206,14.53l-0.753,-0.325l0.652,-26.439c0.056,-2.664 0.003,-4.312 -0.158,-4.945c-0.161,-0.632 -0.658,-1.177 -1.491,-1.633l0.325,-0.753l11.962,5.166l-0.325,0.753c-0.974,-0.389 -1.678,-0.52 -2.111,-0.393c-0.433,0.127 -0.735,0.387 -0.904,0.78c-0.223,0.515 -0.362,1.751 -0.418,3.706l-0.369,15.724l8.849,-8.586l0.126,-3.422c0.067,-1.87 0.047,-3.146 -0.061,-3.828c-0.108,-0.682 -0.332,-1.234 -0.673,-1.654c-0.342,-0.421 -0.939,-0.816 -1.794,-1.185l0.325,-0.753l13.367,5.772l-0.326,0.753c-0.941,-0.391 -1.645,-0.606 -2.11,-0.646c-0.326,-0.028 -0.619,0.034 -0.878,0.188c-0.26,0.153 -0.451,0.373 -0.574,0.657c-0.134,0.312 -0.242,1.4 -0.323,3.264l-0.615,15.231l9.6,-9.878c1.002,-1.016 1.654,-1.724 1.956,-2.125c0.302,-0.401 0.535,-0.791 0.699,-1.171c0.24,-0.556 0.239,-1.075 -0.003,-1.558c-0.243,-0.482 -0.894,-0.969 -1.953,-1.459l0.325,-0.752l6.657,2.874c0.238,-0.248 0.519,-0.462 0.843,-0.641c0.826,-0.459 1.694,-0.555 2.601,-0.289c0.922,0.27 1.607,0.821 2.056,1.653c0.449,0.832 0.541,1.701 0.275,2.609c-0.266,0.907 -0.815,1.585 -1.647,2.034c-0.832,0.45 -1.701,0.541 -2.609,0.275c-0.907,-0.265 -1.586,-0.811 -2.038,-1.636c-0.451,-0.824 -0.543,-1.691 -0.278,-2.598c0.063,-0.214 0.141,-0.415 0.235,-0.603Zm150.708,-10.91c-0.675,0.552 -1.189,1.317 -1.541,2.293c-0.315,0.912 -0.554,2.864 -0.719,5.855l-1.427,25.142l-0.683,0.263l-18.186,-18.605c-2.191,-2.244 -3.574,-3.525 -4.147,-3.843c-0.573,-0.318 -1.428,-0.33 -2.565,-0.035l-0.295,-0.766l13.447,-5.165l0.294,0.765l-0.455,0.175c-1.214,0.466 -1.983,0.936 -2.308,1.409c-0.238,0.328 -0.28,0.693 -0.126,1.093c0.095,0.248 0.263,0.52 0.503,0.815c0.24,0.296 0.961,1.06 2.162,2.291l11.343,11.667l0.768,-14.562c0.084,-1.758 0.104,-2.921 0.06,-3.489c-0.044,-0.569 -0.135,-1.033 -0.273,-1.391c-0.159,-0.414 -0.41,-0.737 -0.752,-0.969c-0.343,-0.233 -0.76,-0.35 -1.251,-0.351c-0.683,-0.006 -1.514,0.178 -2.493,0.554l-0.294,-0.765l8.996,-3.456c0.029,-0.13 0.064,-0.259 0.108,-0.39c0.298,-0.897 0.871,-1.555 1.718,-1.974c0.861,-0.425 1.739,-0.484 2.633,-0.176c0.893,0.308 1.55,0.886 1.969,1.733c0.419,0.848 0.474,1.719 0.166,2.613c-0.308,0.893 -0.886,1.55 -1.734,1.969c-0.847,0.419 -1.716,0.477 -2.607,0.176c-0.89,-0.301 -1.545,-0.876 -1.964,-1.724c-0.188,-0.379 -0.303,-0.763 -0.347,-1.152Zm-254.625,-49.345l-3.999,16.455c-0.56,2.319 -0.772,4.109 -0.638,5.369c0.105,0.908 0.424,1.707 0.957,2.397l-0.649,0.501l-9.571,-12.376l0.649,-0.501c0.675,0.729 1.189,1.139 1.54,1.231c0.352,0.093 0.656,0.039 0.913,-0.159c0.491,-0.38 0.999,-1.632 1.523,-3.755l2.638,-10.753l-1.414,-0.307l-6.486,5.016c-1.239,0.958 -1.956,1.625 -2.152,2c-0.195,0.375 -0.247,0.845 -0.156,1.41c0.091,0.564 0.475,1.285 1.153,2.161l-0.648,0.502l-9.273,-11.99l0.648,-0.502l0.61,0.789c0.534,0.689 1.086,1.15 1.656,1.381c0.399,0.177 0.86,0.194 1.384,0.05c0.38,-0.088 1.166,-0.593 2.358,-1.515l15.636,-12.093c1.216,-0.94 1.926,-1.592 2.13,-1.956c0.204,-0.363 0.269,-0.829 0.194,-1.397c-0.075,-0.567 -0.37,-1.184 -0.885,-1.85l-0.61,-0.789l0.649,-0.502l9.151,11.833l-0.649,0.501c-0.623,-0.806 -1.215,-1.329 -1.774,-1.569c-0.398,-0.177 -0.858,-0.205 -1.38,-0.082c-0.4,0.086 -1.202,0.594 -2.406,1.525l-7.398,5.721l13.954,3.3c1.943,0.459 3.212,0.458 3.808,-0.003c0.444,-0.344 0.6,-0.866 0.469,-1.567c-0.071,-0.357 -0.481,-1.057 -1.233,-2.101l0.649,-0.501l7.172,9.273l-0.649,0.501c-0.7,-0.784 -1.353,-1.32 -1.959,-1.608c-0.605,-0.288 -2.257,-0.752 -4.956,-1.392l-10.956,-2.648Zm22.515,7.335c0.667,0.691 0.99,1.508 0.969,2.454c-0.021,0.945 -0.371,1.746 -1.051,2.403c-0.68,0.657 -1.492,0.975 -2.437,0.954c-0.945,-0.021 -1.747,-0.371 -2.404,-1.051c-0.657,-0.68 -0.978,-1.49 -0.962,-2.43c0.016,-0.94 0.363,-1.738 1.043,-2.396c0.68,-0.657 1.492,-0.98 2.438,-0.969c0.945,0.01 1.746,0.356 2.404,1.035Zm-5.06,9.209l-11.805,11.414c-1.052,1.017 -1.605,1.788 -1.661,2.315c-0.056,0.527 0.239,1.166 0.884,1.919l-0.573,0.555l-7.779,-8.046l0.573,-0.554c0.658,0.638 1.322,0.942 1.991,0.911c0.449,-0.024 1.2,-0.544 2.251,-1.561l8.699,-8.41c1.051,-1.017 1.605,-1.789 1.661,-2.315c0.056,-0.527 -0.234,-1.161 -0.869,-1.903l0.589,-0.57l6.039,6.245Zm8.168,7.721l-1.76,2.024c1.559,-0.172 2.879,-0.136 3.959,0.108c1.08,0.244 2.043,0.734 2.891,1.471c1.014,0.882 1.611,1.895 1.791,3.04c0.179,1.144 0.017,2.232 -0.487,3.262c-0.374,0.791 -1.346,2.089 -2.916,3.895l-5.292,6.088c-1.047,1.204 -1.59,2.048 -1.63,2.533c-0.039,0.484 0.253,1.066 0.876,1.745l-0.523,0.602l-7.911,-6.877l0.524,-0.602c0.658,0.436 1.295,0.559 1.91,0.369c0.421,-0.123 1.111,-0.737 2.071,-1.841l6.048,-6.957c1.115,-1.283 1.767,-2.134 1.957,-2.556c0.191,-0.422 0.246,-0.829 0.166,-1.221c-0.079,-0.393 -0.264,-0.715 -0.554,-0.967c-0.959,-0.833 -2.447,-0.923 -4.464,-0.269l-7.284,8.379c-1.018,1.171 -1.554,2.007 -1.608,2.508c-0.054,0.501 0.181,1.048 0.704,1.639l-0.523,0.602l-7.911,-6.876l0.523,-0.602c0.716,0.505 1.369,0.7 1.958,0.585c0.402,-0.08 1.127,-0.723 2.174,-1.927l7.676,-8.83c1.028,-1.182 1.559,-2.013 1.593,-2.491c0.035,-0.479 -0.255,-1.064 -0.868,-1.754l0.538,-0.619l6.372,5.539Zm21.812,17.24l5.737,3.976l-1.388,2.004l-3.261,-2.26c0.183,1.007 0.221,1.834 0.116,2.479c-0.163,0.858 -0.493,1.645 -0.99,2.362c-0.841,1.214 -1.908,2.034 -3.201,2.459c-1.292,0.425 -2.693,0.488 -4.202,0.189c-1.508,-0.3 -2.712,-0.761 -3.611,-1.384c-0.073,-0.051 -0.78,-0.586 -2.122,-1.606c-0.547,-0.379 -1.129,-0.517 -1.748,-0.416c-0.618,0.102 -1.1,0.402 -1.445,0.899c-0.303,0.438 -0.384,0.911 -0.244,1.422c0.14,0.511 0.587,1.027 1.34,1.549l3.176,2.147c2.55,1.767 4.111,3.263 4.683,4.486c0.834,1.728 0.691,3.4 -0.428,5.015c-0.716,1.032 -1.682,1.751 -2.898,2.157c-1.216,0.407 -2.479,0.452 -3.789,0.138c-1.979,-0.491 -3.988,-1.443 -6.028,-2.857c-1.53,-1.06 -2.823,-2.177 -3.88,-3.349c-1.057,-1.173 -1.675,-2.213 -1.855,-3.12c-0.181,-0.907 -0.069,-1.651 0.335,-2.234c0.387,-0.559 0.944,-0.915 1.67,-1.067c0.726,-0.153 1.765,0.014 3.117,0.501c-1.04,-1.871 -1.081,-3.498 -0.121,-4.883c0.58,-0.837 1.466,-1.428 2.656,-1.771c1.191,-0.343 2.686,-0.323 4.487,0.062c-1.215,-1.722 -1.85,-3.322 -1.905,-4.798c-0.056,-1.476 0.358,-2.852 1.242,-4.127c1.153,-1.664 2.832,-2.634 5.038,-2.912c2.206,-0.278 4.377,0.324 6.514,1.805c1.129,0.782 2.131,1.827 3.005,3.134Zm-3.441,-1.765c-0.705,-0.488 -1.546,-0.545 -2.524,-0.172c-0.978,0.374 -2.241,1.678 -3.789,3.912c-1.254,1.81 -1.875,3.217 -1.862,4.224c0.012,1.006 0.346,1.736 1.002,2.191c0.729,0.505 1.567,0.592 2.516,0.26c0.948,-0.331 2.092,-1.462 3.43,-3.393c1.506,-2.173 2.259,-3.844 2.26,-5.012c0.015,-0.852 -0.329,-1.522 -1.033,-2.01Zm-14.19,18.179c-1.239,-0.858 -2.13,-1.323 -2.674,-1.394c-0.953,-0.103 -1.652,0.167 -2.098,0.81c-0.429,0.62 -0.46,1.429 -0.093,2.43c0.367,1 1.54,2.186 3.519,3.558c1.688,1.17 3.17,1.865 4.447,2.084c1.277,0.22 2.197,-0.077 2.761,-0.89c0.21,-0.304 0.296,-0.622 0.257,-0.955c-0.076,-0.591 -0.398,-1.183 -0.967,-1.775c-0.569,-0.593 -2.287,-1.882 -5.152,-3.868Zm78.275,11.108l-4.616,15.759c-0.411,1.403 -0.511,2.348 -0.299,2.833c0.212,0.486 0.785,0.896 1.718,1.231l-0.224,0.765l-10.74,-3.145l0.224,-0.766c0.888,0.229 1.614,0.165 2.181,-0.192c0.379,-0.243 0.774,-1.067 1.185,-2.47l3.401,-11.612c0.411,-1.404 0.511,-2.348 0.299,-2.834c-0.212,-0.485 -0.777,-0.893 -1.696,-1.224l0.23,-0.787l8.337,2.442Zm13.34,-6.301l-5.887,25.068c-0.335,1.424 -0.383,2.372 -0.145,2.846c0.238,0.473 0.832,0.851 1.782,1.135l-0.182,0.777l-10.895,-2.559l0.182,-0.776c0.899,0.18 1.621,0.077 2.168,-0.311c0.365,-0.263 0.715,-1.107 1.049,-2.531l4.904,-20.883c0.331,-1.409 0.378,-2.351 0.14,-2.824c-0.238,-0.473 -0.825,-0.85 -1.76,-1.13l0.187,-0.798l8.457,1.986Zm10.808,2.064l-4.534,25.348c-0.257,1.44 -0.255,2.389 0.008,2.849c0.263,0.46 0.877,0.806 1.841,1.038l-0.141,0.786l-11.016,-1.971l0.14,-0.785c0.907,0.132 1.623,-0.01 2.148,-0.426c0.35,-0.283 0.655,-1.144 0.912,-2.584l3.777,-21.116c0.255,-1.425 0.251,-2.367 -0.012,-2.827c-0.263,-0.46 -0.869,-0.805 -1.819,-1.035l0.145,-0.807l8.551,1.53Zm7.881,0.395c0.953,0.118 1.718,0.552 2.295,1.301c0.576,0.75 0.806,1.593 0.689,2.532c-0.116,0.938 -0.549,1.695 -1.299,2.272c-0.749,0.577 -1.593,0.806 -2.531,0.69c-0.938,-0.117 -1.696,-0.547 -2.274,-1.289c-0.577,-0.741 -0.807,-1.581 -0.691,-2.52c0.117,-0.938 0.547,-1.7 1.29,-2.284c0.743,-0.585 1.583,-0.819 2.521,-0.702Zm1.838,10.345l-2.029,16.295c-0.181,1.451 -0.128,2.399 0.159,2.844c0.287,0.446 0.918,0.759 1.893,0.94l-0.099,0.791l-11.105,-1.383l0.099,-0.792c0.912,0.084 1.62,-0.096 2.122,-0.539c0.335,-0.301 0.593,-1.177 0.774,-2.628l1.495,-12.007c0.181,-1.451 0.128,-2.4 -0.159,-2.845c-0.287,-0.445 -0.911,-0.757 -1.871,-0.936l0.101,-0.814l8.62,1.074Zm13.465,18.723c-2.631,2.106 -4.951,3.11 -6.958,3.012c-1.18,-0.057 -2.142,-0.492 -2.887,-1.305c-0.744,-0.812 -1.088,-1.801 -1.032,-2.967c0.077,-1.579 0.825,-2.966 2.243,-4.162c1.419,-1.196 4.459,-2.731 9.121,-4.605l0.101,-2.08c0.076,-1.565 0.039,-2.554 -0.111,-2.968c-0.15,-0.414 -0.454,-0.783 -0.912,-1.109c-0.457,-0.325 -0.981,-0.502 -1.571,-0.531c-0.959,-0.047 -1.759,0.129 -2.4,0.527c-0.396,0.247 -0.603,0.547 -0.62,0.902c-0.015,0.309 0.173,0.703 0.563,1.181c0.53,0.661 0.781,1.287 0.752,1.878c-0.035,0.723 -0.334,1.326 -0.897,1.809c-0.564,0.483 -1.281,0.703 -2.151,0.661c-0.93,-0.045 -1.695,-0.364 -2.294,-0.955c-0.6,-0.591 -0.882,-1.263 -0.846,-2.015c0.052,-1.063 0.522,-2.057 1.41,-2.983c0.888,-0.925 2.097,-1.61 3.627,-2.053c1.53,-0.444 3.107,-0.626 4.73,-0.547c1.963,0.095 3.496,0.587 4.599,1.477c1.103,0.889 1.801,1.829 2.093,2.819c0.176,0.63 0.21,2.059 0.102,4.287l-0.39,8.035c-0.046,0.944 -0.038,1.54 0.024,1.787c0.062,0.247 0.164,0.433 0.306,0.558c0.142,0.126 0.309,0.193 0.501,0.202c0.383,0.019 0.788,-0.235 1.212,-0.762l0.639,0.564c-0.791,1.056 -1.593,1.812 -2.407,2.268c-0.813,0.456 -1.722,0.659 -2.725,0.611c-1.181,-0.058 -2.089,-0.379 -2.727,-0.965c-0.637,-0.585 -1.002,-1.442 -1.095,-2.571Zm0.078,-1.616l0.337,-6.928c-1.837,0.961 -3.219,2.018 -4.148,3.171c-0.614,0.769 -0.941,1.559 -0.98,2.371c-0.033,0.679 0.181,1.288 0.643,1.828c0.35,0.417 0.857,0.641 1.521,0.673c0.737,0.036 1.613,-0.336 2.627,-1.115Zm18.118,-15.756l0.205,2.718c1.041,-1.323 2.026,-2.267 2.953,-2.833c0.928,-0.566 1.967,-0.893 3.116,-0.979c1.326,-0.1 2.461,0.126 3.406,0.677c0.946,0.551 1.709,1.441 2.291,2.672c1.078,-1.415 2.137,-2.458 3.175,-3.128c1.039,-0.671 2.147,-1.051 3.326,-1.14c1.429,-0.107 2.591,0.135 3.488,0.727c0.896,0.592 1.548,1.379 1.956,2.364c0.407,0.984 0.694,2.581 0.86,4.791l0.638,8.463c0.119,1.591 0.337,2.567 0.653,2.929c0.317,0.361 0.936,0.566 1.858,0.616l0.06,0.795l-10.673,0.804l-0.06,-0.796c0.834,-0.137 1.428,-0.507 1.783,-1.112c0.235,-0.418 0.299,-1.341 0.191,-2.77l-0.669,-8.883c-0.138,-1.842 -0.3,-3.008 -0.485,-3.497c-0.185,-0.49 -0.445,-0.845 -0.78,-1.064c-0.335,-0.219 -0.716,-0.313 -1.144,-0.28c-0.633,0.047 -1.256,0.328 -1.87,0.84c-0.613,0.513 -1.216,1.259 -1.809,2.237l0.835,11.093c0.112,1.488 0.308,2.414 0.587,2.778c0.38,0.52 1.051,0.773 2.013,0.76l0.06,0.795l-10.696,0.805l-0.06,-0.795c0.573,-0.073 1.015,-0.251 1.327,-0.533c0.312,-0.283 0.51,-0.609 0.593,-0.978c0.083,-0.37 0.08,-1.158 -0.011,-2.366l-0.669,-8.884c-0.141,-1.871 -0.303,-3.036 -0.486,-3.497c-0.183,-0.46 -0.457,-0.81 -0.823,-1.049c-0.366,-0.239 -0.748,-0.343 -1.146,-0.314c-0.589,0.045 -1.115,0.24 -1.578,0.586c-0.658,0.509 -1.336,1.345 -2.034,2.509l0.835,11.093c0.11,1.458 0.326,2.409 0.648,2.851c0.323,0.443 0.944,0.674 1.864,0.693l0.06,0.796l-10.651,0.802l-0.06,-0.796c0.862,-0.154 1.46,-0.48 1.793,-0.979c0.226,-0.343 0.279,-1.31 0.159,-2.901l-0.878,-11.668c-0.118,-1.562 -0.335,-2.523 -0.651,-2.884c-0.316,-0.362 -0.935,-0.567 -1.857,-0.616l-0.062,-0.818l8.419,-0.634Zm90.132,-23.35l7.275,14.721c0.648,1.311 1.214,2.074 1.699,2.287c0.485,0.214 1.184,0.128 2.097,-0.257l0.354,0.715l-10.033,4.958l-0.353,-0.715c0.808,-0.432 1.299,-0.972 1.474,-1.619c0.114,-0.435 -0.153,-1.309 -0.801,-2.62l-5.36,-10.847c-0.648,-1.311 -1.215,-2.073 -1.699,-2.287c-0.485,-0.214 -1.178,-0.131 -2.078,0.248l-0.363,-0.735l7.788,-3.849Zm10.173,-5.61l2.385,4.048c0.096,-2.543 0.412,-4.379 0.947,-5.509c0.535,-1.129 1.216,-1.938 2.044,-2.425c0.713,-0.42 1.412,-0.536 2.097,-0.348c0.685,0.188 1.263,0.683 1.736,1.485c0.502,0.853 0.685,1.637 0.549,2.351c-0.136,0.715 -0.497,1.245 -1.083,1.59c-0.675,0.397 -1.388,0.526 -2.139,0.385c-0.751,-0.14 -1.187,-0.21 -1.306,-0.208c-0.172,-0.001 -0.341,0.047 -0.506,0.144c-0.37,0.217 -0.637,0.564 -0.803,1.039c-0.267,0.74 -0.298,1.59 -0.093,2.549c0.32,1.475 0.918,2.957 1.795,4.446l2.418,4.106l0.649,1.058c0.428,0.725 0.746,1.164 0.955,1.315c0.355,0.254 0.729,0.372 1.122,0.355c0.393,-0.017 0.957,-0.217 1.692,-0.598l0.405,0.687l-9.643,5.679l-0.405,-0.687c0.739,-0.521 1.139,-1.043 1.199,-1.567c0.06,-0.524 -0.367,-1.563 -1.282,-3.116l-5.814,-9.872c-0.6,-1.018 -1.033,-1.638 -1.3,-1.858c-0.337,-0.281 -0.676,-0.433 -1.015,-0.456c-0.339,-0.023 -0.833,0.113 -1.482,0.409l-0.416,-0.706l7.294,-4.296Zm19.133,-12.378l5.653,-4.095l1.43,1.974l-3.212,2.328c1.011,0.161 1.803,0.399 2.377,0.713c0.755,0.438 1.389,1.01 1.9,1.716c0.867,1.196 1.287,2.475 1.26,3.835c-0.027,1.36 -0.432,2.703 -1.215,4.027c-0.783,1.324 -1.617,2.307 -2.503,2.948c-0.071,0.052 -0.811,0.542 -2.218,1.47c-0.539,0.39 -0.862,0.894 -0.972,1.511c-0.109,0.618 0.014,1.172 0.369,1.662c0.312,0.431 0.733,0.665 1.261,0.701c0.528,0.037 1.163,-0.213 1.905,-0.75l3.079,-2.285c2.512,-1.82 4.441,-2.797 5.784,-2.932c1.907,-0.213 3.437,0.475 4.59,2.067c0.736,1.017 1.095,2.166 1.075,3.448c-0.02,1.283 -0.395,2.489 -1.126,3.621c-1.119,1.704 -2.683,3.284 -4.693,4.74c-1.508,1.092 -2.99,1.943 -4.447,2.551c-1.456,0.608 -2.642,0.847 -3.558,0.716c-0.915,-0.13 -1.581,-0.482 -1.997,-1.057c-0.398,-0.55 -0.549,-1.193 -0.453,-1.929c0.096,-0.735 0.599,-1.66 1.507,-2.774c-2.111,0.361 -3.66,-0.14 -4.648,-1.504c-0.598,-0.826 -0.861,-1.857 -0.79,-3.094c0.07,-1.237 0.586,-2.641 1.545,-4.212c-2.027,0.575 -3.747,0.644 -5.158,0.207c-1.411,-0.437 -2.572,-1.284 -3.482,-2.54c-1.187,-1.639 -1.547,-3.545 -1.078,-5.719c0.469,-2.173 1.757,-4.022 3.862,-5.547c1.113,-0.806 2.431,-1.405 3.953,-1.797Zm9.643,22.076c-1.22,0.884 -1.954,1.57 -2.202,2.06c-0.413,0.865 -0.39,1.614 0.069,2.248c0.442,0.611 1.196,0.908 2.262,0.893c1.065,-0.014 2.573,-0.728 4.523,-2.141c1.663,-1.205 2.81,-2.373 3.441,-3.505c0.63,-1.131 0.655,-2.098 0.074,-2.9c-0.216,-0.299 -0.488,-0.485 -0.815,-0.558c-0.583,-0.125 -1.248,-0.017 -1.996,0.323c-0.747,0.341 -2.532,1.534 -5.356,3.58Zm-12.449,-19.414c-0.694,0.503 -1.026,1.278 -0.998,2.324c0.029,1.047 0.84,2.671 2.435,4.872c1.291,1.783 2.414,2.835 3.367,3.157c0.954,0.321 1.754,0.248 2.4,-0.22c0.718,-0.52 1.078,-1.282 1.08,-2.287c0.001,-1.005 -0.687,-2.458 -2.065,-4.36c-1.551,-2.142 -2.878,-3.407 -3.979,-3.794c-0.799,-0.297 -1.546,-0.194 -2.24,0.308Zm6.116,-18.483c0.731,-0.622 1.567,-0.893 2.509,-0.813c0.942,0.081 1.72,0.481 2.333,1.201c0.613,0.719 0.88,1.55 0.799,2.492c-0.08,0.942 -0.481,1.72 -1.2,2.333c-0.72,0.613 -1.549,0.882 -2.486,0.807c-0.937,-0.075 -1.712,-0.472 -2.325,-1.192c-0.613,-0.72 -0.885,-1.551 -0.815,-2.494c0.07,-0.942 0.465,-1.72 1.185,-2.334Zm8.872,5.63l10.649,12.5c0.948,1.113 1.684,1.714 2.206,1.803c0.522,0.089 1.179,-0.165 1.971,-0.762l0.517,0.607l-8.519,7.258l-0.517,-0.608c0.678,-0.616 1.023,-1.259 1.034,-1.929c0.005,-0.45 -0.467,-1.232 -1.416,-2.345l-7.846,-9.211c-0.949,-1.113 -1.684,-1.714 -2.206,-1.803c-0.522,-0.089 -1.174,0.16 -1.954,0.748l-0.532,-0.625l6.613,-5.633Zm8.131,-7.57l1.907,1.885c-0.072,-1.567 0.048,-2.881 0.361,-3.943c0.312,-1.063 0.863,-1.993 1.652,-2.792c0.945,-0.956 1.994,-1.487 3.148,-1.593c1.154,-0.106 2.228,0.125 3.224,0.693c0.765,0.424 1.999,1.477 3.702,3.159l5.737,5.67c1.135,1.121 1.943,1.717 2.424,1.788c0.481,0.07 1.08,-0.184 1.798,-0.763l0.567,0.56l-7.367,7.456l-0.568,-0.56c0.477,-0.63 0.64,-1.258 0.49,-1.884c-0.096,-0.427 -0.665,-1.155 -1.705,-2.183l-6.557,-6.48c-1.209,-1.194 -2.018,-1.9 -2.426,-2.117c-0.409,-0.216 -0.812,-0.298 -1.208,-0.243c-0.397,0.055 -0.73,0.218 -1,0.492c-0.893,0.903 -1.078,2.383 -0.553,4.438l7.897,7.803c1.103,1.09 1.903,1.679 2.4,1.764c0.497,0.086 1.057,-0.113 1.681,-0.597l0.567,0.56l-7.367,7.456l-0.567,-0.56c0.549,-0.683 0.786,-1.321 0.709,-1.916c-0.055,-0.407 -0.649,-1.172 -1.784,-2.293l-8.323,-8.224c-1.114,-1.101 -1.909,-1.684 -2.385,-1.749c-0.476,-0.065 -1.077,0.187 -1.805,0.755l-0.583,-0.576l5.934,-6.006Zm5.697,-21.071c0.612,-0.74 1.389,-1.152 2.33,-1.237c0.942,-0.084 1.777,0.175 2.506,0.777c0.729,0.603 1.136,1.375 1.22,2.316c0.084,0.942 -0.175,1.777 -0.777,2.506c-0.603,0.729 -1.372,1.138 -2.308,1.227c-0.936,0.089 -1.768,-0.168 -2.497,-0.77c-0.729,-0.602 -1.14,-1.374 -1.235,-2.315c-0.095,-0.94 0.159,-1.775 0.761,-2.504Zm9.715,4.003l12.658,10.461c1.127,0.932 1.956,1.396 2.486,1.393c0.529,-0.003 1.132,-0.368 1.808,-1.093l0.615,0.508l-7.129,8.627l-0.615,-0.508c0.561,-0.725 0.789,-1.419 0.684,-2.08c-0.074,-0.444 -0.674,-1.132 -1.802,-2.064l-9.327,-7.708c-1.127,-0.931 -1.956,-1.396 -2.485,-1.393c-0.53,0.003 -1.128,0.362 -1.795,1.076l-0.632,-0.522l5.534,-6.697Zm22.894,-1.295c0.398,3.347 0.026,5.846 -1.117,7.499c-0.672,0.972 -1.55,1.56 -2.633,1.762c-1.084,0.203 -2.105,-0.027 -3.065,-0.691c-1.3,-0.899 -2.084,-2.267 -2.349,-4.103c-0.266,-1.836 0.036,-5.228 0.907,-10.176l-1.713,-1.185c-1.288,-0.891 -2.148,-1.382 -2.579,-1.473c-0.43,-0.091 -0.905,-0.029 -1.423,0.188c-0.518,0.216 -0.945,0.568 -1.281,1.054c-0.546,0.79 -0.819,1.562 -0.82,2.316c0,0.467 0.146,0.801 0.438,1.003c0.255,0.176 0.689,0.225 1.301,0.145c0.841,-0.101 1.505,0.017 1.991,0.353c0.596,0.412 0.95,0.985 1.062,1.718c0.113,0.733 -0.079,1.459 -0.574,2.176c-0.53,0.765 -1.204,1.246 -2.023,1.444c-0.819,0.197 -1.538,0.081 -2.158,-0.348c-0.875,-0.604 -1.471,-1.528 -1.788,-2.771c-0.316,-1.243 -0.259,-2.632 0.173,-4.165c0.431,-1.534 1.109,-2.969 2.034,-4.306c1.117,-1.616 2.345,-2.657 3.683,-3.124c1.337,-0.467 2.504,-0.563 3.499,-0.288c0.628,0.183 1.86,0.908 3.694,2.177l6.617,4.575c0.778,0.538 1.288,0.846 1.53,0.924c0.243,0.078 0.455,0.089 0.636,0.035c0.181,-0.054 0.326,-0.16 0.436,-0.318c0.218,-0.316 0.216,-0.794 -0.007,-1.433l0.816,-0.244c0.479,1.229 0.697,2.31 0.655,3.241c-0.043,0.932 -0.35,1.811 -0.921,2.637c-0.672,0.972 -1.425,1.574 -2.259,1.806c-0.834,0.232 -1.755,0.089 -2.762,-0.428Zm-1.331,-0.92l-5.705,-3.945c-0.154,2.067 0.014,3.799 0.502,5.197c0.329,0.927 0.827,1.622 1.495,2.084c0.559,0.387 1.19,0.527 1.893,0.42c0.538,-0.077 0.996,-0.389 1.374,-0.936c0.42,-0.607 0.567,-1.548 0.441,-2.82Zm-319.627,-259.928l-9.106,10.286l-0.549,-0.485l0.578,-0.653c0.525,-0.593 0.841,-1.159 0.949,-1.699c0.08,-0.37 0.018,-0.777 -0.187,-1.223c-0.141,-0.319 -0.716,-0.925 -1.724,-1.817l-14.902,-13.192l11.517,23.948l-0.315,0.355l-25.14,-8.289l14.161,12.535c0.989,0.875 1.618,1.389 1.889,1.541c0.608,0.309 1.259,0.386 1.951,0.232c0.692,-0.155 1.445,-0.692 2.258,-1.611l0.549,0.486l-6.09,6.88l-0.549,-0.486l0.184,-0.207c0.403,-0.437 0.699,-0.915 0.887,-1.436c0.188,-0.521 0.241,-0.995 0.159,-1.42c-0.082,-0.425 -0.307,-0.898 -0.675,-1.418c-0.091,-0.116 -0.587,-0.572 -1.486,-1.368l-12.723,-11.262c-1.018,-0.902 -1.701,-1.409 -2.05,-1.524c-0.348,-0.114 -0.767,-0.089 -1.257,0.077c-0.491,0.165 -0.985,0.53 -1.484,1.093l-0.564,0.638l-0.549,-0.486l7.272,-8.215l18.257,6.086l-8.426,-17.192l7.245,-8.185l0.549,0.486l-0.577,0.652c-0.525,0.594 -0.842,1.16 -0.949,1.7c-0.08,0.369 -0.023,0.773 0.172,1.21c0.141,0.318 0.71,0.92 1.709,1.803l13.256,11.735c1.028,0.91 1.719,1.424 2.072,1.543c0.353,0.119 0.775,0.096 1.265,-0.07c0.491,-0.165 0.985,-0.53 1.484,-1.093l0.577,-0.653l0.232,0.205c0.566,-0.681 0.88,-1.437 0.942,-2.269c0.066,-0.899 -0.195,-2.429 -0.785,-4.59l-6.123,-22.668l0.291,-0.238l21.434,10.922c2.035,1.03 3.454,1.566 4.257,1.609c0.607,0.033 1.248,-0.184 1.923,-0.651l0.464,0.568l-10.059,8.221l-0.463,-0.567l0.414,-0.339c0.807,-0.66 1.283,-1.236 1.426,-1.728c0.091,-0.348 0.011,-0.675 -0.239,-0.981c-0.151,-0.184 -0.336,-0.348 -0.556,-0.492c-0.096,-0.076 -0.562,-0.334 -1.4,-0.774l-3.222,-1.689l-7.344,6.003l0.78,2.738c0.265,0.909 0.578,1.583 0.937,2.022c0.476,0.583 1.062,0.82 1.758,0.712c0.41,-0.062 1.19,-0.495 2.34,-1.299l0.464,0.567l-6.915,5.652l-0.194,-0.236Zm6.726,-16.868l-8.95,-4.629l2.663,9.768l6.287,-5.139Zm258.8,12.131l-0.24,0.294l-10.878,-8.877l0.463,-0.568l0.691,0.564c0.603,0.492 1.177,0.781 1.72,0.867c0.383,0.074 0.788,-0.005 1.215,-0.236c0.313,-0.153 0.895,-0.752 1.746,-1.795l11.169,-13.685c0.868,-1.064 1.354,-1.775 1.459,-2.132c0.105,-0.358 0.067,-0.777 -0.113,-1.256c-0.18,-0.479 -0.561,-0.956 -1.144,-1.432l-0.691,-0.563l0.464,-0.568l10.877,8.877l-0.463,0.568l-0.691,-0.563c-0.603,-0.493 -1.176,-0.782 -1.72,-0.868c-0.383,-0.074 -0.793,0.001 -1.23,0.223c-0.313,0.154 -0.895,0.752 -1.746,1.796l-11.169,13.685c-0.868,1.064 -1.352,1.776 -1.451,2.138c-0.1,0.362 -0.06,0.783 0.12,1.262c0.18,0.479 0.562,0.956 1.145,1.432l0.686,0.56l0.272,-0.269c0.781,0.583 1.622,0.865 2.523,0.846c0.901,-0.019 2.399,-0.425 4.494,-1.217l21.984,-8.25l0.265,0.268l-8.836,22.374c-0.832,2.124 -1.231,3.588 -1.198,4.391c0.025,0.607 0.302,1.224 0.831,1.853l-0.028,0.027c0.838,1.044 1.643,1.617 2.417,1.719c0.823,0.109 1.806,-0.263 2.948,-1.117l15.174,-11.353l0.227,-0.887c0.231,-0.882 0.306,-1.564 0.224,-2.048c-0.081,-0.483 -0.356,-1.06 -0.825,-1.731l0.586,-0.439l5.706,7.627l-5.398,20.584l9.244,-6.916c1.289,-0.965 2.023,-1.802 2.201,-2.512c0.233,-0.966 -0.107,-2.039 -1.022,-3.217l0.587,-0.439l5.314,7.103l-0.586,0.439c-0.797,-0.822 -1.404,-1.32 -1.823,-1.493c-0.418,-0.173 -0.901,-0.191 -1.449,-0.053c-0.548,0.138 -1.33,0.586 -2.344,1.346l-17.902,13.393l-0.403,-0.539l7.023,-27.934l-13.668,10.226c-1.237,0.926 -1.861,1.833 -1.871,2.723c-0.01,0.89 0.258,1.699 0.803,2.429l0.38,0.507l-0.587,0.439l-5.705,-7.627l-8.883,-8.974l0.52,-0.515l0.376,0.38c0.734,0.741 1.353,1.16 1.857,1.255c0.354,0.058 0.672,-0.052 0.953,-0.331c0.169,-0.167 0.315,-0.367 0.438,-0.6c0.065,-0.102 0.278,-0.591 0.637,-1.467l1.375,-3.368l-6.674,-6.741l-2.651,1.037c-0.88,0.351 -1.521,0.726 -1.924,1.125c-0.535,0.529 -0.716,1.135 -0.542,1.818c0.101,0.402 0.606,1.137 1.516,2.206l-0.521,0.515l-6.254,-6.316Zm17.618,4.847l3.757,-9.349l-9.47,3.579l5.713,5.77Zm43.942,93.958l-2.44,-7.103l8.762,-12.161l-0.573,-1.667l-7.117,2.445c-1.373,0.472 -2.209,0.854 -2.507,1.144c-0.298,0.291 -0.48,0.685 -0.546,1.183c-0.067,0.497 0.1,1.326 0.499,2.488l-0.693,0.238l-4.466,-12.998l0.693,-0.238c0.403,1.174 0.786,1.932 1.148,2.275c0.362,0.344 0.747,0.539 1.154,0.588c0.408,0.048 1.298,-0.163 2.672,-0.635l16.481,-5.663c1.373,-0.472 2.209,-0.853 2.507,-1.144c0.297,-0.291 0.48,-0.685 0.546,-1.183c0.066,-0.497 -0.1,-1.326 -0.499,-2.488l0.693,-0.238l4.054,11.799c1.056,3.072 1.615,5.392 1.68,6.961c0.065,1.569 -0.32,3 -1.153,4.291c-0.834,1.292 -2.019,2.201 -3.554,2.729c-1.873,0.643 -3.653,0.501 -5.34,-0.427c-1.07,-0.595 -2.065,-1.601 -2.984,-3.016l-6.498,9.059c-0.837,1.181 -1.334,1.987 -1.493,2.419c-0.211,0.645 -0.22,1.311 -0.026,1.998l-0.404,0.139c0.177,0.75 0.453,1.323 0.828,1.72c0.257,0.293 0.626,0.478 1.105,0.556c0.341,0.07 1.168,-0.048 2.48,-0.353l17.204,-4.003c1.337,-0.312 2.157,-0.577 2.458,-0.796c0.302,-0.219 0.528,-0.573 0.678,-1.062c0.151,-0.49 0.141,-1.101 -0.03,-1.833l-0.202,-0.868l0.714,-0.166l3.182,13.674l-0.714,0.167l-0.202,-0.868c-0.176,-0.759 -0.454,-1.338 -0.831,-1.739c-0.258,-0.292 -0.628,-0.484 -1.11,-0.575c-0.342,-0.07 -1.168,0.048 -2.48,0.353l-17.204,4.004c-1.338,0.311 -2.156,0.579 -2.456,0.805c-0.3,0.226 -0.525,0.583 -0.676,1.072c-0.15,0.489 -0.14,1.1 0.03,1.833l0.202,0.868l-0.713,0.166l-3.182,-13.675l0.323,-0.075Zm18.203,-25.21l-11.125,3.822l0.367,1.068c0.597,1.735 1.202,2.979 1.816,3.731c0.615,0.752 1.422,1.232 2.422,1.44c0.999,0.208 2.167,0.082 3.503,-0.377c1.935,-0.665 3.209,-1.609 3.822,-2.831c0.613,-1.223 0.574,-2.839 -0.116,-4.85l-0.689,-2.003Zm-434.785,87.039l0.288,-13.859l0.733,0.016l-0.015,0.692c-0.021,1.043 0.073,1.762 0.282,2.155c0.21,0.394 0.504,0.678 0.884,0.851c0.379,0.173 1.334,0.275 2.865,0.307l13.147,0.273c2.402,0.05 3.996,-0.098 4.783,-0.445c0.786,-0.347 1.445,-0.931 1.977,-1.752c0.532,-0.82 0.811,-1.864 0.838,-3.132c0.03,-1.451 -0.271,-2.696 -0.903,-3.732c-0.632,-1.037 -1.517,-1.821 -2.655,-2.353c-1.138,-0.532 -3.132,-0.828 -5.983,-0.887l-10.949,-0.228c-1.201,-0.025 -2.061,0.083 -2.581,0.323c-0.52,0.24 -0.883,0.55 -1.089,0.928c-0.316,0.588 -0.485,1.423 -0.508,2.505l-0.733,-0.015l0.193,-9.286l0.733,0.016l-0.011,0.554c-0.016,0.752 0.123,1.382 0.416,1.89c0.293,0.508 0.741,0.881 1.343,1.118c0.419,0.18 1.176,0.282 2.272,0.304l10.196,0.212c3.155,0.066 5.427,0.321 6.818,0.766c1.39,0.445 2.656,1.485 3.797,3.119c1.141,1.635 1.683,3.845 1.625,6.63c-0.048,2.323 -0.396,4.112 -1.042,5.366c-0.881,1.711 -1.989,2.91 -3.323,3.595c-1.335,0.685 -3.118,1.005 -5.348,0.958l-13.147,-0.273c-1.544,-0.032 -2.506,0.034 -2.886,0.198c-0.379,0.163 -0.686,0.454 -0.919,0.872c-0.233,0.418 -0.355,1.194 -0.365,2.33l-0.733,-0.016Zm17.021,-39.038l7.367,1.083c1.437,0.211 2.354,0.256 2.753,0.134c0.398,-0.121 0.741,-0.391 1.029,-0.809c0.289,-0.418 0.521,-1.228 0.698,-2.43l0.725,0.107l-1.984,13.499l-0.725,-0.107c0.18,-1.227 0.188,-2.077 0.024,-2.548c-0.164,-0.471 -0.416,-0.822 -0.756,-1.052c-0.34,-0.23 -1.228,-0.451 -2.665,-0.662l-17.241,-2.534c-1.437,-0.211 -2.355,-0.255 -2.753,-0.134c-0.398,0.122 -0.741,0.388 -1.028,0.8c-0.287,0.411 -0.52,1.224 -0.699,2.439l-0.725,-0.106l1.702,-11.58c0.56,-3.814 1.642,-6.45 3.244,-7.909c1.602,-1.46 3.422,-2.039 5.46,-1.74c1.724,0.253 3.121,1.006 4.192,2.257c1.07,1.252 1.689,2.851 1.857,4.797c0.127,1.313 -0.031,3.478 -0.475,6.495Zm-13.009,-1.912l11.481,1.688c0.09,-0.428 0.151,-0.752 0.183,-0.974c0.235,-1.594 -0.058,-2.891 -0.879,-3.892c-0.82,-1.002 -2.223,-1.648 -4.208,-1.94c-1.973,-0.29 -3.479,-0.071 -4.52,0.657c-1.041,0.728 -1.687,1.947 -1.939,3.658l-0.118,0.803Zm17.892,-22.434l7.191,1.933c1.402,0.377 2.308,0.528 2.718,0.453c0.409,-0.074 0.782,-0.302 1.117,-0.684c0.335,-0.381 0.66,-1.158 0.975,-2.331l0.708,0.19l-3.542,13.176l-0.708,-0.19c0.322,-1.198 0.429,-2.041 0.321,-2.528c-0.108,-0.487 -0.318,-0.865 -0.629,-1.133c-0.31,-0.268 -1.167,-0.591 -2.569,-0.968l-16.83,-4.523c-1.402,-0.377 -2.308,-0.529 -2.718,-0.454c-0.409,0.074 -0.781,0.299 -1.114,0.674c-0.333,0.376 -0.659,1.156 -0.978,2.342l-0.708,-0.19l3.039,-11.303c1,-3.723 2.381,-6.215 4.142,-7.478c1.762,-1.263 3.637,-1.627 5.626,-1.092c1.682,0.452 2.983,1.362 3.9,2.73c0.917,1.367 1.346,3.027 1.286,4.98c-0.026,1.319 -0.435,3.451 -1.227,6.396Zm-12.698,-3.414l11.206,3.013c0.139,-0.414 0.237,-0.729 0.296,-0.946c0.418,-1.556 0.278,-2.878 -0.42,-3.968c-0.699,-1.09 -2.017,-1.896 -3.955,-2.416c-1.925,-0.518 -3.447,-0.476 -4.565,0.126c-1.119,0.601 -1.903,1.737 -2.352,3.407l-0.21,0.784Zm8.202,-25.153l10.139,4.084l0.2,-0.496c0.636,-1.58 0.602,-2.924 -0.104,-4.034c-0.706,-1.11 -1.987,-2.152 -3.843,-3.128l0.281,-0.698l13.042,5.253l-0.281,0.698c-1.48,-0.425 -2.768,-0.585 -3.864,-0.478c-1.096,0.106 -1.926,0.409 -2.49,0.908c-0.563,0.499 -1.084,1.342 -1.563,2.53l7.017,2.826c1.372,0.552 2.234,0.832 2.587,0.839c0.353,0.007 0.692,-0.109 1.016,-0.349c0.324,-0.239 0.629,-0.714 0.915,-1.425l0.599,-1.487c0.937,-2.327 1.149,-4.409 0.637,-6.245c-0.513,-1.836 -1.749,-3.504 -3.706,-5.004l0.273,-0.68l7.466,4.309l-8.67,21.529l-0.68,-0.274l0.333,-0.827c0.291,-0.722 0.397,-1.356 0.317,-1.9c-0.043,-0.387 -0.238,-0.751 -0.586,-1.09c-0.239,-0.253 -0.984,-0.631 -2.233,-1.134l-16.385,-6.599c-1.127,-0.454 -1.831,-0.702 -2.113,-0.744c-0.478,-0.05 -0.9,0.043 -1.266,0.28c-0.53,0.327 -0.958,0.895 -1.283,1.703l-0.333,0.827l-0.68,-0.274l8.397,-20.849l7.366,2.967l-0.281,0.698c-1.943,-0.37 -3.436,-0.391 -4.479,-0.064c-1.043,0.327 -1.985,1.005 -2.825,2.032c-0.497,0.597 -1.125,1.839 -1.885,3.725l-1.035,2.571Zm23.565,-19.672l6.523,3.751c1.259,0.724 2.096,1.103 2.511,1.136c0.415,0.033 0.831,-0.089 1.25,-0.366c0.418,-0.277 0.933,-0.948 1.545,-2.013l0.635,0.366l-6.851,11.913l-0.635,-0.365c0.618,-1.076 0.938,-1.863 0.958,-2.362c0.02,-0.498 -0.086,-0.917 -0.317,-1.256c-0.232,-0.338 -0.977,-0.87 -2.236,-1.594l-15.106,-8.688c-1.259,-0.724 -2.096,-1.102 -2.511,-1.135c-0.415,-0.034 -0.832,0.089 -1.25,0.366c-0.418,0.277 -0.934,0.948 -1.546,2.012l-0.635,-0.365l6.22,-10.815c1.619,-2.815 2.998,-4.763 4.138,-5.844c1.139,-1.081 2.47,-1.732 3.991,-1.954c1.521,-0.222 2.985,0.072 4.393,0.882c1.716,0.987 2.78,2.421 3.191,4.302c0.255,1.198 0.152,2.608 -0.309,4.231l11.097,-1.064c1.44,-0.147 2.375,-0.302 2.804,-0.467c0.625,-0.265 1.132,-0.697 1.522,-1.295l0.635,0.366l-4.216,7.33l-14.923,1.4l-0.878,1.528Zm-11.416,-6.566l10.197,5.865l0.562,-0.979c0.915,-1.591 1.454,-2.865 1.616,-3.822c0.163,-0.958 -0.007,-1.881 -0.508,-2.771c-0.501,-0.89 -1.364,-1.687 -2.588,-2.391c-1.774,-1.02 -3.323,-1.359 -4.647,-1.016c-1.324,0.342 -2.516,1.435 -3.576,3.277l-1.056,1.837Zm86.282,-89.575l3.894,6.137l-0.602,0.382c-1.255,-1.19 -2.296,-1.956 -3.123,-2.299c-0.828,-0.342 -1.737,-0.457 -2.728,-0.344c-0.551,0.068 -1.356,0.438 -2.415,1.11l-1.689,1.071l11.096,17.491c0.736,1.159 1.26,1.843 1.572,2.052c0.312,0.208 0.724,0.303 1.235,0.283c0.511,-0.019 1.09,-0.234 1.737,-0.644l0.752,-0.478l0.393,0.619l-11.872,7.532l-0.393,-0.619l0.753,-0.477c0.657,-0.417 1.113,-0.87 1.365,-1.359c0.191,-0.34 0.25,-0.753 0.177,-1.238c-0.047,-0.345 -0.432,-1.086 -1.153,-2.223l-11.097,-17.491l-1.639,1.04c-1.527,0.969 -2.431,1.996 -2.712,3.081c-0.397,1.518 -0.193,3.194 0.611,5.029l-0.635,0.403l-3.893,-6.136l20.366,-12.922Zm26.325,-12.602l3.063,6.591l-0.647,0.3c-1.089,-1.342 -2.022,-2.237 -2.798,-2.684c-0.776,-0.448 -1.662,-0.68 -2.66,-0.697c-0.555,-0.004 -1.401,0.259 -2.539,0.787l-1.814,0.843l8.731,18.784c0.578,1.245 1.009,1.992 1.291,2.239c0.283,0.247 0.679,0.394 1.188,0.441c0.51,0.047 1.112,-0.09 1.806,-0.413l0.808,-0.376l0.309,0.665l-12.75,5.926l-0.309,-0.665l0.808,-0.375c0.706,-0.329 1.217,-0.719 1.531,-1.17c0.233,-0.313 0.345,-0.714 0.336,-1.205c-0.002,-0.348 -0.287,-1.133 -0.855,-2.354l-8.73,-18.784l-1.76,0.818c-1.64,0.762 -2.67,1.663 -3.089,2.702c-0.591,1.454 -0.607,3.143 -0.048,5.067l-0.682,0.317l-3.063,-6.591l21.873,-10.166Zm22.31,12.772l-9.024,2.925l-0.267,2.835c-0.083,0.943 -0.037,1.684 0.138,2.224c0.232,0.716 0.692,1.15 1.379,1.302c0.404,0.091 1.288,-0.029 2.652,-0.36l0.226,0.697l-8.496,2.754l-0.226,-0.697c0.872,-0.436 1.503,-1.06 1.891,-1.873c0.389,-0.813 0.701,-2.333 0.937,-4.561l2.529,-23.344l0.358,-0.116l16.002,17.962c1.522,1.699 2.65,2.715 3.382,3.047c0.553,0.25 1.229,0.281 2.028,0.092l0.226,0.697l-12.358,4.005l-0.226,-0.697l0.509,-0.165c0.992,-0.321 1.644,-0.685 1.957,-1.092c0.211,-0.29 0.255,-0.624 0.133,-1.001c-0.073,-0.226 -0.186,-0.446 -0.339,-0.66c-0.062,-0.105 -0.403,-0.515 -1.023,-1.23l-2.388,-2.744Zm-1.093,-1.186l-6.657,-7.564l-1.066,10.067l7.723,-2.503Zm22.558,-8.825l1.347,7.323c0.263,1.429 0.516,2.312 0.76,2.649c0.243,0.338 0.609,0.576 1.098,0.714c0.488,0.139 1.33,0.098 2.524,-0.122l0.133,0.721l-13.419,2.469l-0.133,-0.72c1.221,-0.225 2.028,-0.491 2.421,-0.798c0.393,-0.307 0.644,-0.659 0.752,-1.055c0.108,-0.396 0.031,-1.308 -0.232,-2.736l-3.154,-17.139c-0.263,-1.428 -0.516,-2.311 -0.759,-2.649c-0.244,-0.337 -0.606,-0.576 -1.088,-0.715c-0.482,-0.14 -1.327,-0.099 -2.535,0.124l-0.132,-0.721l11.51,-2.118c3.791,-0.698 6.636,-0.523 8.533,0.523c1.898,1.047 3.033,2.583 3.405,4.609c0.316,1.714 0.054,3.279 -0.787,4.695c-0.84,1.417 -2.154,2.518 -3.942,3.303c-1.202,0.544 -3.303,1.091 -6.302,1.643Zm-2.38,-12.932l2.1,11.413c0.433,-0.053 0.76,-0.099 0.981,-0.14c1.584,-0.292 2.718,-0.987 3.402,-2.086c0.683,-1.099 0.844,-2.635 0.48,-4.609c-0.36,-1.96 -1.053,-3.316 -2.077,-4.067c-1.024,-0.751 -2.387,-0.971 -4.088,-0.658l-0.798,0.147Zm31.219,-5.585c4.266,-0.35 7.794,0.741 10.583,3.272c2.79,2.531 4.274,5.788 4.453,9.771c0.153,3.402 -0.709,6.441 -2.584,9.115c-2.484,3.548 -6.133,5.43 -10.946,5.646c-4.828,0.216 -8.633,-1.252 -11.418,-4.404c-2.2,-2.491 -3.379,-5.511 -3.539,-9.059c-0.178,-3.983 1.028,-7.364 3.619,-10.143c2.591,-2.779 5.868,-4.178 9.832,-4.198Zm0.294,1.256c-2.453,0.11 -4.263,1.447 -5.43,4.01c-0.949,2.104 -1.338,5.082 -1.165,8.933c0.206,4.576 1.162,7.923 2.869,10.04c1.19,1.48 2.794,2.174 4.812,2.084c1.358,-0.061 2.477,-0.442 3.358,-1.142c1.123,-0.896 1.965,-2.286 2.529,-4.168c0.563,-1.882 0.777,-4.313 0.643,-7.294c-0.159,-3.547 -0.608,-6.187 -1.346,-7.918c-0.739,-1.731 -1.635,-2.936 -2.69,-3.616c-1.055,-0.679 -2.248,-0.989 -3.58,-0.929Zm28.222,-0.422l11.512,17.899l1.157,-11.487c0.162,-1.602 0.041,-2.709 -0.362,-3.32c-0.553,-0.826 -1.574,-1.3 -3.061,-1.424l0.074,-0.729l8.827,0.89l-0.074,0.729c-1.144,0.031 -1.921,0.141 -2.332,0.332c-0.411,0.191 -0.75,0.535 -1.019,1.032c-0.269,0.497 -0.468,1.376 -0.595,2.637l-2.241,22.245l-0.67,-0.068l-15.826,-24.065l-1.712,16.984c-0.155,1.537 0.092,2.61 0.741,3.219c0.648,0.61 1.426,0.96 2.332,1.051l0.63,0.064l-0.073,0.729l-9.477,-0.955l0.073,-0.729c1.473,0.135 2.528,-0.064 3.165,-0.597c0.638,-0.533 1.028,-1.508 1.171,-2.927l1.9,-18.856l-0.5,-0.767c-0.493,-0.766 -0.945,-1.283 -1.356,-1.55c-0.411,-0.267 -1.023,-0.454 -1.834,-0.563l0.073,-0.729l9.477,0.955Zm29.683,31.177l-0.152,0.717l-13.734,-2.918l0.152,-0.716l0.872,0.185c0.762,0.162 1.404,0.156 1.927,-0.016c0.374,-0.11 0.698,-0.365 0.972,-0.765c0.208,-0.28 0.452,-1.079 0.732,-2.396l3.67,-17.278c0.286,-1.343 0.393,-2.198 0.322,-2.564c-0.071,-0.366 -0.295,-0.721 -0.675,-1.064c-0.379,-0.344 -0.936,-0.594 -1.672,-0.75l-0.872,-0.186l0.152,-0.716l13.734,2.917l-0.152,0.717l-0.872,-0.185c-0.762,-0.162 -1.404,-0.157 -1.927,0.016c-0.374,0.109 -0.704,0.363 -0.991,0.761c-0.208,0.279 -0.452,1.078 -0.732,2.395l-3.67,17.279c-0.286,1.343 -0.39,2.198 -0.313,2.565c0.078,0.368 0.306,0.723 0.685,1.067c0.379,0.344 0.937,0.594 1.673,0.75l0.871,0.185Zm22.188,6.978l-0.236,0.694l-13.291,-4.527l0.237,-0.694l0.843,0.288c0.737,0.251 1.376,0.322 1.915,0.212c0.385,-0.064 0.737,-0.279 1.056,-0.644c0.24,-0.253 0.577,-1.017 1.011,-2.292l5.695,-16.72c0.443,-1.3 0.651,-2.136 0.624,-2.508c-0.027,-0.371 -0.208,-0.75 -0.543,-1.137c-0.336,-0.386 -0.86,-0.7 -1.572,-0.943l-0.844,-0.287l0.236,-0.694l13.291,4.527l-0.236,0.694l-0.844,-0.288c-0.737,-0.251 -1.376,-0.322 -1.915,-0.213c-0.384,0.065 -0.743,0.277 -1.075,0.638c-0.24,0.253 -0.576,1.017 -1.011,2.292l-5.695,16.721c-0.443,1.3 -0.647,2.136 -0.614,2.51c0.033,0.374 0.217,0.754 0.553,1.14c0.335,0.387 0.859,0.701 1.572,0.944l0.843,0.287Zm20.001,-19.917l4.979,20.691l4.874,-10.466c0.68,-1.46 0.931,-2.545 0.751,-3.255c-0.251,-0.962 -1.058,-1.745 -2.422,-2.351l0.31,-0.664l8.042,3.745l-0.309,0.664c-1.091,-0.348 -1.861,-0.499 -2.312,-0.454c-0.451,0.045 -0.885,0.258 -1.302,0.639c-0.418,0.381 -0.894,1.145 -1.429,2.294l-9.439,20.268l-0.61,-0.284l-7.023,-27.934l-7.207,15.474c-0.652,1.4 -0.772,2.495 -0.36,3.284c0.411,0.789 1.03,1.375 1.856,1.76l0.574,0.267l-0.309,0.665l-8.635,-4.022l0.31,-0.664c1.346,0.612 2.407,0.772 3.185,0.479c0.777,-0.294 1.467,-1.087 2.069,-2.379l8,-17.18l-0.219,-0.889c-0.214,-0.886 -0.471,-1.522 -0.771,-1.91c-0.3,-0.387 -0.816,-0.765 -1.547,-1.135l0.31,-0.664l8.634,4.021Zm5.334,32.15l0.399,-0.614l0.747,0.485c0.654,0.424 1.221,0.646 1.703,0.668c0.482,0.021 0.921,-0.091 1.317,-0.338c0.251,-0.168 0.753,-0.833 1.508,-1.996l9.614,-14.818c0.748,-1.152 1.154,-1.912 1.219,-2.279c0.065,-0.367 -0.018,-0.778 -0.249,-1.235c-0.231,-0.457 -0.662,-0.89 -1.293,-1.3l-0.748,-0.485l0.399,-0.614l10.084,6.542c2.691,1.747 4.619,3.517 5.784,5.311c1.422,2.198 2.062,4.541 1.919,7.029c-0.143,2.488 -0.958,4.879 -2.445,7.171c-1.028,1.584 -2.229,2.878 -3.605,3.882c-1.375,1.004 -2.749,1.678 -4.122,2.023c-1.372,0.345 -2.758,0.437 -4.157,0.277c-1.399,-0.16 -2.956,-0.592 -4.671,-1.296c-0.762,-0.305 -1.868,-0.929 -3.319,-1.87l-10.084,-6.543Zm22.375,-15.674l-11.404,17.576c-0.604,0.93 -0.93,1.529 -0.977,1.797c-0.048,0.268 -0.003,0.525 0.135,0.773c0.192,0.36 0.57,0.723 1.135,1.09c1.849,1.2 3.671,1.485 5.465,0.854c2.435,-0.843 4.817,-3.059 7.145,-6.647c1.876,-2.891 2.92,-5.494 3.133,-7.811c0.157,-1.818 -0.172,-3.338 -0.985,-4.558c-0.575,-0.861 -1.791,-1.885 -3.647,-3.074Zm88.09,99.434l-6.487,3.277l-0.321,-0.636c1.306,-1.133 2.17,-2.095 2.592,-2.885c0.422,-0.79 0.625,-1.683 0.609,-2.681c-0.014,-0.555 -0.304,-1.392 -0.87,-2.512l-0.901,-1.785l-18.489,9.339c-1.226,0.619 -1.958,1.074 -2.196,1.364c-0.238,0.29 -0.372,0.691 -0.402,1.202c-0.03,0.511 0.127,1.108 0.472,1.791l0.402,0.796l-0.654,0.33l-6.339,-12.55l0.654,-0.33l0.402,0.795c0.351,0.695 0.757,1.193 1.219,1.492c0.32,0.223 0.725,0.322 1.214,0.296c0.349,-0.013 1.124,-0.323 2.326,-0.931l18.489,-9.339l-0.875,-1.732c-0.816,-1.614 -1.75,-2.614 -2.802,-3c-1.472,-0.543 -3.161,-0.503 -5.065,0.119l-0.34,-0.672l6.487,-3.277l10.875,21.529Zm5.161,68.659c-0.259,2.603 -0.741,4.47 -1.445,5.601c-1,1.622 -2.449,2.557 -4.347,2.805c-2.003,0.261 -3.764,-0.327 -5.283,-1.766c-1.842,-1.77 -3.01,-4.54 -3.503,-8.31l-1.767,-13.529l0.726,-0.095c0.161,1.23 0.384,2.05 0.671,2.458c0.286,0.409 0.624,0.678 1.014,0.807c0.39,0.128 1.304,0.099 2.744,-0.089l17.28,-2.258c1.44,-0.188 2.335,-0.395 2.685,-0.621c0.35,-0.225 0.607,-0.575 0.772,-1.049c0.164,-0.474 0.167,-1.32 0.007,-2.538l0.727,-0.095l1.668,12.764c0.398,3.05 0.409,5.245 0.032,6.586c-0.378,1.341 -1.058,2.448 -2.043,3.323c-0.984,0.874 -2.085,1.391 -3.302,1.55c-1.283,0.167 -2.486,-0.148 -3.609,-0.947c-1.123,-0.798 -2.132,-2.331 -3.027,-4.597Zm-1.935,-7.017l-8.542,1.116l-0.984,0.109c-0.707,0.092 -1.217,0.342 -1.53,0.749c-0.313,0.407 -0.423,0.964 -0.331,1.671c0.137,1.047 0.495,1.982 1.075,2.805c0.581,0.823 1.343,1.413 2.289,1.768c0.945,0.356 1.961,0.463 3.047,0.321c1.244,-0.162 2.322,-0.596 3.235,-1.301c0.913,-0.706 1.5,-1.588 1.761,-2.647c0.261,-1.059 0.254,-2.59 -0.02,-4.591Zm1.531,-0.2c0.243,1.859 0.632,3.203 1.166,4.032c0.534,0.829 1.212,1.429 2.033,1.801c0.821,0.372 1.82,0.481 2.998,0.327c1.179,-0.154 2.114,-0.512 2.806,-1.075c0.692,-0.563 1.178,-1.302 1.457,-2.218c0.28,-0.915 0.289,-2.328 0.026,-4.237l-10.486,1.37Zm12.671,27.564l-10.931,0.056l0.003,0.534c0.008,1.703 0.549,2.935 1.623,3.695c1.073,0.76 2.653,1.241 4.74,1.441l0.004,0.753l-14.06,0.072l-0.004,-0.753c1.531,-0.166 2.783,-0.506 3.757,-1.019c0.975,-0.513 1.628,-1.108 1.962,-1.783c0.333,-0.675 0.496,-1.652 0.49,-2.933l-7.565,0.039c-1.479,0.007 -2.383,0.074 -2.712,0.202c-0.329,0.127 -0.599,0.362 -0.808,0.707c-0.21,0.344 -0.313,0.899 -0.309,1.665l0.009,1.604c0.012,2.508 0.603,4.515 1.773,6.021c1.169,1.505 2.944,2.582 5.324,3.23l0.003,0.733l-8.541,-1.164l-0.118,-23.209l0.733,-0.004l0.004,0.891c0.004,0.779 0.146,1.405 0.426,1.879c0.186,0.343 0.504,0.605 0.954,0.788c0.318,0.143 1.15,0.212 2.496,0.205l17.664,-0.09c1.215,-0.007 1.961,-0.043 2.238,-0.111c0.461,-0.134 0.816,-0.38 1.065,-0.738c0.367,-0.503 0.549,-1.191 0.544,-2.062l-0.004,-0.891l0.732,-0.004l0.115,22.476l-7.941,0.04l-0.004,-0.752c1.939,-0.393 3.329,-0.938 4.17,-1.635c0.842,-0.698 1.457,-1.681 1.847,-2.95c0.234,-0.741 0.345,-2.128 0.335,-4.161l-0.014,-2.772Zm-431.321,54.931c-0.006,0 -0.012,0 -0.017,0.001c-0.991,0.051 -1.742,0.149 -2.254,0.294c-0.512,0.145 -1.306,0.495 -2.382,1.05c-1.075,0.555 -1.912,0.833 -2.51,0.833c-0.785,-0 -1.476,-0.278 -2.074,-0.833c-0.598,-0.555 -0.896,-1.165 -0.896,-1.831c-0,-0.734 0.277,-1.37 0.832,-1.908c0.555,-0.538 1.276,-0.806 2.164,-0.806c0.7,-0 1.545,0.264 2.535,0.793c0.991,0.53 1.746,0.867 2.267,1.012c0.521,0.145 1.293,0.26 2.318,0.346c0.01,0.001 0.02,0.002 0.031,0.003c-0.004,-0.005 -0.007,-0.01 -0.01,-0.015c-0.539,-0.832 -1,-1.433 -1.382,-1.804c-0.382,-0.371 -1.082,-0.884 -2.1,-1.538c-1.018,-0.654 -1.677,-1.24 -1.976,-1.757c-0.392,-0.681 -0.498,-1.418 -0.316,-2.213c0.182,-0.795 0.561,-1.359 1.138,-1.692c0.635,-0.367 1.325,-0.445 2.068,-0.233c0.743,0.212 1.337,0.702 1.781,1.471c0.35,0.606 0.543,1.47 0.58,2.592c0.037,1.123 0.122,1.945 0.257,2.469c0.135,0.524 0.421,1.25 0.859,2.18c0.005,0.009 0.009,0.019 0.014,0.028c0.002,-0.005 0.005,-0.01 0.007,-0.015c0.451,-0.883 0.742,-1.583 0.872,-2.099c0.131,-0.516 0.224,-1.379 0.282,-2.588c0.057,-1.209 0.235,-2.072 0.534,-2.589c0.392,-0.681 0.978,-1.141 1.758,-1.381c0.779,-0.24 1.457,-0.193 2.034,0.14c0.635,0.367 1.048,0.925 1.236,1.674c0.188,0.75 0.06,1.509 -0.384,2.278c-0.35,0.606 -1.001,1.206 -1.955,1.798c-0.953,0.593 -1.623,1.079 -2.009,1.458c-0.386,0.378 -0.872,0.989 -1.458,1.834c-0.006,0.008 -0.012,0.017 -0.018,0.025c0.005,-0 0.011,-0 0.017,-0.001c0.99,-0.051 1.742,-0.149 2.254,-0.294c0.512,-0.145 1.306,-0.495 2.381,-1.05c1.076,-0.555 1.913,-0.832 2.51,-0.832c0.786,-0 1.477,0.277 2.075,0.832c0.597,0.555 0.896,1.165 0.896,1.831c-0,0.734 -0.277,1.37 -0.832,1.908c-0.555,0.538 -1.277,0.807 -2.164,0.807c-0.7,-0 -1.546,-0.265 -2.536,-0.794c-0.99,-0.53 -1.746,-0.867 -2.266,-1.012c-0.521,-0.145 -1.294,-0.26 -2.318,-0.346c-0.01,-0 -0.021,-0.001 -0.031,-0.002c0.003,0.004 0.006,0.009 0.01,0.014c0.539,0.832 1,1.434 1.381,1.805c0.382,0.371 1.082,0.883 2.101,1.537c1.018,0.654 1.676,1.24 1.975,1.758c0.393,0.68 0.498,1.417 0.317,2.212c-0.182,0.795 -0.561,1.359 -1.138,1.692c-0.636,0.367 -1.325,0.445 -2.068,0.233c-0.744,-0.211 -1.337,-0.702 -1.781,-1.471c-0.35,-0.606 -0.543,-1.47 -0.58,-2.592c-0.037,-1.122 -0.123,-1.945 -0.257,-2.469c-0.135,-0.523 -0.422,-1.25 -0.86,-2.18c-0.004,-0.009 -0.009,-0.019 -0.013,-0.028c-0.003,0.005 -0.005,0.01 -0.008,0.015c-0.451,0.883 -0.741,1.583 -0.872,2.099c-0.13,0.516 -0.224,1.379 -0.281,2.588c-0.057,1.209 -0.235,2.072 -0.534,2.59c-0.393,0.68 -0.979,1.14 -1.758,1.38c-0.779,0.24 -1.457,0.194 -2.034,-0.139c-0.636,-0.367 -1.048,-0.926 -1.236,-1.675c-0.189,-0.75 -0.061,-1.509 0.383,-2.278c0.35,-0.606 1.002,-1.205 1.955,-1.798c0.954,-0.593 1.624,-1.079 2.01,-1.457c0.386,-0.379 0.872,-0.99 1.458,-1.835c0.006,-0.008 0.012,-0.017 0.018,-0.025Zm413.678,-0c-0.006,0 -0.012,0 -0.018,0.001c-0.99,0.051 -1.741,0.149 -2.253,0.294c-0.513,0.145 -1.306,0.495 -2.382,1.05c-1.076,0.555 -1.912,0.833 -2.51,0.833c-0.785,-0 -1.477,-0.278 -2.074,-0.833c-0.598,-0.555 -0.897,-1.165 -0.897,-1.831c0,-0.734 0.278,-1.37 0.833,-1.908c0.555,-0.538 1.276,-0.806 2.164,-0.806c0.7,-0 1.545,0.264 2.535,0.793c0.99,0.53 1.746,0.867 2.267,1.012c0.52,0.145 1.293,0.26 2.317,0.346c0.011,0.001 0.021,0.002 0.031,0.003c-0.003,-0.005 -0.006,-0.01 -0.009,-0.015c-0.54,-0.832 -1,-1.433 -1.382,-1.804c-0.382,-0.371 -1.082,-0.884 -2.1,-1.538c-1.019,-0.654 -1.677,-1.24 -1.976,-1.757c-0.393,-0.681 -0.498,-1.418 -0.316,-2.213c0.181,-0.795 0.561,-1.359 1.137,-1.692c0.636,-0.367 1.326,-0.445 2.069,-0.233c0.743,0.212 1.337,0.702 1.78,1.471c0.35,0.606 0.544,1.47 0.581,2.592c0.036,1.123 0.122,1.945 0.257,2.469c0.134,0.524 0.421,1.25 0.859,2.18c0.005,0.009 0.009,0.019 0.013,0.028c0.003,-0.005 0.005,-0.01 0.008,-0.015c0.451,-0.883 0.741,-1.583 0.872,-2.099c0.13,-0.516 0.224,-1.379 0.281,-2.588c0.058,-1.209 0.236,-2.072 0.534,-2.589c0.393,-0.681 0.979,-1.141 1.759,-1.381c0.779,-0.24 1.457,-0.193 2.033,0.14c0.636,0.367 1.048,0.925 1.237,1.674c0.188,0.75 0.06,1.509 -0.384,2.278c-0.35,0.606 -1.002,1.206 -1.955,1.798c-0.953,0.593 -1.623,1.079 -2.009,1.458c-0.386,0.378 -0.872,0.989 -1.459,1.834c-0.006,0.008 -0.011,0.017 -0.017,0.025c0.005,-0 0.011,-0 0.017,-0.001c0.99,-0.051 1.741,-0.149 2.253,-0.294c0.513,-0.145 1.307,-0.495 2.382,-1.05c1.076,-0.555 1.912,-0.832 2.51,-0.832c0.785,-0 1.477,0.277 2.074,0.832c0.598,0.555 0.897,1.165 0.897,1.831c-0,0.734 -0.278,1.37 -0.833,1.908c-0.554,0.538 -1.276,0.807 -2.164,0.807c-0.7,-0 -1.545,-0.265 -2.535,-0.794c-0.99,-0.53 -1.746,-0.867 -2.266,-1.012c-0.521,-0.145 -1.294,-0.26 -2.318,-0.346c-0.011,-0 -0.021,-0.001 -0.031,-0.002c0.003,0.004 0.006,0.009 0.009,0.014c0.54,0.832 1,1.434 1.382,1.805c0.382,0.371 1.082,0.883 2.1,1.537c1.019,0.654 1.677,1.24 1.976,1.758c0.393,0.68 0.498,1.417 0.316,2.212c-0.181,0.795 -0.561,1.359 -1.137,1.692c-0.636,0.367 -1.325,0.445 -2.069,0.233c-0.743,-0.211 -1.336,-0.702 -1.78,-1.471c-0.35,-0.606 -0.544,-1.47 -0.58,-2.592c-0.037,-1.122 -0.123,-1.945 -0.258,-2.469c-0.134,-0.523 -0.421,-1.25 -0.859,-2.18c-0.005,-0.009 -0.009,-0.019 -0.013,-0.028c-0.003,0.005 -0.005,0.01 -0.008,0.015c-0.451,0.883 -0.741,1.583 -0.872,2.099c-0.13,0.516 -0.224,1.379 -0.281,2.588c-0.058,1.209 -0.236,2.072 -0.534,2.59c-0.393,0.68 -0.979,1.14 -1.758,1.38c-0.78,0.24 -1.458,0.194 -2.034,-0.139c-0.636,-0.367 -1.048,-0.926 -1.236,-1.675c-0.189,-0.75 -0.061,-1.509 0.383,-2.278c0.35,-0.606 1.002,-1.205 1.955,-1.798c0.954,-0.593 1.623,-1.079 2.009,-1.457c0.386,-0.379 0.873,-0.99 1.459,-1.835c0.006,-0.008 0.012,-0.017 0.018,-0.025Z"/></g></svg>