<?xml version="1.0" encoding="UTF-8" standalone="no"?><!DOCTYPE svg PUBLIC "-//W3C//DTD SVG 1.1//EN" "http://www.w3.org/Graphics/SVG/1.1/DTD/svg11.dtd"><svg width="100%" height="100%" viewBox="0 0 512 512" version="1.1" xmlns="http://www.w3.org/2000/svg" xmlns:xlink="http://www.w3.org/1999/xlink" xml:space="preserve" xmlns:serif="http://www.serif.com/" style="fill-rule:evenodd;clip-rule:evenodd;stroke-linejoin:round;stroke-miterlimit:2;"><rect id="safari-pinned-tab" x="0" y="0" width="512" height="512" style="fill:none;"/><g id="logo"><g id="Layer_7"><path d="M494.076,240.348l11.924,0c-0.507,4.947 -2.631,9.426 -5.835,12.889l3.987,-0l0,5.526l-3.915,0c3.16,3.458 5.261,7.898 5.763,12.806l-11.924,-0c-0.496,-4.875 -2.52,-9.304 -5.592,-12.806l-2.978,0c3.16,3.458 5.261,7.898 5.769,12.806l-11.929,-0c-0.491,-4.875 -2.521,-9.304 -5.587,-12.806l-2.614,0c-0.259,19.567 -3.232,38.473 -8.543,56.375c5.107,-2.372 9.784,-5.488 13.915,-9.276c0.943,-0.866 2.217,-1.313 3.485,-1.225c1.269,0.088 2.416,0.673 3.221,1.655c8.344,10.092 12.938,22.865 12.938,35.963c0,25.463 -17.091,47.805 -41.616,54.511l35.682,0c0.458,0 0.827,0.37 0.827,0.827c0,0.458 -0.369,0.828 -0.827,0.828l-45.714,-0c-1.605,0.138 -3.227,0.215 -4.87,0.215c-1.473,-0 -3.022,-0.072 -4.738,-0.215l-67.768,-0l1.329,2.492l-1.456,0.778l-1.749,-3.27l-0.882,-1.655l-6.226,-11.659c-1.247,-0.821 -2.515,-1.616 -3.806,-2.382l-0.011,-0.011c-0.408,-0.243 -0.838,-0.425 -1.279,-0.541l0.38,-1.605c0.601,0.155 1.186,0.398 1.743,0.728l0.011,0c0.463,0.282 0.921,0.557 1.373,0.839c0.965,0.59 1.914,1.202 2.851,1.825c0.811,0.535 1.622,1.087 2.416,1.644l0.006,-0l4.351,3.154c0.193,0.078 0.358,0.133 0.491,0.166c-0.033,-0.105 -0.077,-0.221 -0.138,-0.353c-0.16,-0.364 -0.397,-0.8 -0.662,-1.252c-0.529,-0.899 -1.158,-1.837 -1.533,-2.504c-0.061,-0.099 -0.188,-0.314 -0.325,-0.546c-0.138,-0.237 -0.293,-0.496 -0.42,-0.728c-0.082,-0.16 -0.154,-0.292 -0.215,-0.441c-0.264,-0.656 -0.513,-1.307 -0.761,-1.969c-1.698,-4.544 -3.077,-9.238 -4.114,-14.036c-0.298,-1.373 -0.568,-2.752 -0.811,-4.142c-0.016,-0.11 -0.038,-0.226 -0.055,-0.347c0,-0 0,-0.011 -0.005,-0.011c-0.1,-0.579 -0.193,-1.158 -0.276,-1.737c-0.452,-2.973 -0.772,-5.973 -0.954,-9.001c-0.094,-1.472 -0.122,-2.868 -0.122,-4.219c0,-2.846 0.133,-5.509 0.133,-8.372c-0,-1.219 -0.022,-2.482 -0.094,-3.805c-0.072,-1.478 -0.11,-3.067 -0.176,-4.572c-0.067,-1.506 -0.155,-2.934 -0.32,-4.059c-0.111,-0.75 -0.265,-1.368 -0.43,-1.754c-0.039,-0.094 -0.078,-0.171 -0.116,-0.237c-0.072,0.105 -0.155,0.237 -0.237,0.402c-0.287,0.541 -0.596,1.352 -0.872,2.212c-0.551,1.715 -0.993,3.64 -1.119,4.291c-0.265,1.296 -0.508,2.553 -0.75,3.761l-1.616,-0.314c0.237,-1.214 0.479,-2.471 0.744,-3.773c0.177,-0.877 0.8,-3.618 1.594,-5.691c0.265,-0.695 0.541,-1.313 0.877,-1.804c0.193,-0.281 0.397,-0.535 0.728,-0.728c0.176,-0.104 0.403,-0.182 0.656,-0.182l0.033,0c0.171,0 0.342,0.044 0.486,0.116c0.402,0.188 0.672,0.497 0.877,0.833c0.204,0.336 0.347,0.711 0.468,1.131c0.237,0.832 0.381,1.847 0.48,2.972c0.199,2.245 0.226,4.953 0.348,7.313c0.066,1.357 0.093,2.647 0.093,3.888c0,2.918 -0.132,5.581 -0.132,8.372c-0,1.329 0.028,2.686 0.116,4.114c0.22,3.574 0.623,7.098 1.213,10.573l0,0.016c0.022,0.099 0.039,0.21 0.061,0.331c0.237,1.362 0.502,2.725 0.794,4.076c1.02,4.715 2.377,9.331 4.048,13.804l0.005,-0c0.238,0.651 0.486,1.296 0.745,1.93c0.259,0.634 0.061,0.144 0.132,0.27c0.072,0.127 0.16,0.282 0.249,0.442c0.187,0.314 0.375,0.623 0.479,0.81c0.21,0.37 0.557,0.916 0.932,1.511c0.37,0.596 0.767,1.247 1.087,1.865c0.209,0.413 0.391,0.81 0.507,1.207c0.061,0.226 0.111,0.453 0.111,0.701c-0,0.226 -0.039,0.485 -0.188,0.739c-0.149,0.253 -0.419,0.458 -0.684,0.54c-0.176,0.055 -0.353,0.077 -0.518,0.077c-0.475,-0.005 -0.943,-0.143 -1.55,-0.386l-0.083,-0.038l-0.011,-0l-0.088,-0.061l-4.191,-3.033l5.145,9.64l78.181,0l0,-0.138c27.918,-2.437 49.796,-26.318 49.796,-54.373c-0,-12.651 -4.44,-24.988 -12.497,-34.733c-0.463,-0.568 -1.131,-0.91 -1.864,-0.96c-0.756,-0.05 -1.484,0.204 -2.046,0.722c-10.451,9.586 -24.007,14.864 -38.181,14.864l-0.64,-0l-83.68,-0.105l-28.97,-0.033c0.088,0.182 0.176,0.358 0.27,0.535l-1.456,0.777c-0.259,-0.474 -0.496,-0.965 -0.728,-1.45c-0.259,-0.546 -0.496,-1.103 -0.728,-1.66c-0.954,-2.339 -1.638,-4.782 -2.041,-7.297l-0.275,-1.737c-0.381,-2.41 -0.083,-4.991 0.888,-7.671c0.297,-0.833 0.22,-1.749 -0.221,-2.51c-0.403,-0.695 -1.048,-1.191 -1.82,-1.395c-0.772,-0.204 -1.583,-0.094 -2.272,0.309l-6.613,3.844l-6.645,3.805c-0.695,0.403 -1.192,1.043 -1.401,1.815c-0.21,0.772 -0.105,1.582 0.298,2.272c0.441,0.772 1.196,1.296 2.073,1.45c0.48,0.083 0.954,0.199 1.423,0.348l-0.463,1.583c-0.414,-0.127 -0.827,-0.227 -1.246,-0.298c-1.357,-0.237 -2.532,-1.059 -3.221,-2.256c-0.623,-1.075 -0.789,-2.327 -0.464,-3.53c0.326,-1.202 1.098,-2.2 2.179,-2.818l6.64,-3.805l6.607,-3.844c1.076,-0.623 2.327,-0.794 3.53,-0.474c1.202,0.319 2.206,1.086 2.829,2.167c0.684,1.186 0.811,2.603 0.342,3.894c-0.871,2.421 -1.142,4.726 -0.805,6.855l0.275,1.737c0.403,2.565 1.126,5.046 2.14,7.423l0.055,0l43.211,0.05c11.416,-18.679 18.006,-40.629 18.006,-64.129c0,-34.017 -13.787,-64.807 -36.079,-87.105c-22.297,-22.297 -53.088,-36.079 -87.105,-36.079c-34.017,-0 -64.813,13.782 -87.11,36.079c-22.292,22.298 -36.079,53.088 -36.079,87.105c-0,23.5 6.59,45.45 18.006,64.129l0.083,0l43.183,-0.05c0.888,-2.079 1.55,-4.241 1.98,-6.463l1.616,0.314c-0.624,3.282 -1.732,6.442 -3.315,9.392l-18.768,35.159c1.5,1.34 3.034,2.647 4.605,3.915l19.899,-36.846l1.45,0.783l-20.036,37.111c15.073,11.863 33.063,20.389 53.016,24.294c2.101,0.414 4.225,0.772 6.37,1.081c6.006,0.86 11.968,1.279 17.863,1.279c17.042,0 33.482,-3.496 48.527,-9.888c3.773,-1.599 7.462,-3.386 11.041,-5.344c0.006,-0 0.011,-0 0.017,-0.006c0.502,-0.27 0.998,-0.551 1.495,-0.827l0.799,1.44c-0.502,0.286 -1.004,0.568 -1.511,0.843c0,0.006 -0.011,0.006 -0.016,0.006c-3.629,1.985 -7.358,3.789 -11.174,5.41c-15.249,6.48 -31.91,10.021 -49.178,10.021c-5.972,-0 -12.017,-0.425 -18.095,-1.296c-2.172,-0.309 -4.323,-0.673 -6.458,-1.092c-20.113,-3.938 -38.263,-12.514 -53.496,-24.443c-0.441,-0.347 -0.877,-0.689 -1.312,-1.042c-1.572,-1.263 -3.105,-2.565 -4.611,-3.894c-0.424,-0.38 -0.849,-0.755 -1.268,-1.136c-4.517,-4.114 -8.725,-8.543 -12.597,-13.252c-0.678,-0.828 -1.66,-1.258 -2.652,-1.258c-0.717,0 -1.429,0.221 -2.041,0.689c-1.704,1.28 -3.364,2.62 -4.98,4.01l-1.087,-1.235c1.644,-1.418 3.332,-2.786 5.063,-4.093c0.91,-0.689 1.986,-1.025 3.045,-1.025c1.467,-0 2.928,0.645 3.932,1.864c3.728,4.533 7.782,8.807 12.122,12.789l18.58,-34.794c0.094,-0.177 0.177,-0.359 0.265,-0.535l-113.395,0.138c-14.168,-0 -27.724,-5.278 -38.175,-14.864c-0.563,-0.518 -1.291,-0.777 -2.046,-0.722c-0.739,0.05 -1.401,0.392 -1.87,0.96c-8.057,9.745 -12.492,22.082 -12.492,34.733c0,28.055 21.873,51.936 49.801,54.373l0,0.138l78.281,0l1.456,0.778l-0.882,1.654l-1.456,-0.777l-67.874,-0c-1.715,0.143 -3.265,0.215 -4.743,0.215c-1.638,-0 -3.259,-0.077 -4.864,-0.215l-48.373,-0c-0.458,-0 -0.827,-0.37 -0.827,-0.828c-0,-0.457 0.369,-0.827 0.827,-0.827l38.341,0c-24.531,-6.706 -41.617,-29.048 -41.617,-54.511c0,-13.098 4.594,-25.871 12.933,-35.963c0.811,-0.982 1.958,-1.567 3.226,-1.655c1.269,-0.094 2.537,0.359 3.486,1.225c4.164,3.822 8.885,6.96 14.036,9.337c-5.322,-17.919 -8.301,-36.847 -8.56,-56.436l-17.725,0c2.763,3.508 2.454,9.078 2.454,9.078c-7.638,-4.307 -34.651,-11.841 -34.651,-11.841c-0,-0 27.013,-7.534 34.651,-11.835c0,-0 0.309,5.57 -2.454,9.072l17.72,-0c1.483,-113.401 93.866,-204.868 207.619,-204.873c113.748,0.005 206.136,91.472 207.614,204.873l2.537,-0c3.111,-3.508 5.162,-7.969 5.659,-12.889l11.929,0c-0.513,4.947 -2.636,9.426 -5.841,12.889l2.984,-0c3.105,-3.508 5.162,-7.969 5.658,-12.889Zm-34.127,75.948c5.846,-19.071 9.012,-39.311 9.012,-60.296c-0,-56.728 -22.992,-108.078 -60.169,-145.261c-37.177,-37.177 -88.528,-60.164 -145.256,-60.169c-56.733,0.005 -108.084,22.992 -145.261,60.169c-37.177,37.183 -60.169,88.533 -60.169,145.261c0,21.007 3.171,41.264 9.028,60.346l0.1,0.038c6.414,2.543 13.17,3.833 20.08,3.833l0.64,0l23.003,-0.027c-8.317,-19.744 -12.927,-41.424 -12.927,-64.19c-0,-91.406 74.1,-165.501 165.506,-165.501c91.407,-0 165.501,74.095 165.501,165.501c0,22.761 -4.61,44.446 -12.927,64.19l23.533,0.027c6.954,0 13.754,-1.307 20.207,-3.882l0.099,-0.039Zm-46.221,3.888c8.427,-19.7 13.103,-41.39 13.103,-64.184c0,-45.097 -18.276,-85.913 -47.826,-115.469c-11.085,-11.085 -23.753,-20.582 -37.635,-28.121c-23.02,-12.502 -49.382,-19.633 -77.409,-19.705l-0.425,-0c-26.781,-0 -52.045,6.441 -74.348,17.858c-15.255,7.814 -29.12,17.957 -41.126,29.968c-29.549,29.556 -47.826,70.372 -47.826,115.469c-0,22.799 4.676,44.49 13.109,64.195l0.055,-0.011l19.722,-0.022l1.847,-35.71l-21.872,-38.087l20.262,-31.243l0.099,-43.921l33.173,-16.926l22.039,-37.988l0.22,0.011l36.973,1.919l38.081,-21.878l31.249,20.268l43.916,0.094l16.931,33.173l37.982,22.044l-1.924,37.193l21.878,38.081l-20.268,31.249l-0.094,41.721l0.138,0l19.976,0.022Zm-10.104,-73.405l-14.692,-36.802l0.017,-0l-4.093,-33.239l-31.127,-24.531l0.011,-0.011l-20.163,-26.737l-39.217,-5.681l-0,-0.011l-30.824,-13.076l-36.807,14.692l-0,-0.016l-33.239,4.092l-24.526,31.121l-0.011,0l-26.742,20.158l-5.681,39.217l-0.011,0l-13.076,30.824l14.692,36.807l-0.016,0l4.092,33.239l4.213,3.321l9.343,-0.011c-6.773,-11.356 -11.802,-23.87 -14.72,-37.177c-1.903,-8.687 -2.906,-17.704 -2.906,-26.958c-0,-69.252 56.137,-125.39 125.395,-125.39c69.258,-0 125.391,56.138 125.391,125.39c-0,7.324 -0.629,14.499 -1.837,21.481c-2.653,15.354 -8.096,29.748 -15.79,42.654l9.15,0.011l4.406,-3.321l5.626,-38.853l0.055,-0.364l0.011,-0l13.076,-30.829Z" style="fill-rule:nonzero;"/><path d="M474.812,401.691c0.453,0 0.828,0.37 0.828,0.827c-0,0.458 -0.375,0.828 -0.828,0.828l-105.045,-0l1.743,3.265l87.882,-0c0.458,-0 0.828,0.375 0.828,0.827c-0,0.452 -0.37,0.827 -0.828,0.827l-86.994,0l1.743,3.27l-0,1.655l-16.358,-0c-0.458,-0 -0.827,-0.37 -0.827,-0.827c-0,-0.458 0.369,-0.828 0.827,-0.828l6.199,0l-7.081,-13.114l-24.768,-0c-2.786,2.156 -5.664,4.202 -8.637,6.099l-0.028,0.017c0,-0 -0.011,0.005 -0.011,0.011c-0.888,0.562 -1.781,1.108 -2.68,1.649c0.132,0.287 0.309,0.601 0.535,0.937c0.375,0.563 0.866,1.175 1.417,1.804c1.098,1.263 2.41,2.581 3.491,3.8c0.723,0.816 1.341,1.577 1.743,2.322c0.171,0.319 0.254,0.667 0.254,0.998c-0.006,0.568 -0.232,1.092 -0.607,1.478c-0.369,0.391 -0.915,0.651 -1.522,0.645c-0.055,0 -0.105,0 -0.16,-0.005c-5.355,-0.403 -13.137,-1.258 -19.468,-1.258c-1.952,0 -3.767,0.083 -5.311,0.281c-2.631,1.137 -5.3,2.179 -8.013,3.122c-6.701,2.327 -13.656,4.065 -20.787,5.145c-5.807,0.894 -11.73,1.352 -17.731,1.352c-5.57,-0 -11.206,-0.397 -16.881,-1.208c-1.627,-0.232 -3.237,-0.496 -4.837,-0.8l0.293,-1.621c1.582,0.292 3.176,0.551 4.781,0.783c5.592,0.8 11.151,1.191 16.644,1.191c5.918,0 11.759,-0.452 17.483,-1.329c7.032,-1.07 13.882,-2.78 20.494,-5.079c2.708,-0.943 5.383,-1.98 8.008,-3.122l0.105,-0.038l0.011,-0l0.116,-0.023c1.671,-0.22 3.584,-0.308 5.625,-0.308c6.469,-0 14.278,0.865 19.589,1.263l0.039,-0c0.143,-0 0.243,-0.05 0.336,-0.138c0.089,-0.094 0.138,-0.215 0.138,-0.331c0,-0.072 -0.016,-0.138 -0.06,-0.215c-0.204,-0.392 -0.568,-0.894 -1.032,-1.44c-0.457,-0.551 -1.014,-1.152 -1.599,-1.781c-1.175,-1.258 -2.482,-2.603 -3.469,-3.916c-0.656,-0.877 -1.186,-1.731 -1.428,-2.625c-0.045,-0.176 -0.028,-0.364 0.044,-0.529l0.022,-0.05c0.066,-0.165 0.182,-0.298 0.336,-0.386c1.076,-0.64 2.14,-1.291 3.188,-1.963c0.011,-0.006 0.016,-0.011 0.027,-0.017l0.023,-0.017c2.321,-1.483 4.583,-3.055 6.794,-4.698c0.728,-0.541 1.451,-1.092 2.167,-1.655c5.201,-4.07 10.06,-8.581 14.5,-13.506c0.187,-0.21 0.38,-0.425 0.568,-0.634c0.353,-0.398 0.75,-0.745 1.169,-1.043c0.458,-0.32 0.948,-0.579 1.461,-0.777c0.392,-0.149 0.794,-0.271 1.203,-0.348c0.413,-0.077 0.827,-0.116 1.246,-0.116c0.574,0 1.153,0.072 1.715,0.226l-0.38,1.605c-0.436,-0.115 -0.888,-0.176 -1.335,-0.176c-0.563,-0 -1.125,0.094 -1.66,0.276l7.826,14.493l0.893,1.655l6.993,12.949l6.403,0l-1.66,-3.105l-0.882,-1.654l-1.743,-3.265l-0.882,-1.655l1.456,-0.778l0.419,0.778l105.927,0Zm-118.805,-4.925l-7.401,-13.71c-0.259,0.198 -0.502,0.419 -0.722,0.667c-0.194,0.215 -0.387,0.43 -0.585,0.645c-4.037,4.479 -8.416,8.615 -13.082,12.398l21.79,0Z" style="fill-rule:nonzero;"/><path d="M460.115,263.087c-0,0.474 -0.144,0.965 -0.441,1.401l-0.006,-0c-1.947,2.834 -3.028,6.232 -3.028,9.739c0,1.076 0.1,2.162 0.315,3.254c0.127,0.623 0.187,1.247 0.187,1.87c0,2.812 -1.268,5.487 -3.43,7.269l-0.701,-0.85c1.909,-1.572 3.028,-3.943 3.028,-6.419c0,-0.546 -0.055,-1.103 -0.165,-1.649c-0.226,-1.164 -0.337,-2.328 -0.337,-3.475c0,-3.733 1.147,-7.346 3.227,-10.363c0.176,-0.259 0.248,-0.518 0.248,-0.777c-0,-0.359 -0.155,-0.717 -0.408,-0.982c-0.254,-0.265 -0.596,-0.424 -0.971,-0.424c-0.143,-0 -0.298,0.022 -0.463,0.077l-0.022,0.011l-0.022,-0c-0.232,0.06 -0.453,0.127 -0.684,0.198c-0.21,0.072 -0.408,0.138 -0.59,0.21l-0.006,-0l-0.011,0.005c-0.8,0.304 -1.5,0.668 -2.134,1.087c-0.452,0.298 -0.866,0.618 -1.269,0.959c-0.673,0.574 -1.274,1.197 -1.858,1.854l-0.006,-0c-0.827,0.926 -1.621,1.902 -2.498,2.829c-0.866,0.904 -1.82,1.759 -2.989,2.459l-0.011,0.006c-0.006,0.005 -0.011,0.005 -0.017,0.011c-0.11,0.072 -0.22,0.138 -0.331,0.193l-0.038,0.022l-0.033,0.011c-2.201,0.783 -3.69,2.388 -4.49,4.329c-0.446,1.076 -0.673,2.256 -0.673,3.431c0,1.522 0.376,3.039 1.126,4.335l-0.48,0.275l-0.469,0.293c-0,-0 -0,-0.011 -0.011,-0.017c-0.905,-1.461 -1.423,-3.149 -1.423,-4.892c0,-0.623 0.066,-1.257 0.204,-1.88c0.21,-1.087 0.314,-2.179 0.314,-3.254c0,-3.508 -1.086,-6.905 -3.027,-9.745c-0.309,-0.442 -0.453,-0.932 -0.447,-1.401c-0,-0.673 0.276,-1.291 0.722,-1.754c0.442,-0.458 1.065,-0.761 1.765,-0.761c0.287,-0 0.585,0.055 0.877,0.16c0,-0 0.006,0.005 0.011,0.005c0.039,0.017 0.083,0.034 0.122,0.045c0.027,-1.892 0.121,-3.778 0.341,-5.587c0.089,-0.739 0.199,-1.473 0.342,-2.179c0.309,-1.61 0.756,-3.11 1.385,-4.45c0.441,-0.954 0.987,-1.826 1.643,-2.587c0.651,-0.755 1.423,-1.395 2.322,-1.886l0.006,0c0.623,-0.347 1.307,-0.612 2.051,-0.794c0.006,-0 0.006,-0.006 0.011,-0.006l0.017,0c0.27,-0.077 0.546,-0.132 0.816,-0.176l0.088,-0.017l0.088,0.017c0.91,0.143 1.749,0.408 2.499,0.766c0.005,0 0.005,0.006 0.011,0.006c0.005,-0 0.005,-0 0.011,0.005c0.143,0.067 0.276,0.138 0.391,0.199c1.23,0.673 2.217,1.632 3.006,2.78c0.783,1.152 1.368,2.492 1.803,3.954c0.21,0.706 0.387,1.439 0.53,2.189c0.143,0.706 0.254,1.434 0.342,2.173c0.094,0.712 0.16,1.434 0.209,2.162c0.056,0.723 0.089,1.44 0.111,2.162c0.016,0.403 0.016,0.8 0.022,1.202c0.016,-0.005 0.027,-0.011 0.044,-0.011c0.259,-0.082 0.518,-0.127 0.772,-0.127c0.7,0 1.324,0.304 1.765,0.762c0.441,0.463 0.717,1.081 0.717,1.748Zm-4.396,-2.03c0,-0.419 -0.011,-0.832 -0.022,-1.246l-2.024,-0l0,1.583l1.186,-0c0.187,-0.083 0.38,-0.16 0.579,-0.237c0,-0 0,-0.006 0.011,-0.006c0.088,-0.033 0.182,-0.061 0.27,-0.094Zm-2.046,-1.798l2.008,0c-0.017,-0.535 -0.044,-1.064 -0.083,-1.588l-1.925,0l0,1.588Zm0,-2.139l1.886,-0c-0.044,-0.535 -0.093,-1.065 -0.154,-1.583l-1.732,-0l0,1.583Zm0,-2.135l1.66,0c-0.071,-0.54 -0.154,-1.07 -0.253,-1.583l-1.407,0l0,1.583Zm0,-2.134l1.296,-0c-0.116,-0.546 -0.242,-1.081 -0.391,-1.588l-0.905,-0l0,1.588Zm0,-2.14l0.728,0c-0.182,-0.557 -0.38,-1.086 -0.606,-1.583l-0.122,0l0,1.583Zm0,11.278c0,0 0.061,-0.027 0.088,-0.044l-0.088,0l0,0.044Zm-0.551,0.342l-0,-0.386l-2.686,0l-0,1.589l1.119,-0c0.056,-0.05 0.105,-0.1 0.16,-0.144c0.431,-0.364 0.883,-0.717 1.379,-1.042c0.011,-0.006 0.022,-0.011 0.028,-0.017Zm-0,-0.937l-0,-1.583l-2.686,-0l-0,1.583l2.686,-0Zm-0,-2.135l-0,-1.588l-2.686,0l-0,1.588l2.686,0Zm-0,-2.139l-0,-1.583l-2.686,-0l-0,1.583l2.686,-0Zm-0,-2.135l-0,-1.583l-2.686,0l-0,1.583l2.686,0Zm-0,-2.134l-0,-1.588l-2.686,-0l-0,1.588l2.686,-0Zm-0,-2.14l-0,-1.583l-2.686,0l-0,1.583l2.686,0Zm-0,-2.134l-0,-0.695c-0.078,-0.127 -0.155,-0.265 -0.237,-0.386c-0.122,-0.177 -0.254,-0.342 -0.387,-0.508l-2.062,0l-0,1.589l2.686,-0Zm-2.686,-2.14l1.583,-0c-0.469,-0.496 -0.993,-0.921 -1.583,-1.269l-0,1.269Zm0.524,17.648l-0.524,0l-0,0.524c0.171,-0.176 0.342,-0.353 0.524,-0.524Zm-1.076,1.114l0,-1.114l-2.586,0l-0,2.945c0.022,0.033 0.049,0.061 0.071,0.088c0.127,0.171 0.249,0.342 0.364,0.513c0.673,-0.739 1.324,-1.511 2.019,-2.283c0.05,-0.05 0.094,-0.099 0.138,-0.149l-0.006,0Zm0,-1.665l0,-1.589l-2.586,0l-0,1.589l2.586,-0Zm0,-2.14l0,-1.583l-2.586,-0l-0,1.583l2.586,-0Zm0,-2.135l0,-1.588l-2.586,0l-0,1.588l2.586,0Zm0,-2.139l0,-1.583l-2.586,-0l-0,1.583l2.586,-0Zm0,-2.135l0,-1.583l-2.586,0l-0,1.583l2.586,0Zm0,-2.134l0,-1.588l-2.586,-0l-0,1.588l2.586,-0Zm0,-2.14l0,-1.583l-2.586,0l-0,1.583l2.586,0Zm0,-2.134l0,-1.589l-2.586,0l-0,1.589l2.586,-0Zm0,-2.14l0,-1.566c0,-0 -0.027,-0.011 -0.038,-0.017l-2.548,0l-0,1.583l2.586,-0Zm-2.487,-2.134l0.8,-0c-0.133,-0.028 -0.265,-0.056 -0.403,-0.083c-0.138,0.027 -0.27,0.055 -0.397,0.083Zm-0.651,22.032l0,-2.25l-2.233,0c0.816,0.689 1.56,1.439 2.233,2.25Zm0,-2.801l0,-1.589l-2.686,0l0,1.589l2.686,-0Zm0,-2.14l0,-1.583l-2.686,-0l0,1.583l2.686,-0Zm0,-2.135l0,-1.588l-2.686,0l0,1.588l2.686,0Zm0,-2.139l0,-1.583l-2.686,-0l0,1.583l2.686,-0Zm0,-2.135l0,-1.583l-2.686,0l0,1.583l2.686,0Zm0,-2.134l0,-1.588l-2.686,-0l0,1.588l2.686,-0Zm0,-2.14l0,-1.583l-2.686,0l0,1.583l2.686,0Zm0,-2.134l0,-1.589l-2.686,0l0,1.589l2.686,-0Zm0,-2.14l0,-1.583l-0.965,0c-0.143,0.066 -0.298,0.127 -0.436,0.204l-0.005,0c-0.463,0.254 -0.888,0.563 -1.28,0.905l0,0.474l2.686,-0Zm0.21,22.027c-0.155,-0.226 -0.303,-0.458 -0.463,-0.678l-0.006,-0c-0.866,-1.175 -1.886,-2.245 -3.044,-3.166l-0.011,0c-0.144,-0.127 -0.298,-0.243 -0.458,-0.369c-0.761,-0.569 -1.572,-1.076 -2.438,-1.506l-0.011,-0c-0.386,-0.21 -0.788,-0.397 -1.196,-0.568l-0.006,-0c-0.088,-0.039 -0.149,-0.066 -0.199,-0.083l-0.011,0l-0.011,-0.011c-0.27,-0.11 -0.546,-0.209 -0.827,-0.309l-0.011,0c-0.176,-0.071 -0.342,-0.099 -0.502,-0.099c-0.375,-0 -0.717,0.165 -0.976,0.43c-0.254,0.265 -0.414,0.623 -0.408,0.982c0,0.254 0.072,0.513 0.248,0.777c2.052,3.001 3.199,6.58 3.215,10.292c0.977,-1.567 2.433,-2.852 4.368,-3.558c0.089,-0.044 0.177,-0.093 0.254,-0.143l0.011,-0.011l0.011,-0c0.932,-0.557 1.721,-1.235 2.465,-1.98l0.006,0Zm-3.447,-5.184l-0,-1.335l-2.145,0c0.75,0.397 1.467,0.844 2.145,1.335Zm-0,-1.886l-0,-1.583l-2.449,-0l0,1.583l2.449,-0Zm-0,-2.135l-0,-1.588l-2.449,0l0,1.588l2.449,0Zm-0,-2.139l-0,-1.583l-2.449,-0l0,1.583l2.449,-0Zm-0,-2.135l-0,-1.583l-2.449,0l0,1.583l2.449,0Zm-0,-2.134l-0,-1.588l-2.449,-0l0,1.588l2.449,-0Zm-0,-2.14l-0,-1.583l-1.71,0c-0.231,0.497 -0.43,1.026 -0.612,1.583l2.322,0Zm-0,-2.134l-0,-1.589l-0.419,0c-0.381,0.48 -0.717,1.01 -1.02,1.589l1.439,-0Zm-3,12.817l-0,-1.583l-0.612,-0c-0.017,0.463 -0.022,0.932 -0.028,1.401c0.138,0.055 0.276,0.116 0.414,0.182l0.226,-0Zm-0,-2.135l-0,-1.588l-0.513,0c-0.033,0.524 -0.061,1.053 -0.083,1.588l0.596,0Zm-0,-2.139l-0,-1.583l-0.326,-0c-0.055,0.518 -0.11,1.048 -0.149,1.583l0.475,-0Zm-0,-2.135l-0,-1.583c-0.099,0.513 -0.182,1.043 -0.254,1.583l0.254,0Z" style="fill-rule:nonzero;"/><path d="M453.337,286.211l0.364,0.414c-0,0 -0.011,0.011 -0.011,0.017c-0.215,0.182 -0.436,0.353 -0.662,0.518c0.028,0.331 0.05,0.667 0.05,1.009c-0,1.087 -0.16,2.212 -0.557,3.216c-0.392,1.003 -1.043,1.902 -2.013,2.459c-0.646,0.37 -1.423,0.574 -2.317,0.574l-0.149,-0c-0.849,-0 -1.599,-0.193 -2.233,-0.541c-0.634,-0.342 -1.147,-0.832 -1.539,-1.406c-0.783,-1.147 -1.108,-2.603 -1.108,-4.026c-0,-0.27 0.016,-0.546 0.038,-0.811c-0.083,-0.049 -0.165,-0.088 -0.248,-0.138l-0.017,0l-0.011,-0.011l-0.011,0l-0.127,-0.082c-1.307,-0.75 -2.327,-1.798 -3.044,-3.006l0.949,-0.563c0.628,1.059 1.511,1.969 2.658,2.62l0.011,0l0.11,0.072c0.182,0.105 0.359,0.193 0.541,0.27l0.408,0.177l-0.088,0.435c-0.044,0.348 -0.066,0.695 -0.066,1.043c-0,0.937 0.165,1.88 0.512,2.669c0.348,0.788 0.861,1.417 1.556,1.798c0.468,0.253 1.025,0.402 1.709,0.402l0.149,0c0.728,0 1.302,-0.16 1.771,-0.43c0.468,-0.27 0.843,-0.651 1.147,-1.125c0.595,-0.948 0.866,-2.283 0.866,-3.59c-0,-0.408 -0.028,-0.816 -0.072,-1.202l-0.061,-0.375l0.309,-0.199c0.132,-0.083 0.265,-0.171 0.392,-0.265c0.126,-0.088 0.242,-0.182 0.364,-0.276l0.082,-0.066l0.353,0.425l-0.005,-0.006Z" style="fill-rule:nonzero;"/><path d="M443.978,411.535c0.457,0 0.827,0.37 0.827,0.828c-0,0.457 -0.37,0.827 -0.827,0.827l-44.788,-0c-36.388,31.43 -83.807,50.446 -135.654,50.446c-51.847,0 -99.271,-19.016 -135.659,-50.446l-47.556,-0c-0.458,-0 -0.827,-0.37 -0.827,-0.827c-0,-0.458 0.369,-0.828 0.827,-0.828l72.605,0l1.749,-3.27l-89.769,0c-0.457,0 -0.827,-0.369 -0.827,-0.827c-0,-0.458 0.37,-0.827 0.827,-0.827l90.651,-0l1.743,-3.265l-107.808,-0c-0.458,-0 -0.828,-0.37 -0.828,-0.828c0,-0.457 0.37,-0.827 0.828,-0.827l108.69,0l1.749,-3.27l1.456,0.777l-4.539,8.504l-0.127,0.243l-1.831,3.425l6.403,0l13.037,-24.145c-1.345,-1.61 -2.652,-3.248 -3.921,-4.925l-8.14,15.244l-1.456,-0.778l8.51,-15.938c-0.96,-1.307 -1.903,-2.631 -2.807,-3.977c-2.311,-3.43 -4.457,-6.982 -6.414,-10.633c-1.958,-3.656 -3.734,-7.412 -5.317,-11.261c-1.583,-3.85 0,-0.011 -0.005,-0.017l0.005,0c-0.27,-0.629 -0.386,-1.279 -0.386,-1.897c-0,-0.822 0.193,-1.6 0.502,-2.261c0.298,-0.64 0.689,-1.175 1.186,-1.561c0.535,-0.48 1.07,-0.954 1.615,-1.417l1.087,1.235c-0.541,0.469 -1.07,0.937 -1.599,1.412l-0.067,0.055c-0.22,0.16 -0.512,0.507 -0.722,0.965c-0.21,0.458 -0.348,1.009 -0.348,1.572c0,0.424 0.078,0.849 0.254,1.257l0,0.011c3.127,7.6 7.015,14.841 11.576,21.614c0.75,1.108 1.522,2.2 2.306,3.287c0.358,0.491 0.722,0.981 1.086,1.472c1.257,1.688 2.565,3.342 3.91,4.958c0.381,0.458 0.756,0.921 1.142,1.368c2.923,3.419 6.039,6.679 9.337,9.756c0.595,0.557 1.197,1.109 1.803,1.655c2.681,2.399 5.466,4.693 8.361,6.855l0.039,0.033l0.005,-0l0.028,0.022c0.524,0.491 0.976,0.816 1.412,1.158c0.435,0.342 0.876,0.728 1.229,1.291c0.238,0.369 0.436,0.81 0.596,1.334c0.21,0.706 0.364,1.578 0.491,2.741c0.369,3.491 0.871,6.922 2.018,10.269c1.148,3.354 2.94,6.629 5.946,9.861c0.093,0.094 0.187,0.127 0.297,0.133c0.078,-0 0.16,-0.028 0.221,-0.067c0.066,-0.044 0.116,-0.099 0.154,-0.193c1.335,-3.435 2.852,-6.772 4.528,-9.998c0.855,-1.644 2.543,-2.598 4.302,-2.598c0.502,0 1.015,0.077 1.511,0.237c2.234,0.723 4.495,1.379 6.795,1.964c2.559,0.656 5.156,1.235 7.793,1.726l-0.293,1.621c-2.675,-0.491 -5.311,-1.075 -7.914,-1.743c-2.327,-0.595 -4.627,-1.263 -6.888,-1.991c-0.331,-0.11 -0.668,-0.159 -1.004,-0.159c-1.169,-0 -2.272,0.628 -2.835,1.704c-1.649,3.176 -3.138,6.458 -4.45,9.833c-0.16,0.414 -0.447,0.756 -0.789,0.976c-0.336,0.226 -0.733,0.342 -1.131,0.342c-0.54,0 -1.103,-0.22 -1.511,-0.662c-3.165,-3.397 -5.09,-6.91 -6.298,-10.451c-1.213,-3.54 -1.721,-7.098 -2.096,-10.627c-0.132,-1.241 -0.303,-2.074 -0.496,-2.631c-0.198,-0.568 -0.397,-0.855 -0.656,-1.136c-0.177,-0.182 -0.397,-0.364 -0.679,-0.579c-0.364,-0.281 -0.821,-0.623 -1.345,-1.109c-3.414,-2.553 -6.684,-5.277 -9.8,-8.156l-14.841,-0l-7.082,13.114l3.431,0c0.457,0 0.827,0.37 0.827,0.828c-0,0.457 -0.37,0.827 -0.827,0.827l-35.418,-0c35.837,30.509 81.65,48.24 132.438,48.24c50.788,0 96.508,-18.139 132.246,-48.24l-21.641,-0l-0,-1.655l69.837,0Zm-272.918,-14.769l12.194,0c-2.719,-2.614 -5.306,-5.355 -7.765,-8.201l-4.429,8.201Z" style="fill-rule:nonzero;"/><path d="M406.354,277.889c1.837,1.059 2.465,3.403 1.406,5.234c-1.058,1.837 -3.402,2.465 -5.239,1.406c-1.831,-1.059 -2.46,-3.402 -1.401,-5.239c1.059,-1.831 3.403,-2.46 5.234,-1.401Z" style="fill-rule:nonzero;"/><circle cx="402.775" cy="206.144" r="3.833"/><path d="M367.12,140.052c1.059,1.831 0.43,4.174 -1.401,5.233c-1.831,1.059 -4.18,0.431 -5.239,-1.4c-1.059,-1.837 -0.43,-4.181 1.406,-5.24c1.831,-1.059 4.175,-0.43 5.234,1.407Z" style="fill-rule:nonzero;"/><path d="M355.825,361.089c0,0.039 -0.005,0.072 -0.011,0.111c-0.733,3.617 -1.71,7.142 -2.912,10.555c-0.248,0.701 -0.502,1.39 -0.766,2.08c-0.475,1.229 -0.971,2.443 -1.5,3.645c-0.089,0.204 -0.293,0.325 -0.508,0.325c-0.072,0 -0.149,-0.011 -0.22,-0.044c-0.276,-0.127 -0.403,-0.452 -0.282,-0.728c0.651,-1.472 1.258,-2.972 1.815,-4.494c0.259,-0.701 0.507,-1.407 0.75,-2.113c1.031,-3.066 1.891,-6.221 2.542,-9.441c0.061,-0.298 0.348,-0.491 0.645,-0.431c0.265,0.05 0.447,0.282 0.447,0.535Z" style="fill-rule:nonzero;"/><path d="M350.691,335.191l1.616,0.314c-1.032,5.256 -1.92,9.767 -3.304,14.096c-0.893,2.808 -2.007,5.527 -3.496,8.306c-0.304,0.568 -0.624,1.142 -0.96,1.715c-1.059,1.798 -2.283,3.635 -3.723,5.537c-0.116,0.155 -0.231,0.309 -0.353,0.464c-0.198,0.259 -0.397,0.518 -0.595,0.772c-0.056,0.066 -0.111,0.132 -0.16,0.193c-1.964,2.465 -4.341,4.566 -7.021,6.215l-0.028,0.022c-1.478,0.916 -2.972,1.798 -4.489,2.648l-0.799,-1.44c1.489,-0.844 2.961,-1.715 4.417,-2.614l0.033,-0.022c2.587,-1.594 4.87,-3.629 6.74,-6.023c0.099,-0.121 0.193,-0.248 0.292,-0.369l-20.88,-38.672c-0.827,-1.527 -1.776,-2.972 -2.84,-4.334l-0.1,-0l-51.543,-0.067l-51.577,0.067c-1.059,1.362 -2.008,2.807 -2.835,4.334l-1.45,-0.783c1.544,-2.862 3.496,-5.476 5.802,-7.765l0.838,-0.833c2.085,-2.073 4.544,-3.402 7.114,-3.855c0.872,-0.154 1.627,-0.678 2.068,-1.45c0.403,-0.69 0.508,-1.5 0.298,-2.272c-0.209,-0.772 -0.706,-1.412 -1.401,-1.809l-6.64,-3.806l-6.618,-3.849c-0.689,-0.408 -1.5,-0.513 -2.272,-0.309c-0.772,0.204 -1.417,0.7 -1.82,1.395c-0.441,0.761 -0.518,1.677 -0.221,2.51c0.971,2.68 1.269,5.261 0.888,7.671l-0.275,1.737c-0.055,0.342 -0.116,0.679 -0.182,1.015l-1.616,-0.314c0.06,-0.32 0.116,-0.64 0.165,-0.96l0.27,-1.737c0.342,-2.129 0.067,-4.434 -0.805,-6.855c-0.469,-1.291 -0.342,-2.708 0.348,-3.894c0.617,-1.081 1.621,-1.848 2.823,-2.167c1.203,-0.32 2.455,-0.149 3.53,0.474l6.613,3.849l6.634,3.8c1.081,0.618 1.853,1.616 2.179,2.818c0.325,1.203 0.16,2.455 -0.464,3.53c-0.689,1.197 -1.858,2.019 -3.22,2.256c-2.229,0.386 -4.385,1.566 -6.232,3.397l-0.839,0.833c-0.358,0.358 -0.711,0.728 -1.053,1.103l49.911,-0.061l50.055,0.061c-0.342,-0.375 -0.69,-0.745 -1.048,-1.103l-0.838,-0.833c-1.501,-1.489 -3.205,-2.548 -4.986,-3.099l0.463,-1.583c2.046,0.628 3.993,1.82 5.686,3.507l0.839,0.833c0.777,0.772 1.511,1.577 2.2,2.421c0.447,0.535 0.871,1.087 1.285,1.655c0.849,1.174 1.627,2.404 2.322,3.684l20.521,38.01c1.44,-1.953 2.642,-3.822 3.668,-5.653l-18.459,-34.58l1.456,-0.777l17.94,33.592c1.181,-2.339 2.102,-4.649 2.868,-7.043c1.346,-4.197 2.223,-8.653 3.26,-13.903Z" style="fill-rule:nonzero;"/><path d="M322.073,238.545l-0.05,0.579c-1.147,12.889 -3.788,20.389 -6.182,24.691c-1.489,2.686 -2.89,4.125 -3.756,4.837c-0.22,3.182 -0.474,6.474 -0.761,9.894c-0.094,1.064 -0.998,1.902 -2.062,1.902c-0.182,0 -0.359,-0.027 -0.53,-0.071c-0.993,-0.26 -1.638,-1.192 -1.533,-2.212c0.358,-3.546 0.667,-6.954 0.938,-10.241c-1.578,-3.254 -6.277,-13.794 -8.62,-28.524l-0.1,-0.651l0.662,0.016c1.357,0.028 3.237,0.078 4.771,0.1c-1.787,-0.894 -3.359,-2.173 -4.435,-3.149l-0.154,-0.144l-0.022,-0.204c-0.121,-1.086 -0.226,-2.2 -0.314,-3.331c-0.833,-11.074 -2.471,-19.821 -4.567,-27.509c-2.096,-7.682 -4.649,-14.306 -7.302,-21.139c-1.114,-2.862 -1.566,-5.25 -1.566,-7.247c-0.006,-1.93 0.425,-3.491 1.07,-4.732c0.645,-1.246 1.511,-2.162 2.371,-2.829c1.721,-1.335 3.409,-1.677 3.458,-1.693l0.033,-0l0.033,-0.006c0.348,-0.027 0.69,-0.044 1.032,-0.044c3.728,0 7.296,1.688 10.517,4.671c3.226,2.995 6.127,7.291 8.576,12.613c4.897,10.639 7.98,25.381 7.98,41.964c0,2.686 -0.077,5.416 -0.248,8.185c-0.061,1.026 -0.127,2.018 -0.204,2.989l-0.028,0.331l-0.308,0.132c-0.618,0.265 -1.225,0.502 -1.787,0.717l3.088,0.105Zm-1.202,1.064l-3.795,-0.132c-0.204,-0.006 -0.413,-0.099 -0.535,-0.243c-0.126,-0.149 -0.187,-0.32 -0.187,-0.502c-0,-0.132 0.039,-0.281 0.127,-0.413c0.083,-0.127 0.226,-0.232 0.375,-0.282c0.794,-0.275 1.947,-0.689 3.176,-1.202c0.067,-0.855 0.127,-1.726 0.182,-2.63c0.166,-2.747 0.243,-5.455 0.243,-8.119c0,-8.57 -0.833,-16.644 -2.311,-23.891l-6.656,3.475c1.93,12.26 2.741,31.43 0.711,61.371c0.728,-0.766 1.671,-1.958 2.675,-3.761c2.261,-4.065 4.831,-11.256 5.995,-23.671Zm-9.85,28.474c2.112,-30.421 1.296,-49.679 -0.579,-61.873c-1.936,-12.569 -4.997,-17.626 -7.137,-19.661c-0.099,-0.094 -0.209,-0.132 -0.314,-0.132c-0.331,-0 -0.623,0.38 -0.381,0.728c1.738,2.525 4.407,8.013 6.205,19.275c1.963,12.309 2.89,31.513 0.447,61.294c-0.028,0.331 -0.056,0.667 -0.083,1.004c-0.259,3.072 -0.552,6.254 -0.883,9.557c-0.049,0.475 0.254,0.916 0.717,1.037c0.083,0.022 0.166,0.033 0.249,0.033c0.485,0 0.915,-0.375 0.959,-0.888c0.281,-3.336 0.53,-6.552 0.75,-9.657c0.017,-0.242 0.033,-0.479 0.05,-0.717Zm-1.412,-28.81c0.204,-14.527 -0.64,-25.182 -1.903,-32.969l-11.052,-1.186c2.002,7.539 3.568,16.115 4.374,26.836c0.077,1.048 0.176,2.074 0.286,3.083c1.385,1.247 3.574,2.918 5.736,3.513c0.154,0.045 0.303,0.149 0.397,0.276c0.088,0.132 0.127,0.281 0.127,0.414c-0,0.171 -0.055,0.336 -0.176,0.48c-0.116,0.143 -0.32,0.242 -0.519,0.242c-0.259,0.011 -0.584,0.011 -0.948,0.011c-1.44,0 -3.569,-0.049 -5.212,-0.093c2.018,12.226 5.647,21.464 7.6,25.815c0.783,-9.987 1.185,-18.745 1.29,-26.422Z" style="fill-rule:nonzero;"/><path d="M319.9,394.433c0.094,0.315 0.05,0.657 -0.127,0.938c-0.176,0.281 -0.463,0.474 -0.794,0.524l-4.561,0.722l-0.094,0.017l-0.088,-0c-0.402,-0 -0.777,-0.215 -0.982,-0.563c-0.204,-0.342 -0.215,-0.777 -0.027,-1.13l2.162,-3.999c0.198,-0.369 0.584,-0.601 1.009,-0.601l0.37,0.011l0.281,0.193l0.033,0.022c1.34,0.932 2.344,2.3 2.818,3.866Zm-1.092,0.37l0.033,-0.05c-0.402,-1.334 -1.246,-2.487 -2.388,-3.276l-0.033,-0.022l-0.022,-0.011l-0.039,0.022l-2.161,3.999l0.038,0.066l0.006,-0l4.566,-0.728Z" style="fill-rule:nonzero;"/><path d="M312.675,399.264c0.067,0.32 -0.011,0.662 -0.209,0.927c-0.199,0.265 -0.502,0.43 -0.833,0.452l-4.611,0.331l-0.082,0c-0.419,0 -0.805,-0.231 -1.004,-0.601c-0.204,-0.37 -0.182,-0.822 0.05,-1.175l0.513,-0.777l1.086,-1.655l0.893,-1.362c0.216,-0.325 0.574,-0.518 0.96,-0.518c0.265,-0 0.524,0.093 0.728,0.264l0.033,0.022c0.552,0.458 1.026,0.999 1.418,1.594c0.341,0.513 0.617,1.07 0.816,1.655c0.094,0.275 0.176,0.557 0.242,0.843Zm-1.119,0.276l0.038,-0.049c-0.077,-0.37 -0.193,-0.728 -0.336,-1.07c-0.248,-0.601 -0.585,-1.158 -1.009,-1.655c-0.226,-0.265 -0.48,-0.518 -0.756,-0.744l-0.027,-0.022l-0.028,-0.011l-0.039,0.022l-0.496,0.755l-1.086,1.655l-0.91,1.384l0.033,0.066l0.005,0l4.611,-0.331Z" style="fill-rule:nonzero;"/><path d="M305.059,403.456c0.044,0.325 -0.061,0.656 -0.276,0.899c-0.22,0.248 -0.529,0.391 -0.877,0.391l-4.621,-0.071c-0.436,-0.006 -0.827,-0.254 -1.015,-0.651c-0.193,-0.397 -0.138,-0.855 0.132,-1.202l2.813,-3.569c0.215,-0.281 0.546,-0.435 0.899,-0.435c0.303,-0 0.585,0.116 0.805,0.325l0.028,0.028c1.158,1.147 1.914,2.669 2.112,4.285Zm-1.136,0.187l0.044,-0.049c-0.171,-1.379 -0.805,-2.664 -1.798,-3.635l-0.027,-0.027l-0.028,-0.011l-0.033,0.011l-2.813,3.574l0.033,0.066l4.622,0.071Z" style="fill-rule:nonzero;"/><path d="M299.88,102.555c1.831,1.059 2.46,3.403 1.401,5.239c-1.059,1.831 -3.402,2.46 -5.233,1.401c-1.837,-1.059 -2.466,-3.403 -1.407,-5.234c1.059,-1.836 3.403,-2.465 5.239,-1.406Z" style="fill-rule:nonzero;"/><path d="M297.117,406.986c0.011,0.308 -0.104,0.612 -0.319,0.838c-0.216,0.22 -0.519,0.347 -0.828,0.347l-0.115,0l-4.6,-0.469c-0.436,-0.044 -0.8,-0.325 -0.954,-0.739c-0.155,-0.408 -0.066,-0.865 0.237,-1.185l3.105,-3.315c0.215,-0.231 0.518,-0.364 0.838,-0.364c0.32,0 0.651,0.149 0.872,0.403l0.022,0.027c1.059,1.241 1.676,2.824 1.742,4.457Zm-1.147,0.082l0.044,-0.044c-0.055,-1.39 -0.573,-2.719 -1.478,-3.778l-0.022,-0.027l-0.033,-0.017l-0.033,0.017l-3.105,3.314l0.028,0.072l4.594,0.463l0.005,0Z" style="fill-rule:nonzero;"/><path d="M287.543,405.232c0.954,1.323 1.434,2.956 1.352,4.583c-0.028,0.612 -0.53,1.092 -1.142,1.092l-0.11,-0l-0.105,-0.022l-4.539,-0.855c-0.43,-0.083 -0.772,-0.397 -0.894,-0.816c-0.115,-0.425 0.012,-0.872 0.342,-1.164l3.381,-3.033c0.21,-0.193 0.48,-0.298 0.761,-0.298c0.37,-0 0.717,0.182 0.932,0.48l0.022,0.033Zm0.254,4.528c0.066,-1.385 -0.336,-2.758 -1.147,-3.889l-0.022,-0.027l-0.039,-0.022l-0.027,0.011l-3.381,3.039l0.022,0.071l4.544,0.861l0.006,-0l0.044,-0.044Z" style="fill-rule:nonzero;"/><path d="M285.415,242.516l-0.05,0.579c-1.434,16.115 -4.738,25.479 -7.721,30.845c-1.98,3.563 -3.817,5.35 -4.859,6.166c-0.281,4.004 -0.601,8.107 -0.954,12.315c-0.099,1.192 -1.114,2.124 -2.305,2.124c-0.199,-0 -0.397,-0.028 -0.59,-0.078c-1.109,-0.292 -1.831,-1.334 -1.716,-2.476c0.442,-4.373 0.828,-8.57 1.164,-12.624c-1.831,-3.722 -7.914,-17.091 -10.909,-35.936l-0.105,-0.651l0.662,0.011c1.886,0.045 4.6,0.116 6.602,0.133c-2.449,-1.103 -4.633,-2.868 -6.083,-4.186l-0.155,-0.143l-0.022,-0.205c-0.154,-1.362 -0.287,-2.752 -0.391,-4.169c-1.043,-13.865 -3.1,-24.818 -5.725,-34.447c-2.625,-9.629 -5.818,-17.924 -9.144,-26.472c-1.384,-3.568 -1.947,-6.541 -1.947,-9.023c0,-2.482 0.524,-4.318 1.324,-5.857c0.8,-1.533 1.869,-2.669 2.934,-3.491c2.123,-1.649 4.219,-2.079 4.269,-2.09l0.033,-0l0.033,-0.011c0.424,-0.033 0.855,-0.05 1.279,-0.05c4.622,-0.005 9.056,2.085 13.065,5.808c4.021,3.728 7.644,9.094 10.705,15.74c6.116,13.291 9.971,31.722 9.977,52.464c-0,3.353 -0.105,6.767 -0.315,10.231c-0.077,1.285 -0.159,2.526 -0.253,3.739l-0.028,0.331l-0.309,0.132c-1.025,0.436 -2.018,0.816 -2.884,1.136l4.418,0.155Zm-1.208,1.059l-4.898,-0.166c-0.215,-0.005 -0.435,-0.11 -0.568,-0.259c-0.132,-0.154 -0.198,-0.342 -0.198,-0.535c-0,-0.143 0.038,-0.298 0.132,-0.436c0.094,-0.138 0.243,-0.253 0.403,-0.303c1.009,-0.347 2.493,-0.882 4.064,-1.539c0.083,-1.097 0.16,-2.222 0.232,-3.38c0.204,-3.442 0.309,-6.834 0.309,-10.165c-0,-10.754 -1.054,-20.88 -2.912,-29.968l-8.73,4.555c0.11,0.717 0.22,1.45 0.325,2.206c1.483,10.556 2.156,23.593 2.018,38.997c-0.099,10.831 -0.595,22.832 -1.494,35.969c0.011,-0.011 0.022,-0.017 0.033,-0.028c0.971,-0.937 2.316,-2.525 3.756,-5.118c2.851,-5.128 6.083,-14.184 7.528,-29.83Zm-12.486,35.947c2.658,-38.17 1.638,-62.326 -0.712,-77.608c-2.421,-15.729 -6.254,-22.06 -8.934,-24.608c-0.122,-0.116 -0.259,-0.166 -0.397,-0.166c-0.414,0 -0.772,0.48 -0.475,0.91c2.179,3.16 5.516,10.032 7.766,24.129c2.465,15.436 3.623,39.554 0.535,76.968c-0.028,0.331 -0.05,0.661 -0.078,0.992c-0.325,3.85 -0.689,7.832 -1.108,11.963c-0.061,0.595 0.32,1.147 0.899,1.296c0.105,0.027 0.204,0.044 0.309,0.044c0.612,-0 1.152,-0.469 1.207,-1.114c0.348,-4.175 0.662,-8.201 0.938,-12.084c0.017,-0.242 0.033,-0.48 0.05,-0.722Zm-1.484,-36.223c0.254,-18.145 -0.8,-31.48 -2.377,-41.242l-14.256,-1.527c2.509,9.441 4.472,20.179 5.476,33.608c0.105,1.335 0.226,2.642 0.37,3.922c1.742,1.571 4.516,3.7 7.274,4.461c0.165,0.044 0.325,0.155 0.419,0.293c0.094,0.137 0.138,0.292 0.138,0.441c0,0.176 -0.061,0.353 -0.187,0.502c-0.127,0.148 -0.342,0.253 -0.552,0.259c-0.325,0.011 -0.728,0.016 -1.18,0.016c-1.853,0 -4.605,-0.071 -6.69,-0.121c2.647,16.143 7.545,28.149 9.889,33.261c1.025,-12.833 1.544,-24.056 1.676,-33.873Z" style="fill-rule:nonzero;"/><path d="M279.513,407.25c0.833,1.401 1.17,3.067 0.955,4.683c-0.078,0.562 -0.569,0.992 -1.137,0.992l-0.165,0l-0.143,-0.044l-4.451,-1.241c-0.425,-0.121 -0.739,-0.463 -0.816,-0.893c-0.083,-0.43 0.082,-0.861 0.435,-1.125l3.629,-2.736l0.32,-0.231l0.37,-0c0.402,-0 0.777,0.215 0.981,0.562l0.022,0.033Zm-0.137,4.534c0.182,-1.379 -0.1,-2.78 -0.811,-3.971l-0.022,-0.033l-0.033,-0.022l-0.028,-0l-3.629,2.741l0.017,0.077l4.45,1.241l0.011,-0l0.045,-0.033Z" style="fill-rule:nonzero;"/><path d="M271.335,408.568c0.711,1.467 0.904,3.155 0.551,4.749c-0.121,0.529 -0.579,0.893 -1.119,0.893l-0.216,0l-0.187,-0.071l-4.324,-1.622c-0.413,-0.154 -0.695,-0.518 -0.739,-0.954c-0.044,-0.436 0.16,-0.855 0.53,-1.086l3.849,-2.416l0.292,-0.177l0.315,0c0.441,0 0.844,0.254 1.031,0.651l0.017,0.033Zm-0.524,4.506c0.303,-1.357 0.138,-2.774 -0.469,-4.026l-0.017,-0.033l-0.038,-0.027l-0.022,-0l-3.85,2.421l0.011,0.077l4.324,1.621l0.017,0l0.044,-0.033Z" style="fill-rule:nonzero;"/><path d="M263.079,409.181c0.579,1.527 0.628,3.226 0.137,4.781c-0.148,0.48 -0.59,0.8 -1.092,0.8l-0.27,-0l-0.22,-0.111l-4.175,-1.985c-0.397,-0.193 -0.646,-0.579 -0.651,-1.02c-0.011,-0.436 0.232,-0.833 0.618,-1.037l4.042,-2.074l0.259,-0.127l0.265,0c0.474,0 0.905,0.298 1.07,0.739l0.017,0.034Zm-0.916,4.445c0.419,-1.324 0.381,-2.752 -0.116,-4.048l-0.011,-0.039l-0.044,-0.028l-0.016,0l-4.043,2.08l0,0.077l4.175,1.985l0.016,0l0.039,-0.027Z" style="fill-rule:nonzero;"/><path d="M254.795,409.087c0.452,1.566 0.353,3.265 -0.27,4.77c-0.177,0.43 -0.596,0.706 -1.059,0.706l-0.32,0l-0.259,-0.154l-3.988,-2.339c-0.38,-0.22 -0.595,-0.628 -0.562,-1.07c0.033,-0.435 0.303,-0.81 0.706,-0.976l4.208,-1.72l0.215,-0.089l0.22,0c0.508,0 0.96,0.342 1.098,0.833l0.011,0.039Zm-1.291,4.351c0.535,-1.285 0.613,-2.713 0.232,-4.048l-0.011,-0.039l-0.039,-0.033l-0.016,0l-4.208,1.727l-0,0.077l3.982,2.333l0.022,-0l0.038,-0.017Z" style="fill-rule:nonzero;"/><path d="M246.555,408.276c0.309,1.605 0.072,3.287 -0.678,4.732c-0.198,0.386 -0.59,0.623 -1.02,0.623l-0.375,-0.011l-0.287,-0.204l-3.772,-2.669c-0.359,-0.254 -0.541,-0.679 -0.469,-1.114c0.066,-0.43 0.369,-0.783 0.789,-0.916l4.34,-1.351l0.171,-0.05l0.171,0c0.546,0 1.02,0.386 1.119,0.927l0.011,0.033Zm-1.66,4.225c0.64,-1.23 0.844,-2.648 0.574,-4.01l0,-0.038l-0.044,-0.034l-0.017,0l-4.334,1.352l-0.012,0.077l3.773,2.669l0.022,0.011l0.038,-0.027Z" style="fill-rule:nonzero;"/><path d="M243.737,238.545l-0.055,0.579c-1.141,12.889 -3.789,20.389 -6.182,24.691c-1.489,2.686 -2.89,4.125 -3.75,4.837c-0.227,3.182 -0.48,6.474 -0.767,9.894c-0.094,1.064 -0.998,1.902 -2.063,1.902c-0.182,0 -0.358,-0.027 -0.529,-0.071c-0.993,-0.26 -1.638,-1.192 -1.533,-2.212c0.358,-3.546 0.667,-6.954 0.937,-10.241c-1.577,-3.254 -6.27,-13.794 -8.614,-28.524l-0.105,-0.651l0.662,0.016c1.356,0.028 3.237,0.078 4.77,0.1c-1.787,-0.894 -3.358,-2.173 -4.434,-3.149l-0.154,-0.144l-0.022,-0.204c-0.122,-1.086 -0.226,-2.2 -0.315,-3.331c-0.832,-11.074 -2.47,-19.821 -4.566,-27.509c-2.096,-7.682 -4.644,-14.306 -7.302,-21.139c-1.114,-2.862 -1.566,-5.25 -1.566,-7.247c-0,-1.996 0.424,-3.491 1.07,-4.732c0.65,-1.246 1.511,-2.162 2.371,-2.829c1.721,-1.335 3.414,-1.677 3.458,-1.693l0.033,-0l0.033,-0.006c0.348,-0.027 0.69,-0.044 1.037,-0.044c3.723,0 7.291,1.688 10.512,4.671c3.226,2.995 6.127,7.291 8.576,12.613c4.897,10.639 7.98,25.381 7.98,41.964c-0,2.686 -0.077,5.416 -0.243,8.185c-0.066,1.026 -0.132,2.018 -0.209,2.989l-0.028,0.331l-0.309,0.132c-0.617,0.265 -1.224,0.502 -1.787,0.717l3.094,0.105Zm-1.208,1.064l-3.794,-0.132c-0.204,-0.006 -0.408,-0.099 -0.535,-0.243c-0.127,-0.149 -0.187,-0.325 -0.187,-0.502c-0,-0.132 0.038,-0.281 0.127,-0.413c0.082,-0.127 0.226,-0.232 0.375,-0.282c0.794,-0.275 1.946,-0.689 3.176,-1.202c0.066,-0.855 0.127,-1.726 0.182,-2.63c0.166,-2.747 0.243,-5.455 0.243,-8.119c-0,-8.57 -0.833,-16.644 -2.311,-23.891l-6.657,3.475c1.931,12.26 2.741,31.43 0.712,61.371c0.733,-0.766 1.676,-1.958 2.68,-3.761c2.261,-4.065 4.826,-11.256 5.989,-23.671Zm-9.849,28.474c2.112,-30.421 1.296,-49.679 -0.579,-61.873c-1.931,-12.569 -4.997,-17.626 -7.137,-19.661c-0.099,-0.094 -0.21,-0.132 -0.314,-0.132c-0.331,-0 -0.624,0.38 -0.381,0.728c1.743,2.525 4.407,8.013 6.205,19.275c1.963,12.309 2.889,31.513 0.446,61.294c-0.027,0.331 -0.055,0.667 -0.082,1.004c-0.26,3.072 -0.552,6.254 -0.883,9.557c-0.049,0.475 0.254,0.916 0.717,1.037c0.083,0.022 0.166,0.033 0.248,0.033c0.486,0 0.921,-0.375 0.96,-0.888c0.281,-3.336 0.535,-6.552 0.75,-9.657c0.017,-0.242 0.033,-0.479 0.05,-0.717Zm-1.412,-28.81c0.204,-14.527 -0.64,-25.182 -1.903,-32.969l-11.052,-1.186c2.002,7.539 3.568,16.115 4.373,26.836c0.078,1.048 0.177,2.074 0.287,3.083c1.384,1.247 3.574,2.918 5.736,3.513c0.16,0.045 0.309,0.149 0.397,0.276c0.088,0.132 0.127,0.281 0.127,0.414c-0,0.171 -0.055,0.336 -0.177,0.48c-0.116,0.143 -0.32,0.242 -0.518,0.242c-0.259,0.011 -0.585,0.011 -0.949,0.011c-1.439,0 -3.568,-0.049 -5.212,-0.093c2.019,12.226 5.648,21.464 7.6,25.815c0.783,-9.987 1.186,-18.745 1.291,-26.422Z" style="fill-rule:nonzero;"/><path d="M238.41,406.77c0.176,1.622 -0.21,3.276 -1.081,4.655c-0.21,0.331 -0.574,0.53 -0.971,0.53c-0.27,-0 -0.529,-0.094 -0.739,-0.271l-3.53,-2.983c-0.33,-0.282 -0.474,-0.723 -0.369,-1.147c0.105,-0.425 0.436,-0.75 0.866,-0.844l4.434,-0.976l0.127,-0.028l0.121,0c0.59,0 1.076,0.441 1.142,1.026l-0,0.038Zm-2.013,4.065c0.744,-1.175 1.064,-2.57 0.915,-3.949l0,-0.038l-0.044,-0.039l-0.011,0l-4.434,0.976l-0.022,0.077l3.53,2.984l0.027,0l0.039,-0.011Z" style="fill-rule:nonzero;"/><path d="M230.429,404.564c0.034,1.633 -0.49,3.243 -1.478,4.545c-0.215,0.281 -0.557,0.452 -0.915,0.452c-0.303,0 -0.596,-0.121 -0.811,-0.336l-3.259,-3.276c-0.309,-0.309 -0.414,-0.761 -0.276,-1.181c0.143,-0.413 0.502,-0.705 0.938,-0.766l4.505,-0.59l0.078,-0.011l0.071,-0c0.618,-0 1.131,0.507 1.147,1.125l0,0.038Zm-2.36,3.878c0.844,-1.109 1.285,-2.466 1.257,-3.856l0,-0.038l-0.044,-0.044l-4.505,0.595l-0.023,0.072l3.26,3.276l0.027,0.011l0.034,-0.016l-0.006,-0Z" style="fill-rule:nonzero;"/><circle cx="222.896" cy="107.54" r="3.833"/><path d="M222.361,400.787c0.215,0.231 0.325,0.54 0.303,0.86l0,0.039c-0.105,1.627 -0.766,3.187 -1.864,4.401c-0.215,0.237 -0.524,0.375 -0.849,0.375c-0.342,-0 -0.662,-0.149 -0.877,-0.409l-2.967,-3.546c-0.281,-0.336 -0.348,-0.794 -0.171,-1.196c0.176,-0.403 0.557,-0.662 0.998,-0.684l4.539,-0.204l0.05,-0c0.314,-0 0.623,0.132 0.838,0.364Zm-0.8,0.821l0,-0.038l-0.038,-0.044l-4.539,0.204l-0.033,0.071l2.967,3.541l0.033,0.017l0.033,-0.017c0.932,-1.026 1.489,-2.344 1.577,-3.734Z" style="fill-rule:nonzero;"/><path d="M214.932,397.207c0.21,0.254 0.298,0.579 0.248,0.899l0,0.039c-0.016,0.094 -0.044,0.182 -0.06,0.276c-0.287,1.505 -1.054,2.901 -2.179,3.948c-0.215,0.199 -0.491,0.309 -0.783,0.309c-0.369,0 -0.722,-0.182 -0.937,-0.485l-2.642,-3.772l-0.011,-0.017c-0.243,-0.347 -0.276,-0.805 -0.077,-1.186c0.099,-0.193 0.248,-0.347 0.424,-0.452c0.177,-0.105 0.381,-0.165 0.596,-0.165l0.044,-0l3.96,0.165l0.579,0.022c0.325,0.017 0.634,0.166 0.838,0.419Zm-0.844,0.734l-0.038,-0.05l-4.539,-0.187l-0.039,0.071l0.458,0.646l2.195,3.138l0.033,0.016l0.033,-0.011c0.905,-0.844 1.533,-1.941 1.809,-3.143c0.033,-0.144 0.061,-0.293 0.083,-0.442l-0,-0.038l0.005,-0Z" style="fill-rule:nonzero;"/><path d="M199.032,396.485c0,0.099 -0.016,0.187 -0.027,0.281c-0.072,0.662 -0.397,1.247 -0.877,1.655c-0.447,0.375 -1.009,0.606 -1.638,0.606c-0.629,0 -1.186,-0.231 -1.633,-0.606c-0.479,-0.408 -0.805,-0.993 -0.877,-1.655c-0.011,-0.094 -0.027,-0.182 -0.027,-0.281c-0,-0.303 0.243,-0.552 0.551,-0.552c0.309,0 0.546,0.249 0.546,0.552c0.006,0.099 0.011,0.193 0.034,0.281c0.126,0.662 0.711,1.158 1.406,1.158c0.695,0 1.279,-0.496 1.412,-1.158c0.016,-0.088 0.027,-0.182 0.027,-0.281c0,-0.303 0.248,-0.552 0.552,-0.552c0.303,0 0.551,0.249 0.551,0.552Z" style="fill-rule:nonzero;"/><path d="M162.043,144.596c1.059,1.831 0.43,4.175 -1.406,5.234c-1.831,1.059 -4.175,0.43 -5.234,-1.401c-1.059,-1.831 -0.43,-4.18 1.401,-5.239c1.836,-1.059 4.18,-0.431 5.239,1.406Z" style="fill-rule:nonzero;"/><circle cx="124.292" cy="287.419" r="3.833"/><path d="M124.546,209.034c1.831,1.059 2.46,3.403 1.401,5.234c-1.059,1.836 -3.403,2.465 -5.234,1.406c-1.836,-1.059 -2.465,-3.403 -1.406,-5.239c1.059,-1.831 3.403,-2.46 5.239,-1.401Z" style="fill-rule:nonzero;"/><path d="M92.3,263.087c-0,0.474 -0.144,0.959 -0.447,1.401c-1.947,2.834 -3.028,6.232 -3.028,9.739c0,1.076 0.099,2.168 0.314,3.254c0.127,0.623 0.188,1.247 0.188,1.87c-0,2.812 -1.269,5.487 -3.436,7.269l-0.7,-0.85c1.913,-1.572 3.033,-3.943 3.033,-6.419c-0,-0.546 -0.055,-1.103 -0.166,-1.649c-0.231,-1.164 -0.336,-2.328 -0.336,-3.475c0,-1.864 0.287,-3.706 0.833,-5.449c0.546,-1.748 1.351,-3.408 2.388,-4.914c0.182,-0.259 0.254,-0.518 0.254,-0.777c-0,-0.359 -0.155,-0.717 -0.409,-0.982c-0.253,-0.265 -0.595,-0.424 -0.97,-0.424c-0.144,-0 -0.298,0.022 -0.464,0.077l-0.022,0.011l-0.022,-0c-0.231,0.06 -0.452,0.127 -0.684,0.198c-0.215,0.072 -0.408,0.138 -0.595,0.21c-0.188,0.072 -0.006,0.005 -0.006,0.005c-0.799,0.304 -1.5,0.668 -2.134,1.087c-0.447,0.298 -0.866,0.618 -1.263,0.959c-0.673,0.574 -1.274,1.197 -1.864,1.854c-0.833,0.926 -1.621,1.902 -2.504,2.829c-0.86,0.904 -1.82,1.765 -2.989,2.459c-0,0 -0.006,0 -0.006,0.006c-0.005,-0 -0.011,0.005 -0.016,0.011c-0.11,0.072 -0.226,0.138 -0.336,0.193l-0.034,0.022l-0.038,0.011c-2.195,0.783 -3.684,2.388 -4.489,4.329c-0.442,1.076 -0.668,2.256 -0.668,3.431c0,1.522 0.375,3.039 1.125,4.335l-0.479,0.275l-0.469,0.293c-0,-0 -0.006,-0.011 -0.011,-0.017c-0.905,-1.456 -1.423,-3.149 -1.423,-4.892c-0,-0.623 0.06,-1.257 0.204,-1.88c0.209,-1.087 0.309,-2.179 0.309,-3.254c-0,-1.754 -0.271,-3.48 -0.783,-5.124c-0.513,-1.643 -1.269,-3.198 -2.24,-4.616l-0.005,0c-0.303,-0.441 -0.447,-0.937 -0.447,-1.406c0,-0.673 0.282,-1.291 0.723,-1.754c0.446,-0.458 1.07,-0.761 1.77,-0.761c0.287,-0 0.585,0.055 0.871,0.16l0.017,-0c0.039,0.022 0.083,0.039 0.121,0.05c0.028,-1.892 0.116,-3.778 0.342,-5.587c0.088,-0.739 0.199,-1.473 0.342,-2.179c0.309,-1.61 0.756,-3.11 1.379,-4.45c0.447,-0.954 0.993,-1.826 1.643,-2.587c0.662,-0.755 1.429,-1.395 2.328,-1.886l0.005,0c0.623,-0.347 1.307,-0.612 2.052,-0.794c0.005,-0 0.005,-0.006 0.011,-0.006l0.011,0c0.276,-0.077 0.546,-0.132 0.822,-0.176l0.088,-0.017l0.083,0.017c0.915,0.143 1.748,0.408 2.503,0.766c0,0 0.006,0.006 0.012,0.006c-0,-0 0.005,-0 0.005,0.005c0.149,0.067 0.281,0.138 0.397,0.199c1.23,0.673 2.217,1.632 3,2.78c0.789,1.152 1.368,2.492 1.809,3.954c0.21,0.706 0.381,1.434 0.53,2.189c0.143,0.712 0.253,1.434 0.342,2.173c0.088,0.712 0.154,1.429 0.209,2.162c0.055,0.717 0.088,1.44 0.11,2.162c0.012,0.403 0.017,0.8 0.023,1.202c0.016,-0.005 0.027,-0.011 0.044,-0.011c0.259,-0.082 0.518,-0.127 0.772,-0.127c0.7,0 1.323,0.304 1.765,0.762c0.441,0.463 0.717,1.081 0.717,1.748l-0.011,-0Zm-4.396,-2.03c-0.005,-0.419 -0.011,-0.832 -0.022,-1.246l-2.024,-0l-0,1.583l1.186,-0c0.187,-0.083 0.375,-0.16 0.573,-0.237l0.006,-0c-0,-0 0.005,-0.006 0.011,-0.006c0.088,-0.033 0.176,-0.061 0.27,-0.094Zm-2.046,-1.798l2.007,0c-0.022,-0.535 -0.044,-1.064 -0.082,-1.588l-1.925,0l-0,1.588Zm-0,-2.139l1.881,-0c-0.039,-0.535 -0.089,-1.065 -0.149,-1.583l-1.732,-0l-0,1.583Zm-0,-2.135l1.66,0c-0.072,-0.54 -0.154,-1.07 -0.254,-1.583l-1.406,0l-0,1.583Zm-0,-2.134l1.296,-0c-0.116,-0.546 -0.243,-1.081 -0.392,-1.588l-0.904,-0l-0,1.588Zm-0,-2.14l0.728,0c-0.182,-0.557 -0.381,-1.086 -0.607,-1.583l-0.121,0l-0,1.583Zm-0,11.278c-0,0 0.055,-0.027 0.088,-0.044l-0.088,0l-0,0.044Zm-0.552,0.342l0,-0.386l-2.685,0l-0,1.589l1.119,-0c0.055,-0.05 0.105,-0.1 0.16,-0.144c0.425,-0.364 0.882,-0.717 1.379,-1.042c0.011,-0.006 0.016,-0.011 0.027,-0.017Zm0,-0.937l0,-1.583l-2.685,-0l-0,1.583l2.685,-0Zm0,-2.135l0,-1.588l-2.685,0l-0,1.588l2.685,0Zm0,-2.139l0,-1.583l-2.685,-0l-0,1.583l2.685,-0Zm0,-2.135l0,-1.583l-2.685,0l-0,1.583l2.685,0Zm0,-2.134l0,-1.588l-2.685,-0l-0,1.588l2.685,-0Zm0,-2.14l0,-1.583l-2.685,0l-0,1.583l2.685,0Zm0,-2.134l0,-0.695c-0.077,-0.127 -0.154,-0.265 -0.237,-0.386c-0.121,-0.177 -0.253,-0.342 -0.386,-0.508l-2.062,0l-0,1.589l2.685,-0Zm-2.685,-2.14l1.582,-0c-0.468,-0.496 -0.992,-0.921 -1.582,-1.269l-0,1.269Zm-0,18.172c0.171,-0.176 0.342,-0.353 0.518,-0.524l-0.518,0l-0,0.524Zm-0.552,0.59l0,-1.114l-2.586,0l-0,2.945c0.022,0.033 0.044,0.061 0.066,0.088c0.005,0 0.005,0.006 0.005,0.006c0.127,0.165 0.248,0.336 0.364,0.507c0.668,-0.739 1.324,-1.511 2.013,-2.283c0.044,-0.05 0.094,-0.099 0.138,-0.149Zm0,-1.665l0,-1.589l-2.586,0l-0,1.589l2.586,-0Zm0,-2.14l0,-1.583l-2.586,-0l-0,1.583l2.586,-0Zm0,-2.135l0,-1.588l-2.586,0l-0,1.588l2.586,0Zm0,-2.139l0,-1.583l-2.586,-0l-0,1.583l2.586,-0Zm0,-2.135l0,-1.583l-2.586,0l-0,1.583l2.586,0Zm0,-2.134l0,-1.588l-2.586,-0l-0,1.588l2.586,-0Zm0,-2.14l0,-1.583l-2.586,0l-0,1.583l2.586,0Zm0,-2.134l0,-1.589l-2.586,0l-0,1.589l2.586,-0Zm0,-2.14l0,-1.566c0,-0 -0.027,-0.011 -0.039,-0.017l-2.547,0l-0,1.583l2.586,-0Zm-2.487,-2.134l0.799,-0c-0.132,-0.028 -0.27,-0.056 -0.408,-0.083c-0.138,0.027 -0.27,0.055 -0.391,0.083Zm-0.651,22.032l0,-2.25l-2.234,0c0.811,0.689 1.561,1.439 2.234,2.25Zm0,-2.801l0,-1.589l-2.686,0l0,1.589l2.686,-0Zm0,-2.14l0,-1.583l-2.686,-0l0,1.583l2.686,-0Zm0,-2.135l0,-1.588l-2.686,0l0,1.588l2.686,0Zm0,-2.139l0,-1.583l-2.686,-0l0,1.583l2.686,-0Zm0,-2.135l0,-1.583l-2.686,0l0,1.583l2.686,0Zm0,-2.134l0,-1.588l-2.686,-0l0,1.588l2.686,-0Zm0,-2.14l0,-1.583l-2.686,0l0,1.583l2.686,0Zm0,-2.134l0,-1.589l-2.686,0l0,1.589l2.686,-0Zm0,-2.14l0,-1.583l-0.965,0c-0.138,0.066 -0.292,0.121 -0.425,0.199l-0.016,0.011c-0.469,0.248 -0.888,0.557 -1.28,0.899l0,0.474l2.686,-0Zm0.21,22.027c-0.155,-0.226 -0.304,-0.458 -0.469,-0.678c-0.866,-1.175 -1.886,-2.245 -3.044,-3.166c-0.144,-0.127 -0.298,-0.243 -0.458,-0.369c-0.767,-0.569 -1.578,-1.076 -2.438,-1.506l-0.011,-0c-0.386,-0.21 -0.789,-0.397 -1.202,-0.568l-0.006,-0c-0.082,-0.039 -0.143,-0.066 -0.193,-0.083l-0.011,0l-0.011,-0.011c-0.27,-0.11 -0.546,-0.209 -0.827,-0.309l-0.011,0c-0.177,-0.071 -0.342,-0.099 -0.502,-0.099c-0.375,-0 -0.717,0.165 -0.976,0.43c-0.259,0.265 -0.414,0.623 -0.414,0.982c0,0.254 0.072,0.513 0.254,0.777c2.057,3.001 3.204,6.58 3.221,10.292c0.97,-1.567 2.432,-2.852 4.368,-3.558c0.088,-0.044 0.171,-0.093 0.248,-0.143l0.011,-0.011l0.016,-0c0.927,-0.557 1.721,-1.235 2.466,-1.98l-0.011,0Zm-3.447,-5.184l-0,-1.335l-2.151,0c0.755,0.397 1.472,0.844 2.151,1.335Zm-0,-1.886l-0,-1.583l-2.449,-0l0,1.583l2.449,-0Zm-0,-2.135l-0,-1.588l-2.449,0l0,1.588l2.449,0Zm-0,-2.139l-0,-1.583l-2.449,-0l0,1.583l2.449,-0Zm-0,-2.135l-0,-1.583l-2.449,0l0,1.583l2.449,0Zm-0,-2.134l-0,-1.588l-2.449,-0l0,1.588l2.449,-0Zm-0,-2.14l-0,-1.583l-1.715,0c-0.227,0.497 -0.425,1.026 -0.607,1.583l2.322,0Zm-0,-2.134l-0,-1.589l-0.419,0c-0.381,0.48 -0.723,1.01 -1.021,1.589l1.44,-0Zm-3,12.817l-0,-1.583l-0.618,-0c-0.011,0.463 -0.017,0.932 -0.022,1.401c0.138,0.055 0.276,0.116 0.408,0.182l0.232,-0Zm-0,-2.135l-0,-1.588l-0.513,0c-0.033,0.524 -0.061,1.053 -0.083,1.588l0.596,0Zm-0,-2.139l-0,-1.583l-0.326,-0c-0.061,0.518 -0.11,1.048 -0.149,1.583l0.475,-0Zm-0,-2.135l-0,-1.583c-0.1,0.513 -0.182,1.043 -0.254,1.583l0.254,0Z" style="fill-rule:nonzero;"/><path d="M85.522,286.211l0.364,0.414c-0,0 -0,0.006 -0.012,0.006c0,0.005 -0.005,0.005 -0.005,0.005c-0.215,0.188 -0.436,0.359 -0.667,0.524c0.033,0.331 0.055,0.667 0.055,1.009c-0.006,1.087 -0.16,2.212 -0.557,3.216c-0.397,1.003 -1.043,1.902 -2.013,2.459c-0.645,0.37 -1.423,0.574 -2.317,0.574l-0.148,-0c-0.85,-0 -1.605,-0.193 -2.24,-0.541c-0.634,-0.342 -1.141,-0.832 -1.533,-1.406c-0.783,-1.147 -1.108,-2.603 -1.114,-4.026c0,-0.27 0.017,-0.546 0.044,-0.811c-0.082,-0.049 -0.171,-0.088 -0.248,-0.138l-0.016,0l-0.011,-0.011l-0.011,0l-0.006,-0.005l-0.121,-0.077c-1.313,-0.75 -2.333,-1.798 -3.045,-3.006l0.949,-0.563c0.629,1.059 1.511,1.969 2.653,2.62l0.011,0l0.005,0.006l0.111,0.066c0.182,0.105 0.358,0.193 0.54,0.27l0.403,0.177l-0.083,0.435c-0.044,0.348 -0.072,0.695 -0.072,1.043c0,0.937 0.171,1.88 0.519,2.669c0.347,0.788 0.86,1.417 1.555,1.798c0.463,0.253 1.02,0.402 1.71,0.402l0.148,0c0.728,0 1.302,-0.16 1.771,-0.43c0.469,-0.27 0.844,-0.651 1.141,-1.125c0.602,-0.948 0.872,-2.283 0.872,-3.59c-0,-0.408 -0.028,-0.811 -0.072,-1.202l-0.066,-0.375l0.309,-0.199c0.138,-0.083 0.264,-0.171 0.391,-0.265c0.133,-0.088 0.254,-0.187 0.375,-0.281c0.022,-0.022 0.05,-0.039 0.072,-0.061l0.359,0.425l-0,-0.006Z" style="fill-rule:nonzero;"/></g><g id="text"><path d="M453.166,195.29l5.239,20.274l-6.315,1.632l-0.358,-1.39c0.877,-0.485 1.732,-1.274 2.57,-2.366c0.844,-1.086 1.219,-2.018 1.125,-2.779c-0.05,-0.397 -0.132,-0.861 -0.243,-1.396c-0.11,-0.534 -0.253,-1.141 -0.43,-1.82l-1.064,-4.114l-10.413,2.692l0.761,2.95c0.249,0.949 0.513,1.616 0.806,2.008c0.292,0.391 0.689,0.7 1.196,0.926c0.425,0.177 0.96,0.281 1.605,0.32c0.651,0.039 1.247,0.017 1.787,-0.055l0.359,1.384l-10.264,2.653l-0.358,-1.39c0.579,-0.198 1.169,-0.491 1.77,-0.877c0.607,-0.386 1.026,-0.733 1.257,-1.048c0.381,-0.502 0.585,-1.02 0.607,-1.544c0.022,-0.524 -0.072,-1.186 -0.276,-1.985l-0.766,-2.956l-7.848,2.029c-0.789,0.204 -1.396,0.419 -1.82,0.651c-0.425,0.226 -0.717,0.529 -0.866,0.91c-0.149,0.381 -0.188,0.86 -0.116,1.428c0.077,0.574 0.248,1.368 0.513,2.388c0.105,0.408 0.243,0.943 0.414,1.611c0.171,0.662 0.342,1.219 0.507,1.66c0.171,0.452 0.386,0.915 0.645,1.379c0.254,0.463 0.524,0.772 0.8,0.926c0.733,0.414 1.787,0.778 3.144,1.087c1.362,0.314 2.349,0.479 2.961,0.507l0.342,1.329l-7.848,1.495l-5.62,-21.746l1.313,-0.342c0.121,0.364 0.298,0.844 0.535,1.439c0.243,0.596 0.43,0.971 0.562,1.136c0.287,0.342 0.596,0.557 0.932,0.635c0.337,0.077 0.728,0.055 1.186,-0.061l18.834,-4.864c0.403,-0.105 0.745,-0.271 1.026,-0.486c0.276,-0.215 0.458,-0.562 0.546,-1.047c0.072,-0.376 0.099,-0.855 0.077,-1.445c-0.022,-0.596 -0.061,-1.059 -0.121,-1.401l1.307,-0.337Z" style="fill-rule:nonzero;"/><path d="M442.682,169.121l4.136,9.861l-1.373,0.574c-0.155,-0.375 -0.364,-0.844 -0.618,-1.401c-0.254,-0.562 -0.469,-1.031 -0.645,-1.412l-9.602,4.026l0.938,2.228c0.402,0.96 0.866,1.726 1.4,2.311c0.133,0.143 0.271,0.276 0.414,0.403l-0.739,1.081l-0.16,0.066l-1.329,0.121c-0.061,-0.794 -0.281,-1.643 -0.662,-2.553c-0.314,-0.75 -0.59,-1.379 -0.822,-1.886c-0.237,-0.513 -0.413,-0.894 -0.534,-1.148l-8.791,3.69c-0.739,0.309 -1.17,0.844 -1.297,1.599c-0.121,0.756 0.039,1.666 0.486,2.73l-1.39,0.585l-4.418,-10.534l1.252,-0.524c0.138,0.27 0.364,0.662 0.662,1.169c0.304,0.508 0.557,0.855 0.761,1.048c0.315,0.293 0.646,0.458 0.987,0.497c0.337,0.033 0.723,-0.039 1.159,-0.221l17.935,-7.523c0.397,-0.165 0.722,-0.38 0.97,-0.639c0.248,-0.265 0.381,-0.635 0.403,-1.114c0.027,-0.425 -0,-0.872 -0.088,-1.346c-0.089,-0.474 -0.182,-0.86 -0.282,-1.164l1.247,-0.524Z" style="fill-rule:nonzero;"/><path d="M433.907,153.376l5.968,10.622l-1.181,0.662c-0.204,-0.337 -0.474,-0.723 -0.816,-1.158c-0.336,-0.436 -0.662,-0.8 -0.971,-1.092c-0.369,-0.348 -0.744,-0.508 -1.125,-0.486c-0.38,0.022 -0.755,0.138 -1.119,0.348l-17.075,9.59c-0.364,0.204 -0.645,0.469 -0.838,0.789c-0.193,0.314 -0.259,0.717 -0.21,1.197c0.044,0.281 0.16,0.717 0.348,1.301c0.193,0.59 0.386,1.065 0.579,1.44l-1.18,0.662l-5.968,-10.622l0.436,-0.243l0.314,-0.182l0.431,-0.237c0.187,0.287 0.463,0.7 0.827,1.241c0.364,0.54 0.651,0.899 0.871,1.081c0.348,0.286 0.695,0.441 1.037,0.468c0.342,0.028 0.739,-0.088 1.18,-0.336l17.091,-9.602c0.386,-0.215 0.679,-0.457 0.872,-0.728c0.193,-0.264 0.248,-0.678 0.171,-1.23c-0.055,-0.408 -0.166,-0.899 -0.331,-1.467c-0.171,-0.568 -0.331,-1.02 -0.491,-1.356l1.18,-0.662Z" style="fill-rule:nonzero;"/><path d="M436.902,189.483c0.094,0.998 0.044,1.952 -0.16,2.846c-0.188,0.937 -0.579,1.809 -1.175,2.625c-0.595,0.816 -1.461,1.461 -2.597,1.936c-1.164,0.485 -2.278,0.661 -3.342,0.513c-1.07,-0.144 -2.047,-0.508 -2.94,-1.081c-0.866,-0.563 -1.649,-1.28 -2.344,-2.151c-0.7,-0.872 -1.268,-1.837 -1.71,-2.89l-0.54,-1.285l1.39,-0.585c0.733,1.749 1.803,2.868 3.21,3.37c1.411,0.496 3.105,0.331 5.084,-0.496c1.478,-0.624 2.482,-1.627 3.017,-3.017c0.27,-0.706 0.375,-1.467 0.309,-2.289l1.329,-0.121c0.215,0.75 0.375,1.621 0.469,2.625Z" style="fill-rule:nonzero;"/><path d="M426.754,144.938c0.05,0.937 -0.11,1.836 -0.496,2.702c-0.386,0.861 -1.042,1.638 -1.98,2.317c-0.838,0.617 -1.677,1.031 -2.509,1.246c-0.839,0.221 -1.671,0.248 -2.515,0.088c-0.778,-0.138 -1.567,-0.413 -2.361,-0.821c-0.794,-0.414 -1.594,-0.927 -2.388,-1.539c-0.639,2.118 -1.185,3.893 -1.638,5.322c-0.452,1.423 -0.998,3.165 -1.638,5.223c-0.286,0.899 -0.441,1.638 -0.468,2.217c-0.022,0.579 -0,1.114 0.077,1.61c0.066,0.364 0.204,0.772 0.424,1.224c0.221,0.453 0.425,0.817 0.613,1.092l-0.806,0.585l-0.314,0.182l-4.274,-5.852c1.086,-2.796 1.991,-5.261 2.713,-7.401c0.717,-2.134 1.418,-4.401 2.102,-6.783l-1.638,-2.239l1.323,-0.965l1.478,2.013c1.032,1.417 2.35,2.266 3.949,2.547c1.594,0.282 3.171,-0.148 4.732,-1.285c1.318,-0.965 2.09,-2.112 2.305,-3.435c0.221,-1.33 -0.176,-2.681 -1.191,-4.071l-1.908,-2.614l1.263,-0.921l2.834,3.877c0.673,0.927 1.214,1.864 1.616,2.813c0.403,0.949 0.635,1.903 0.695,2.868Z" style="fill-rule:nonzero;"/><path d="M421.609,135.38l-1.263,0.921l-9.365,6.845l-1.323,0.965l-6.927,5.062c-0.359,0.265 -0.635,0.552 -0.822,0.866c-0.188,0.309 -0.221,0.701 -0.094,1.181c0.061,0.237 0.232,0.606 0.508,1.114c0.275,0.507 0.523,0.921 0.75,1.246l-1.092,0.8l-6.756,-9.238l1.092,-0.8c0.204,0.232 0.502,0.563 0.893,0.993c0.392,0.43 0.695,0.706 0.916,0.833c0.358,0.209 0.717,0.292 1.07,0.242c0.358,-0.049 0.739,-0.22 1.141,-0.512l15.795,-11.549c0.359,-0.259 0.634,-0.546 0.839,-0.849c0.204,-0.309 0.237,-0.701 0.104,-1.186c-0.099,-0.325 -0.253,-0.717 -0.479,-1.186c-0.221,-0.469 -0.431,-0.855 -0.618,-1.152l1.092,-0.8l4.539,6.204Z" style="fill-rule:nonzero;"/><path d="M397.254,108.428l16.507,16.849l-5.245,5.14l-0.921,-0.943c0.248,-0.403 0.491,-0.932 0.733,-1.583c0.238,-0.656 0.431,-1.313 0.569,-1.963c0.148,-0.684 0.226,-1.341 0.22,-1.969c0,-0.635 -0.127,-1.12 -0.375,-1.462c-0.243,-0.32 -0.562,-0.7 -0.965,-1.147c-0.397,-0.447 -0.778,-0.849 -1.136,-1.213l-0.772,-0.794l-15.464,15.144c-0.298,0.292 -0.513,0.629 -0.635,0.998c-0.127,0.375 -0.104,0.783 0.072,1.235c0.099,0.227 0.347,0.651 0.75,1.28c0.403,0.629 0.739,1.097 1.015,1.395l-0.965,0.949l-8.94,-9.128l0.965,-0.948c0.27,0.237 0.684,0.59 1.252,1.059c0.568,0.469 0.987,0.761 1.263,0.882c0.413,0.182 0.799,0.237 1.158,0.16c0.364,-0.077 0.728,-0.298 1.103,-0.662l15.58,-15.265l-0.772,-0.789c-0.276,-0.281 -0.623,-0.629 -1.048,-1.031c-0.425,-0.403 -0.844,-0.772 -1.263,-1.109c-0.331,-0.265 -0.816,-0.402 -1.45,-0.408c-0.64,-0.005 -1.296,0.055 -1.975,0.182c-0.673,0.127 -1.34,0.309 -2.007,0.552c-0.662,0.242 -1.18,0.468 -1.561,0.678l-0.938,-0.954l5.245,-5.135Z" style="fill-rule:nonzero;"/><path d="M385.932,99.218l-0.805,1.092c-0.326,-0.226 -0.728,-0.463 -1.219,-0.722c-0.491,-0.26 -0.938,-0.453 -1.34,-0.59c-0.48,-0.166 -0.888,-0.16 -1.225,0.022c-0.336,0.176 -0.628,0.435 -0.877,0.777l-11.587,15.784c-0.248,0.337 -0.397,0.695 -0.435,1.065c-0.045,0.369 0.055,0.761 0.303,1.18c0.154,0.237 0.441,0.585 0.855,1.042c0.413,0.453 0.788,0.811 1.119,1.07l-0.805,1.092l-9.822,-7.214l0.805,-1.091c0.292,0.181 0.711,0.446 1.263,0.788c0.551,0.342 0.971,0.552 1.246,0.629c0.436,0.116 0.811,0.116 1.136,-0c0.326,-0.116 0.635,-0.381 0.938,-0.789l11.598,-15.8c0.265,-0.359 0.425,-0.701 0.491,-1.026c0.066,-0.326 -0.055,-0.723 -0.353,-1.191c-0.215,-0.353 -0.518,-0.751 -0.904,-1.203c-0.392,-0.446 -0.723,-0.794 -1.004,-1.031l0.8,-1.092l9.822,7.214l-0,-0.006Z" style="fill-rule:nonzero;"/><path d="M372.674,89.159l-0.662,1.185c-0.315,-0.165 -0.844,-0.342 -1.583,-0.529c-0.733,-0.193 -1.29,-0.276 -1.666,-0.254c-0.557,0.055 -1.125,0.441 -1.698,1.153c-0.579,0.711 -1.202,1.671 -1.875,2.884l-9.613,17.323l-1.45,-0.805l-3.596,-27.316l-6.773,12.205c-0.761,1.367 -1.257,2.465 -1.494,3.298c-0.232,0.827 -0.26,1.494 -0.078,2.002c0.122,0.391 0.524,0.91 1.208,1.566c0.679,0.656 1.147,1.059 1.396,1.213l-0.657,1.18l-9.701,-5.382l0.657,-1.186c0.314,0.143 0.876,0.314 1.698,0.518c0.816,0.199 1.357,0.271 1.622,0.215c0.562,-0.093 1.092,-0.424 1.593,-0.981c0.497,-0.557 1.175,-1.611 2.036,-3.155l6.469,-11.653c0.281,-0.513 0.48,-1.076 0.584,-1.682c0.105,-0.612 0.083,-1.142 -0.06,-1.583c-0.199,-0.59 -0.563,-1.202 -1.103,-1.848c-0.541,-0.639 -1.015,-1.086 -1.423,-1.345l0.656,-1.18l6.761,3.75l3.287,25.419l6.243,-11.257c0.767,-1.373 1.263,-2.481 1.495,-3.32c0.232,-0.838 0.254,-1.472 0.055,-1.902c-0.193,-0.381 -0.59,-0.872 -1.186,-1.462c-0.595,-0.59 -1.069,-1.004 -1.422,-1.23l0.656,-1.18l9.624,5.339Z" style="fill-rule:nonzero;"/><path d="M338.624,79.811c0.049,1.886 -0.282,3.833 -0.998,5.846c-0.717,2.024 -1.694,3.75 -2.923,5.173c-1.236,1.428 -2.631,2.515 -4.192,3.27c-1.522,0.756 -3.132,1.186 -4.826,1.285c-1.693,0.099 -3.375,-0.143 -5.04,-0.733c-1.776,-0.629 -3.293,-1.539 -4.561,-2.736c-1.269,-1.202 -2.234,-2.581 -2.89,-4.153c-0.667,-1.544 -1.015,-3.253 -1.048,-5.134c-0.028,-1.875 0.292,-3.761 0.965,-5.653c0.734,-2.074 1.71,-3.811 2.934,-5.206c1.219,-1.39 2.609,-2.482 4.169,-3.265c1.545,-0.772 3.172,-1.208 4.887,-1.302c1.709,-0.099 3.381,0.144 5.007,0.723c1.694,0.595 3.172,1.478 4.446,2.647c1.274,1.164 2.25,2.515 2.934,4.048c0.711,1.577 1.092,3.304 1.136,5.19Zm-4.153,-0.695c0.176,-1.583 0.116,-3.006 -0.177,-4.269c-0.297,-1.252 -0.843,-2.338 -1.638,-3.259c-0.794,-0.921 -1.831,-1.611 -3.11,-2.063c-1.439,-0.513 -2.78,-0.612 -4.021,-0.309c-1.235,0.304 -2.371,0.894 -3.397,1.771c-0.97,0.838 -1.853,1.913 -2.647,3.226c-0.794,1.312 -1.467,2.746 -2.024,4.302c-0.607,1.726 -1.004,3.336 -1.186,4.836c-0.182,1.5 -0.127,2.912 0.166,4.225c0.27,1.285 0.794,2.399 1.566,3.336c0.772,0.944 1.842,1.655 3.21,2.14c1.279,0.453 2.542,0.563 3.783,0.331c1.246,-0.237 2.383,-0.777 3.408,-1.627c1.059,-0.849 1.986,-1.913 2.78,-3.182c0.794,-1.268 1.489,-2.757 2.096,-4.456c0.617,-1.748 1.014,-3.419 1.191,-5.002Z" style="fill-rule:nonzero;"/><path d="M309.284,64.164c1.312,1.495 1.776,3.232 1.389,5.212c-0.264,1.39 -0.777,2.559 -1.527,3.524c-0.745,0.96 -1.671,1.699 -2.763,2.212c-1.087,0.518 -2.228,0.827 -3.425,0.932c-1.202,0.105 -2.438,0.033 -3.706,-0.215l-2.978,-0.574l-1.561,8.052c-0.083,0.436 -0.083,0.833 -0.006,1.191c0.078,0.359 0.326,0.668 0.745,0.933c0.204,0.126 0.585,0.286 1.142,0.468c0.551,0.188 1.064,0.331 1.538,0.436l-0.259,1.329l-11.4,-2.206l0.254,-1.329c0.303,0.033 0.745,0.072 1.329,0.121c0.579,0.05 0.993,0.044 1.236,-0.011c0.408,-0.093 0.722,-0.275 0.954,-0.557c0.226,-0.281 0.386,-0.662 0.48,-1.147l3.711,-19.17c0.083,-0.441 0.094,-0.844 0.039,-1.219c-0.055,-0.375 -0.298,-0.689 -0.728,-0.954c-0.441,-0.254 -0.888,-0.463 -1.346,-0.623c-0.452,-0.155 -0.849,-0.282 -1.18,-0.37l0.259,-1.334l12.128,2.349c2.476,0.48 4.362,1.461 5.675,2.95Zm-3.431,5.251c0.138,-0.712 0.193,-1.451 0.166,-2.217c-0.028,-0.772 -0.193,-1.473 -0.497,-2.101c-0.325,-0.668 -0.81,-1.236 -1.461,-1.699c-0.645,-0.463 -1.5,-0.794 -2.565,-0.998l-2.636,-0.513l-2.272,11.741l1.908,0.37c1.351,0.259 2.488,0.259 3.409,0.005c0.921,-0.253 1.654,-0.65 2.2,-1.196c0.541,-0.519 0.943,-1.081 1.202,-1.699c0.265,-0.618 0.447,-1.18 0.546,-1.693Z" style="fill-rule:nonzero;"/><path d="M286.484,83.826l-0.066,1.351l-11.234,-0.574l0.066,-1.351c0.999,-0.011 1.826,-0.099 2.488,-0.254c0.661,-0.16 1.003,-0.375 1.014,-0.656c0.006,-0.116 0,-0.254 -0.016,-0.419c-0.017,-0.166 -0.044,-0.314 -0.088,-0.447l-1.931,-6.171l-9.486,-0.48c-0.402,0.866 -0.728,1.627 -0.987,2.278c-0.253,0.645 -0.485,1.246 -0.695,1.798c-0.193,0.535 -0.331,0.976 -0.408,1.312c-0.083,0.342 -0.127,0.618 -0.138,0.833c-0.027,0.507 0.353,0.927 1.136,1.246c0.789,0.32 1.683,0.53 2.681,0.629l-0.066,1.351l-10.181,-0.518l0.071,-1.351c0.331,-0.011 0.745,-0.061 1.247,-0.155c0.502,-0.093 0.915,-0.237 1.246,-0.424c0.524,-0.315 0.938,-0.657 1.236,-1.015c0.297,-0.359 0.595,-0.866 0.899,-1.511c1.527,-3.32 3.22,-7.054 5.073,-11.196c1.859,-4.147 3.508,-7.837 4.958,-11.068l1.528,0.077l7.815,23.77c0.165,0.501 0.358,0.915 0.585,1.229c0.226,0.32 0.546,0.635 0.965,0.949c0.281,0.193 0.656,0.364 1.119,0.507c0.464,0.144 0.855,0.232 1.169,0.26Zm-10.373,-10.247l-3.558,-10.7l-4.572,10.281l8.13,0.419Z" style="fill-rule:nonzero;"/><path d="M257.564,56.918l0.65,7.313l-1.312,0.115c-0.155,-0.446 -0.408,-0.965 -0.761,-1.566c-0.353,-0.601 -0.739,-1.163 -1.159,-1.687c-0.43,-0.552 -0.893,-1.021 -1.384,-1.418c-0.485,-0.402 -0.943,-0.612 -1.368,-0.64c-0.397,-0.011 -0.898,0 -1.494,0.023c-0.601,0.027 -1.153,0.06 -1.66,0.104l-1.103,0.1l1.908,21.558c0.033,0.419 0.16,0.794 0.364,1.125c0.21,0.331 0.546,0.574 1.004,0.728c0.237,0.066 0.722,0.143 1.467,0.232c0.739,0.088 1.312,0.121 1.72,0.093l0.122,1.352l-12.729,1.125l-0.116,-1.346c0.348,-0.061 0.888,-0.154 1.611,-0.298c0.717,-0.138 1.213,-0.281 1.483,-0.419c0.403,-0.199 0.69,-0.463 0.855,-0.794c0.171,-0.326 0.232,-0.75 0.188,-1.269l-1.925,-21.729l-1.103,0.099c-0.392,0.033 -0.877,0.083 -1.456,0.155c-0.585,0.071 -1.136,0.16 -1.666,0.27c-0.408,0.088 -0.821,0.381 -1.23,0.866c-0.413,0.491 -0.783,1.037 -1.108,1.643c-0.331,0.601 -0.612,1.236 -0.849,1.903c-0.232,0.662 -0.392,1.208 -0.469,1.638l-1.329,0.116l-0.646,-7.313l23.495,-2.079Z" style="fill-rule:nonzero;"/><path d="M230.727,59.521l1.627,7.158l-1.279,0.293c-0.215,-0.42 -0.541,-0.905 -0.971,-1.451c-0.43,-0.546 -0.888,-1.053 -1.373,-1.516c-0.502,-0.486 -1.02,-0.894 -1.561,-1.219c-0.54,-0.326 -1.02,-0.475 -1.445,-0.441c-0.397,0.038 -0.888,0.11 -1.478,0.22c-0.59,0.105 -1.13,0.215 -1.627,0.331l-1.081,0.243l4.804,21.106c0.094,0.408 0.265,0.761 0.518,1.064c0.254,0.304 0.612,0.497 1.092,0.585c0.243,0.033 0.739,0.044 1.484,0.033c0.744,-0.017 1.318,-0.061 1.72,-0.138l0.298,1.318l-12.453,2.84l-0.303,-1.323c0.342,-0.1 0.86,-0.271 1.555,-0.508c0.695,-0.237 1.169,-0.441 1.418,-0.617c0.369,-0.254 0.617,-0.557 0.739,-0.905c0.126,-0.347 0.126,-0.772 0.011,-1.279l-4.843,-21.272l-1.081,0.248c-0.386,0.083 -0.86,0.204 -1.428,0.353c-0.562,0.149 -1.097,0.315 -1.605,0.491c-0.397,0.144 -0.766,0.485 -1.108,1.026c-0.337,0.54 -0.629,1.131 -0.877,1.776c-0.243,0.64 -0.436,1.307 -0.579,1.996c-0.144,0.695 -0.226,1.258 -0.243,1.693l-1.302,0.293l-1.626,-7.159l22.997,-5.239Z" style="fill-rule:nonzero;"/><path d="M214.651,89.291l0.485,1.263l-10.5,4.031l-0.486,-1.268c0.905,-0.414 1.627,-0.827 2.168,-1.235c0.546,-0.414 0.766,-0.75 0.667,-1.015c-0.039,-0.105 -0.105,-0.232 -0.188,-0.375c-0.082,-0.149 -0.17,-0.27 -0.264,-0.37l-4.263,-4.858l-8.869,3.402c-0.011,0.96 -0.005,1.787 0.022,2.482c0.028,0.695 0.061,1.34 0.094,1.925c0.044,0.568 0.094,1.026 0.16,1.368c0.061,0.342 0.133,0.617 0.21,0.821c0.182,0.475 0.7,0.695 1.544,0.673c0.849,-0.027 1.754,-0.198 2.708,-0.507l0.485,1.263l-9.513,3.651l-0.078,-0.193l-0.137,-0.359l-0.271,-0.711c0.298,-0.144 0.657,-0.359 1.076,-0.651c0.419,-0.292 0.744,-0.59 0.965,-0.893c0.353,-0.502 0.596,-0.977 0.722,-1.429c0.127,-0.452 0.193,-1.031 0.204,-1.743c0.056,-3.656 0.094,-7.754 0.105,-12.293c0.017,-4.544 0.033,-8.587 0.044,-12.133l1.429,-0.546l16.777,18.564c0.358,0.392 0.7,0.689 1.036,0.888c0.337,0.198 0.756,0.358 1.269,0.474c0.331,0.066 0.744,0.066 1.224,0.011c0.486,-0.055 0.877,-0.132 1.175,-0.237Zm-13.639,-5.162l-7.589,-8.339l-0.011,11.251l7.6,-2.912Z" style="fill-rule:nonzero;"/><path d="M188.896,99.99l0.137,0.359l-10.18,6.132l-0.701,-1.158c0.364,-0.237 0.817,-0.562 1.363,-0.976c0.54,-0.419 0.887,-0.75 1.031,-1.004c0.215,-0.408 0.32,-0.794 0.314,-1.158c0,-0.358 -0.127,-0.744 -0.364,-1.147l-10.153,-16.859l-0.248,0.149l2.994,18.409l-1.505,0.242l-3.1,-17.968c-0.11,-0.656 -0.27,-1.323 -0.474,-1.996c-0.204,-0.673 -0.358,-1.109 -0.469,-1.313l7.561,-4.55l0.695,1.159c-0.297,0.198 -0.656,0.479 -1.075,0.854c-0.425,0.37 -0.723,0.662 -0.893,0.866c-0.293,0.353 -0.409,0.723 -0.359,1.109c0.055,0.38 0.188,0.755 0.408,1.114l10.06,16.71c0.231,0.381 0.49,0.662 0.777,0.844c0.287,0.182 0.679,0.259 1.164,0.232c0.265,-0.006 0.673,-0.116 1.23,-0.326c0.557,-0.209 0.987,-0.397 1.285,-0.562l0.502,0.838Z" style="fill-rule:nonzero;"/><path d="M173.089,102.737l0.993,6.105l-0.816,0.491l-19.672,-15.624l-0.21,0.126l8.333,13.838c0.806,1.34 1.501,2.305 2.091,2.901c0.59,0.595 1.152,0.943 1.682,1.036c0.375,0.083 1.003,0.006 1.88,-0.242c0.877,-0.243 1.434,-0.43 1.666,-0.557l0.7,1.158l-9.359,5.636l-0.7,-1.158c0.463,-0.336 0.926,-0.733 1.395,-1.175c0.469,-0.446 0.778,-0.876 0.927,-1.29c0.198,-0.535 0.176,-1.164 -0.061,-1.881c-0.243,-0.717 -0.805,-1.814 -1.699,-3.292l-7.142,-11.863c-0.413,-0.684 -0.832,-1.197 -1.257,-1.533c-0.425,-0.337 -0.871,-0.552 -1.34,-0.64c-0.519,-0.088 -1.059,-0.061 -1.638,0.094c-0.574,0.154 -1.109,0.364 -1.599,0.628l-0.701,-1.158l7.903,-4.759l17.119,13.401l1.505,-0.242Z" style="fill-rule:nonzero;"/><path d="M153.208,121.83l0.943,0.97l-5.217,5.085c-2.918,-0.683 -5.493,-1.235 -7.71,-1.649c-2.218,-0.408 -4.556,-0.783 -7.016,-1.125l-0.198,0.193l-1.142,-1.174c1.258,-1.225 1.914,-2.648 1.969,-4.269c0.055,-1.621 -0.596,-3.122 -1.941,-4.506c-1.142,-1.169 -2.383,-1.77 -3.728,-1.803c-1.341,-0.028 -2.626,0.557 -3.855,1.754l-1.092,-1.12l1.119,-1.092c0.822,-0.8 1.671,-1.461 2.554,-1.996c0.888,-0.53 1.798,-0.894 2.746,-1.092c0.921,-0.182 1.837,-0.149 2.741,0.11c0.91,0.259 1.77,0.805 2.576,1.632c0.728,0.745 1.257,1.517 1.588,2.317c0.331,0.794 0.48,1.616 0.441,2.47c-0.027,0.789 -0.193,1.611 -0.485,2.455c-0.292,0.843 -0.69,1.704 -1.186,2.581c2.19,0.336 4.021,0.628 5.499,0.871c1.472,0.254 3.276,0.546 5.399,0.888c0.932,0.154 1.687,0.21 2.267,0.154c0.573,-0.055 1.103,-0.16 1.577,-0.303c0.353,-0.116 0.739,-0.314 1.158,-0.596c0.414,-0.281 0.745,-0.529 0.993,-0.755Z" style="fill-rule:nonzero;"/><path d="M142.525,132.237l0.949,0.97l-8.196,7.986l-0.948,-0.97c0.204,-0.232 0.491,-0.574 0.86,-1.021c0.37,-0.452 0.601,-0.788 0.695,-1.026c0.154,-0.38 0.187,-0.75 0.088,-1.097c-0.099,-0.347 -0.325,-0.695 -0.667,-1.053l-13.655,-14.014c-0.309,-0.315 -0.629,-0.557 -0.96,-0.712c-0.331,-0.16 -0.728,-0.137 -1.191,0.067c-0.304,0.137 -0.673,0.353 -1.103,0.639c-0.436,0.287 -0.783,0.546 -1.059,0.772l-0.943,-0.97l7.826,-7.622l1.092,1.12l-2.322,2.261l8.09,8.305l1.787,-1.742l1.142,1.174l-1.787,1.743l5.989,6.144c0.315,0.32 0.635,0.551 0.971,0.695c0.336,0.143 0.728,0.121 1.18,-0.072c0.226,-0.094 0.568,-0.314 1.031,-0.662c0.464,-0.342 0.844,-0.651 1.131,-0.915Z" style="fill-rule:nonzero;"/><path d="M133.74,142.98l-13.606,17.874l-1.081,-0.821c0.215,-0.32 0.48,-0.756 0.8,-1.313c0.314,-0.551 0.502,-0.932 0.546,-1.142c0.093,-0.435 0.066,-0.81 -0.083,-1.125c-0.143,-0.309 -0.403,-0.606 -0.778,-0.893l-15.475,-11.78c-0.336,-0.254 -0.673,-0.425 -1.015,-0.513c-0.342,-0.083 -0.728,-0.011 -1.163,0.22c-0.337,0.171 -0.734,0.453 -1.186,0.833c-0.452,0.386 -0.789,0.706 -1.02,0.965l-1.076,-0.821l12.685,-16.661l5.189,3.954l-0.865,1.136c-0.927,-0.38 -2.074,-0.568 -3.453,-0.551c-1.379,0.011 -2.338,0.292 -2.879,0.838c-0.281,0.281 -0.595,0.634 -0.948,1.053c-0.348,0.419 -0.739,0.905 -1.158,1.462l-2.576,3.386l8.554,6.513l1.847,-2.426c0.596,-0.778 0.955,-1.407 1.081,-1.876c0.127,-0.468 0.122,-0.976 -0.016,-1.511c-0.121,-0.441 -0.37,-0.932 -0.739,-1.461c-0.375,-0.53 -0.756,-0.987 -1.153,-1.368l0.866,-1.136l8.438,6.42l-0.866,1.141c-0.518,-0.331 -1.114,-0.612 -1.792,-0.849c-0.673,-0.237 -1.208,-0.348 -1.594,-0.342c-0.634,0.016 -1.164,0.176 -1.588,0.48c-0.425,0.309 -0.888,0.788 -1.39,1.45l-1.848,2.427l6.453,4.914c0.645,0.491 1.191,0.832 1.632,1.026c0.442,0.193 0.861,0.231 1.252,0.115c0.392,-0.115 0.789,-0.38 1.192,-0.794c0.402,-0.413 0.921,-1.042 1.56,-1.88c0.254,-0.337 0.59,-0.773 1.01,-1.319c0.413,-0.546 0.744,-1.025 0.987,-1.428c0.253,-0.414 0.48,-0.866 0.689,-1.357c0.204,-0.491 0.281,-0.893 0.232,-1.202c-0.133,-0.838 -0.497,-1.886 -1.098,-3.144c-0.595,-1.262 -1.07,-2.139 -1.428,-2.636l0.833,-1.092l6.028,5.234Z" style="fill-rule:nonzero;"/><path d="M114.602,170.462l-5.697,10.12l-1.18,-0.662c0.127,-0.276 0.303,-0.684 0.535,-1.219c0.226,-0.535 0.353,-0.926 0.375,-1.18c0.044,-0.414 -0.033,-0.772 -0.226,-1.076c-0.193,-0.303 -0.502,-0.579 -0.938,-0.821l-17.014,-9.58c-0.386,-0.215 -0.766,-0.358 -1.141,-0.419c-0.37,-0.066 -0.75,0.066 -1.136,0.386c-0.381,0.342 -0.717,0.7 -1.015,1.081c-0.292,0.38 -0.535,0.717 -0.728,1.004l-1.18,-0.668l6.061,-10.765c1.235,-2.195 2.768,-3.679 4.594,-4.451c1.825,-0.772 3.623,-0.662 5.383,0.331c1.229,0.69 2.184,1.544 2.862,2.559c0.673,1.015 1.081,2.123 1.224,3.326c0.144,1.191 0.077,2.371 -0.198,3.54c-0.282,1.17 -0.739,2.322 -1.374,3.453l-1.489,2.642l7.148,4.02c0.386,0.221 0.761,0.347 1.125,0.386c0.369,0.039 0.739,-0.099 1.119,-0.414c0.188,-0.154 0.458,-0.463 0.811,-0.932c0.348,-0.468 0.651,-0.91 0.899,-1.323l1.18,0.662Zm-11.692,-8.141c0.05,-0.954 -0.093,-1.775 -0.435,-2.465c-0.32,-0.678 -0.734,-1.235 -1.236,-1.676c-0.501,-0.447 -0.976,-0.795 -1.434,-1.048c-0.628,-0.359 -1.312,-0.646 -2.051,-0.866c-0.739,-0.215 -1.456,-0.276 -2.145,-0.188c-0.739,0.094 -1.434,0.375 -2.074,0.844c-0.645,0.474 -1.23,1.18 -1.759,2.118l-1.319,2.344l10.418,5.862l0.955,-1.693c0.672,-1.197 1.031,-2.272 1.08,-3.232Z" style="fill-rule:nonzero;"/><path d="M104.537,191.038l-4.29,10.793l-1.258,-0.502c0.089,-0.292 0.21,-0.717 0.364,-1.279c0.155,-0.563 0.232,-0.965 0.221,-1.219c-0.017,-0.414 -0.138,-0.761 -0.37,-1.037c-0.231,-0.276 -0.579,-0.507 -1.036,-0.689l-18.145,-7.214c-0.414,-0.165 -0.811,-0.254 -1.186,-0.27c-0.38,-0.011 -0.739,0.165 -1.075,0.54c-0.337,0.386 -0.618,0.789 -0.861,1.203c-0.242,0.419 -0.435,0.783 -0.59,1.092l-1.257,-0.502l4.566,-11.483c0.932,-2.338 2.251,-4.009 3.96,-5.018c1.704,-1.01 3.502,-1.147 5.377,-0.397c1.313,0.518 2.372,1.24 3.177,2.156c0.805,0.915 1.357,1.958 1.66,3.133c0.303,1.158 0.392,2.338 0.276,3.535c-0.121,1.196 -0.425,2.399 -0.899,3.601l-1.125,2.818l7.622,3.033c0.413,0.16 0.805,0.238 1.169,0.227c0.369,-0.011 0.717,-0.199 1.053,-0.557c0.166,-0.177 0.392,-0.524 0.679,-1.032c0.286,-0.507 0.523,-0.987 0.711,-1.428l1.257,0.496Zm-13.313,-3.16c0.507,-1.274 0.723,-2.388 0.645,-3.342c-0.077,-0.954 -0.336,-1.754 -0.766,-2.388c-0.408,-0.629 -0.888,-1.125 -1.445,-1.5c-0.557,-0.37 -1.076,-0.651 -1.561,-0.844c-0.673,-0.27 -1.39,-0.463 -2.151,-0.579c-0.761,-0.121 -1.478,-0.088 -2.151,0.099c-0.722,0.193 -1.367,0.563 -1.941,1.114c-0.579,0.552 -1.064,1.329 -1.461,2.333l-0.999,2.498l11.113,4.418l0.717,-1.809Z" style="fill-rule:nonzero;"/><path d="M97.285,213.617c0.039,1.147 -0.055,2.217 -0.281,3.21c-0.37,1.588 -0.905,2.95 -1.605,4.092c-0.7,1.141 -1.506,2.051 -2.405,2.73c-0.899,0.667 -1.853,1.103 -2.862,1.318c-1.004,0.209 -2.002,0.198 -2.995,-0.033l-15.585,-3.613c-0.436,-0.099 -0.811,-0.11 -1.136,-0.038c-0.326,0.077 -0.662,0.303 -1.009,0.678c-0.243,0.27 -0.475,0.634 -0.695,1.092c-0.215,0.458 -0.375,0.838 -0.469,1.142l-1.318,-0.304l2.542,-10.98l1.318,0.309c-0.066,0.347 -0.11,0.799 -0.132,1.345c-0.028,0.552 -0.022,0.96 -0,1.225c0.055,0.458 0.237,0.794 0.546,1.02c0.314,0.221 0.678,0.381 1.086,0.474l14.549,3.376c0.706,0.159 1.467,0.253 2.272,0.281c0.811,0.022 1.605,-0.116 2.377,-0.419c0.794,-0.326 1.5,-0.855 2.129,-1.583c0.623,-0.728 1.103,-1.82 1.44,-3.265c0.314,-1.362 0.364,-2.559 0.143,-3.579c-0.215,-1.026 -0.618,-1.881 -1.202,-2.581c-0.546,-0.662 -1.164,-1.181 -1.848,-1.561c-0.678,-0.381 -1.39,-0.656 -2.134,-0.827l-10.804,-2.504c-1.373,-0.32 -2.515,-0.48 -3.436,-0.486c-0.916,-0.005 -1.561,0.155 -1.919,0.475c-0.408,0.364 -0.789,0.899 -1.136,1.61c-0.348,0.706 -0.58,1.258 -0.695,1.649l-1.318,-0.309l2.498,-10.771l1.318,0.304c-0.066,0.353 -0.11,0.877 -0.132,1.577c-0.017,0.7 0.06,1.291 0.237,1.776c0.187,0.485 0.706,0.915 1.561,1.279c0.854,0.37 1.924,0.701 3.215,1.004l11.46,2.653c1.462,0.342 2.658,0.937 3.596,1.792c0.937,0.855 1.638,1.864 2.101,3.011c0.441,1.137 0.684,2.278 0.723,3.431l0.005,-0Z" style="fill-rule:nonzero;"/><path d="M448.324,183.306c0.165,0.888 0.182,1.798 0.044,2.725c-0.122,0.86 -0.441,1.665 -0.954,2.404c-0.519,0.739 -1.28,1.324 -2.289,1.743c-0.877,0.369 -1.726,0.54 -2.548,0.513c-0.816,-0.028 -1.594,-0.226 -2.327,-0.596c-0.695,-0.342 -1.352,-0.794 -1.964,-1.357c-0.617,-0.562 -1.18,-1.213 -1.693,-1.946l0.739,-1.081c0.425,0.364 0.894,0.628 1.395,0.788c0.684,0.221 1.363,0.293 2.035,0.21c0.668,-0.083 1.412,-0.298 2.234,-0.64c1.379,-0.579 2.294,-1.401 2.763,-2.482c0.469,-1.075 0.364,-2.421 -0.314,-4.031l1.373,-0.574l0.695,1.66c0.375,0.888 0.645,1.776 0.811,2.664Z" style="fill-rule:nonzero;"/></g></g></svg>