<svg xmlns="http://www.w3.org/2000/svg" xml:space="preserve" style="fill-rule:evenodd;clip-rule:evenodd;stroke-linejoin:round;stroke-miterlimit:2" viewBox="0 0 512 512">
  <path d="M0 0h512v512H0z" style="fill:none"/>
  <path d="M484.553 240.974H496a21.414 21.414 0 0 1-5.602 12.373h3.828v5.306h-3.759c3.034 3.319 5.051 7.581 5.533 12.293h-11.447a21.986 21.986 0 0 0-5.368-12.293h-2.859c3.034 3.319 5.051 7.581 5.538 12.293h-11.452c-.471-4.68-2.42-8.932-5.363-12.293h-2.51c-.249 18.784-3.102 36.934-8.201 54.119a52.309 52.309 0 0 0 13.358-8.905 4.512 4.512 0 0 1 3.346-1.175 4.348 4.348 0 0 1 3.092 1.588 54.306 54.306 0 0 1 12.421 34.525c0 24.445-16.408 45.892-39.952 52.331h34.255a.793.793 0 1 1 0 1.588h-43.886c-1.54.132-3.097.206-4.675.206-1.413 0-2.901-.069-4.548-.206h-65.058l1.276 2.393-1.398.746-1.678-3.139-.847-1.588-5.978-11.193a91.415 91.415 0 0 0-3.653-2.287l-.01-.011a4.81 4.81 0 0 0-1.229-.519l.366-1.54a6.364 6.364 0 0 1 1.673.699h.01c.445.27.884.534 1.319.804a87.762 87.762 0 0 1 2.737 1.753 98.5 98.5 0 0 1 2.319 1.578h.005l4.177 3.028c.186.074.345.127.472.159a2.816 2.816 0 0 0-.133-.339 12.372 12.372 0 0 0-.635-1.202c-.508-.863-1.112-1.763-1.472-2.404-.058-.095-.18-.301-.312-.524-.133-.227-.281-.476-.403-.699-.079-.153-.148-.28-.206-.423a97.065 97.065 0 0 1-4.68-15.365 99.34 99.34 0 0 1-.779-3.976c-.016-.106-.037-.217-.053-.333 0 0 0-.011-.005-.011a64.185 64.185 0 0 1-.265-1.668 95.673 95.673 0 0 1-.916-8.64 63.162 63.162 0 0 1-.116-4.05c0-2.732.127-5.29.127-8.037 0-1.17-.021-2.383-.09-3.654-.069-1.418-.106-2.943-.169-4.389-.064-1.445-.149-2.816-.308-3.896-.105-.72-.254-1.313-.413-1.684a1.877 1.877 0 0 0-.111-.228 3.215 3.215 0 0 0-.227.387c-.276.519-.572 1.297-.837 2.123a42.81 42.81 0 0 0-1.075 4.119c-.254 1.244-.487 2.451-.72 3.611l-1.551-.302c.228-1.165.461-2.372.715-3.621.169-.842.767-3.474 1.53-5.464.254-.667.519-1.26.842-1.732.185-.27.381-.513.699-.698.169-.101.386-.175.63-.175h.031c.164 0 .329.042.466.111.387.18.646.477.842.799.196.323.334.683.45 1.086.228.799.365 1.773.461 2.854.19 2.154.217 4.754.333 7.02.064 1.302.09 2.541.09 3.733 0 2.8-.127 5.358-.127 8.037 0 1.276.027 2.578.111 3.949a96.042 96.042 0 0 0 1.165 10.15v.016c.021.095.037.201.058.317a95.677 95.677 0 0 0 4.649 17.165h.005c.228.625.466 1.244.715 1.853.249.609.058.138.127.259.069.122.154.27.238.424.18.302.36.598.461.778.201.355.535.879.895 1.451a27.94 27.94 0 0 1 1.043 1.789c.201.397.376.779.487 1.16.058.217.106.434.106.672 0 .217-.037.466-.18.71a1.225 1.225 0 0 1-.657.519 1.7 1.7 0 0 1-.498.074c-.455-.006-.905-.138-1.487-.371l-.08-.037h-.01l-.085-.058-4.024-2.912 4.94 9.255h75.054v-.133c26.801-2.34 47.804-25.265 47.804-52.198a52.442 52.442 0 0 0-11.998-33.344 2.504 2.504 0 0 0-1.789-.921 2.616 2.616 0 0 0-1.964.693 54.092 54.092 0 0 1-36.654 14.269h-.614l-80.333-.101-27.811-.032c.084.175.169.344.259.514l-1.398.746a28.714 28.714 0 0 1-.699-1.392 35.761 35.761 0 0 1-.698-1.594 31.819 31.819 0 0 1-1.959-7.004l-.265-1.668c-.365-2.314-.079-4.792.852-7.365a2.87 2.87 0 0 0-.211-2.409 2.85 2.85 0 0 0-1.748-1.339 2.86 2.86 0 0 0-2.181.296l-6.348 3.691-6.38 3.653c-.667.386-1.143 1-1.345 1.742-.201.741-.1 1.519.286 2.181a2.848 2.848 0 0 0 1.991 1.392c.461.08.916.191 1.366.334l-.445 1.519a9.568 9.568 0 0 0-1.196-.285 4.444 4.444 0 0 1-3.092-2.166 4.407 4.407 0 0 1-.445-3.388 4.424 4.424 0 0 1 2.091-2.706l6.375-3.653 6.343-3.69a4.432 4.432 0 0 1 3.388-.455 4.423 4.423 0 0 1 2.716 2.08 4.431 4.431 0 0 1 .328 3.738c-.836 2.324-1.096 4.537-.773 6.581l.265 1.668a29.979 29.979 0 0 0 2.054 7.126h.053l41.482.048c10.96-17.932 17.287-39.004 17.287-61.564 0-32.656-13.236-62.215-34.637-83.621-21.405-21.405-50.964-34.636-83.62-34.636-32.656 0-62.22 13.231-83.626 34.636-21.4 21.406-34.636 50.965-34.636 83.621 0 22.56 6.327 43.632 17.286 61.564h.08l41.455-.048a30.594 30.594 0 0 0 1.901-6.205l1.551.302a31.427 31.427 0 0 1-3.182 9.016l-18.017 33.752a115.453 115.453 0 0 0 4.421 3.76l19.102-35.373 1.393.752-19.235 35.626c14.47 11.389 31.74 19.574 50.896 23.322a120.838 120.838 0 0 0 23.263 2.267c16.36 0 32.143-3.357 46.586-9.493a118.405 118.405 0 0 0 10.6-5.131c.005 0 .01 0 .016-.005.481-.259.958-.529 1.434-.794l.768 1.382c-.482.275-.963.545-1.451.81 0 .005-.01.005-.015.005a120.69 120.69 0 0 1-10.727 5.194 120.569 120.569 0 0 1-47.211 9.62 122.45 122.45 0 0 1-17.371-1.244 119.096 119.096 0 0 1-6.2-1.049 120.722 120.722 0 0 1-51.356-23.465c-.423-.333-.841-.661-1.26-1a125.119 125.119 0 0 1-4.426-3.738c-.408-.365-.815-.726-1.218-1.091a122.01 122.01 0 0 1-12.092-12.722 3.283 3.283 0 0 0-2.547-1.208c-.688 0-1.371.212-1.959.662a93.414 93.414 0 0 0-4.781 3.849l-1.043-1.186a96.4 96.4 0 0 1 4.861-3.928 4.834 4.834 0 0 1 2.922-.985c1.409 0 2.812.62 3.775 1.79a120.787 120.787 0 0 0 11.637 12.277l17.837-33.402c.09-.17.17-.344.255-.514l-108.86.133a54.088 54.088 0 0 1-36.648-14.269 2.597 2.597 0 0 0-1.964-.693 2.517 2.517 0 0 0-1.795.921 52.442 52.442 0 0 0-11.992 33.344c0 26.933 20.998 49.858 47.809 52.198v.133h75.149l1.398.746-.847 1.588-1.398-.746H98.615a54.678 54.678 0 0 1-4.554.206 54.65 54.65 0 0 1-4.669-.206H42.954a.793.793 0 1 1 0-1.588h36.807c-23.55-6.439-39.952-27.886-39.952-52.331a54.323 54.323 0 0 1 12.416-34.525 4.368 4.368 0 0 1 3.097-1.588 4.5 4.5 0 0 1 3.346 1.175 52.283 52.283 0 0 0 13.474 8.964c-5.109-17.202-7.968-35.373-8.217-54.178H46.909c2.653 3.367 2.356 8.714 2.356 8.714C41.932 263.232 16 256 16 256s25.932-7.232 33.265-11.362c0 0 .297 5.348-2.356 8.709H63.92c1.424-108.864 90.112-196.672 199.315-196.678 109.198.006 197.89 87.814 199.309 196.678h2.436a21.943 21.943 0 0 0 5.432-12.373h11.452a21.464 21.464 0 0 1-5.607 12.373h2.864a21.97 21.97 0 0 0 5.432-12.373Zm-32.762 72.91c5.612-18.308 8.651-37.739 8.651-57.884 0-54.459-22.072-103.755-57.762-139.45-35.69-35.69-84.986-57.758-139.445-57.763-54.464.005-103.761 22.073-139.451 57.763C88.095 152.245 66.022 201.541 66.022 256c0 20.167 3.044 39.613 8.667 57.932l.095.037a52.088 52.088 0 0 0 19.277 3.68h.615l22.083-.027c-7.984-18.954-12.411-39.767-12.411-61.622 0-87.75 71.137-158.881 158.887-158.881S422.116 168.25 422.116 256c0 21.85-4.426 42.668-12.41 61.622l22.591.027a52.098 52.098 0 0 0 19.399-3.728l.095-.037Zm-44.372 3.733c8.089-18.912 12.579-39.735 12.579-61.617 0-43.293-17.546-82.477-45.913-110.85a157.233 157.233 0 0 0-36.13-26.996c-22.099-12.003-47.406-18.848-74.312-18.917h-.408c-25.71 0-49.964 6.184-71.375 17.143a157.158 157.158 0 0 0-39.48 28.77c-28.368 28.373-45.914 67.557-45.914 110.85 0 21.887 4.49 42.71 12.585 61.627l.053-.01 18.933-.021 1.774-34.282-20.998-36.563 19.452-29.993.095-42.165 31.846-16.249 21.157-36.468.212.01 35.493 1.843 36.559-21.003 29.998 19.457 42.16.09 16.254 31.846 36.463 21.162-1.848 35.706 21.003 36.558-19.457 29.998-.09 40.053h.132l19.177.021Zm-9.7-70.469-14.104-35.33h.016l-3.929-31.91-29.882-23.55.011-.01-19.357-25.668-37.648-5.453v-.01l-29.591-12.554-35.335 14.105v-.016l-31.91 3.928-23.544 29.877h-.011l-25.673 19.351-5.453 37.649h-.011l-12.553 29.591 14.105 35.335h-.016l3.928 31.909 4.045 3.188 8.969-.011a119.653 119.653 0 0 1-14.131-35.69 120.849 120.849 0 0 1-2.79-25.879c0-66.482 53.892-120.375 120.38-120.375S383.609 189.518 383.609 256c0 7.031-.603 13.919-1.763 20.622a119.66 119.66 0 0 1-15.158 40.947l8.784.011 4.23-3.188 5.4-37.299.053-.349h.011l12.553-29.596Z" style="fill-rule:nonzero"/>
  <path d="M466.06 395.863c.434 0 .794.355.794.795 0 .439-.36.794-.794.794H365.217l1.673 3.134h84.367c.439 0 .794.36.794.794a.797.797 0 0 1-.794.794h-83.515l1.673 3.14v1.588h-15.703a.792.792 0 0 1-.794-.794c0-.439.354-.794.794-.794h5.951l-6.798-12.59h-23.778a111.624 111.624 0 0 1-8.291 5.855l-.026.016s-.011.006-.011.011c-.852.54-1.71 1.064-2.573 1.583.127.275.296.577.514.9.36.54.831 1.128 1.36 1.731 1.054 1.213 2.314 2.478 3.352 3.648.693.784 1.286 1.514 1.673 2.229.164.307.243.641.243.958a2.058 2.058 0 0 1-.582 1.419 1.992 1.992 0 0 1-1.462.62c-.052 0-.1 0-.153-.005-5.141-.387-12.611-1.208-18.689-1.208-1.875 0-3.617.08-5.099.27a112.017 112.017 0 0 1-27.648 7.937 111.86 111.86 0 0 1-17.021 1.297c-5.348 0-10.759-.381-16.207-1.16a102.324 102.324 0 0 1-4.643-.767l.281-1.557c1.519.281 3.049.53 4.59.752a112.807 112.807 0 0 0 15.979 1.144c5.681 0 11.288-.435 16.783-1.276a110.385 110.385 0 0 0 19.674-4.877c2.6-.905 5.168-1.9 7.688-2.996l.1-.037h.011l.111-.021c1.604-.212 3.442-.297 5.401-.297 6.21 0 13.707.831 18.805 1.213h.037a.438.438 0 0 0 .323-.133.472.472 0 0 0 .133-.318.4.4 0 0 0-.058-.206c-.196-.376-.546-.858-.99-1.382a44.06 44.06 0 0 0-1.536-1.71c-1.128-1.207-2.382-2.499-3.33-3.759-.63-.842-1.138-1.662-1.371-2.52a.79.79 0 0 1 .042-.508l.021-.048a.741.741 0 0 1 .323-.371 103.991 103.991 0 0 0 3.06-1.885l.027-.015.021-.016a112.181 112.181 0 0 0 8.603-6.099 110.049 110.049 0 0 0 13.92-12.967l.545-.608c.339-.382.72-.715 1.122-1.001a6.664 6.664 0 0 1 2.558-1.08 6.5 6.5 0 0 1 1.196-.111c.551 0 1.107.068 1.647.217l-.366 1.54a4.953 4.953 0 0 0-2.875.096l7.513 13.914.858 1.588 6.713 12.431h6.147l-1.593-2.981-.848-1.588-1.673-3.134-.847-1.589 1.398-.746.402.746H466.06Zm-114.053-4.727-7.105-13.162c-.249.19-.482.402-.694.64-.185.207-.37.413-.561.62a111.177 111.177 0 0 1-12.558 11.902h20.918Zm99.943-128.333c0 .456-.137.927-.423 1.345h-.006a16.54 16.54 0 0 0-2.906 9.35c0 1.033.095 2.076.301 3.124a9.06 9.06 0 0 1-3.113 8.773l-.672-.816a8.011 8.011 0 0 0 2.907-6.162 8.02 8.02 0 0 0-.159-1.583 17.5 17.5 0 0 1-.323-3.336c0-3.584 1.101-7.052 3.097-9.948a1.3 1.3 0 0 0 .238-.747c0-.344-.148-.688-.391-.942a1.288 1.288 0 0 0-1.377-.334l-.021.011h-.021c-.223.058-.435.122-.657.191-.201.068-.392.132-.566.201h-.006l-.01.005c-.768.291-1.44.641-2.049 1.043-.434.286-.831.593-1.218.921a18.268 18.268 0 0 0-1.784 1.779h-.006c-.794.89-1.556 1.827-2.398 2.716-.831.869-1.747 1.689-2.869 2.362l-.011.005c-.005.005-.011.005-.016.011a3.481 3.481 0 0 1-.318.185l-.037.021-.031.011c-2.113.751-3.542 2.292-4.31 4.156a8.624 8.624 0 0 0-.646 3.293c0 1.461.36 2.917 1.08 4.161l-.461.265-.45.281s0-.011-.01-.016c-.869-1.403-1.366-3.023-1.366-4.696 0-.599.063-1.208.196-1.806.201-1.043.301-2.091.301-3.124 0-3.367-1.043-6.628-2.906-9.355a2.298 2.298 0 0 1-.429-1.345c0-.646.265-1.239.694-1.683a2.349 2.349 0 0 1 1.694-.731 2.503 2.503 0 0 1 .852.159c.037.016.08.032.117.042.026-1.816.116-3.626.328-5.363.085-.709.191-1.414.328-2.091.297-1.546.726-2.986 1.329-4.273.424-.916.948-1.752 1.578-2.483a7.983 7.983 0 0 1 2.229-1.811h.005a7.878 7.878 0 0 1 1.97-.762c.005 0 .005-.005.01-.005h.016c.26-.075.524-.127.784-.17l.084-.016.085.016a8.702 8.702 0 0 1 2.398.736c.006 0 .006.005.011.005.005 0 .005 0 .011.006.137.063.264.132.376.19 1.18.646 2.128 1.567 2.885 2.669.752 1.106 1.313 2.393 1.731 3.796.202.677.371 1.382.509 2.102.137.677.243 1.376.328 2.086.09.683.153 1.376.201 2.075.053.694.085 1.382.106 2.076.016.386.016.767.021 1.154.016-.006.027-.011.042-.011.249-.079.498-.122.742-.122.672 0 1.27.292 1.694.731.423.445.688 1.038.688 1.678Zm-4.219-1.948c0-.402-.011-.799-.022-1.197h-1.943v1.52h1.139c.18-.079.365-.154.555-.228 0 0 0-.005.011-.005.085-.032.175-.058.26-.09Zm-1.965-1.726h1.927a34.489 34.489 0 0 0-.079-1.525h-1.848v1.525Zm0-2.054h1.811a44.489 44.489 0 0 0-.148-1.52h-1.663v1.52Zm0-2.049h1.594a25.669 25.669 0 0 0-.244-1.52h-1.35v1.52Zm0-2.049h1.244a20.602 20.602 0 0 0-.375-1.525h-.869v1.525Zm0-2.054h.699a14.733 14.733 0 0 0-.582-1.52h-.117v1.52Zm0 10.827s.059-.027.085-.043h-.085v.043Zm-.529.328v-.371h-2.579v1.525h1.075c.053-.047.101-.095.154-.137a13.44 13.44 0 0 1 1.35-1.017Zm0-.9v-1.52h-2.579v1.52h2.579Zm0-2.049v-1.525h-2.579v1.525h2.579Zm0-2.054v-1.52h-2.579v1.52h2.579Zm0-2.049v-1.52h-2.579v1.52h2.579Zm0-2.049v-1.525h-2.579v1.525h2.579Zm0-2.054v-1.52h-2.579v1.52h2.579Zm0-2.049v-.667c-.074-.122-.148-.255-.228-.371a8.423 8.423 0 0 0-.37-.487h-1.981v1.525h2.579Zm-2.579-2.055h1.52a6.875 6.875 0 0 0-1.52-1.217v1.217Zm.503 16.943h-.503v.503c.165-.17.329-.339.503-.503Zm-1.032 1.069v-1.069h-2.483v2.827c.021.032.048.058.069.085.121.164.238.328.349.492.646-.709 1.271-1.451 1.938-2.192.048-.048.09-.095.132-.143h-.005Zm0-1.599v-1.525h-2.483v1.525h2.483Zm0-2.054v-1.52h-2.483v1.52h2.483Zm0-2.049v-1.525h-2.483v1.525h2.483Zm0-2.054v-1.52h-2.483v1.52h2.483Zm0-2.049v-1.52h-2.483v1.52h2.483Zm0-2.049v-1.525h-2.483v1.525h2.483Zm0-2.054v-1.52h-2.483v1.52h2.483Zm0-2.049v-1.525h-2.483v1.525h2.483Zm0-2.055v-1.503l-.037-.016h-2.446v1.519h2.483Zm-2.388-2.049h.768l-.387-.079-.381.079Zm-.625 21.152v-2.16h-2.144a17.084 17.084 0 0 1 2.144 2.16Zm0-2.69v-1.525h-2.578v1.525h2.578Zm0-2.054v-1.52h-2.578v1.52h2.578Zm0-2.049v-1.525h-2.578v1.525h2.578Zm0-2.054v-1.52h-2.578v1.52h2.578Zm0-2.049v-1.52h-2.578v1.52h2.578Zm0-2.049v-1.525h-2.578v1.525h2.578Zm0-2.054v-1.52h-2.578v1.52h2.578Zm0-2.049v-1.525h-2.578v1.525h2.578Zm0-2.055V245.3h-.926c-.138.063-.286.122-.418.196h-.006c-.444.243-.852.54-1.228.868v.455h2.578Zm.202 21.146c-.149-.217-.292-.439-.445-.651h-.005a16.076 16.076 0 0 0-2.923-3.039h-.011c-.137-.122-.285-.233-.439-.355a15.324 15.324 0 0 0-2.34-1.445h-.011c-.37-.201-.757-.381-1.149-.545h-.005c-.085-.037-.143-.064-.19-.08h-.011l-.011-.01a18.122 18.122 0 0 0-.794-.297h-.01a1.259 1.259 0 0 0-.482-.095c-.36 0-.688.159-.937.413a1.362 1.362 0 0 0-.392.942c0 .244.069.493.238.747a17.648 17.648 0 0 1 3.087 9.879 8.205 8.205 0 0 1 4.193-3.415c.085-.042.169-.09.244-.137l.01-.011h.011c.894-.535 1.652-1.186 2.366-1.901h.006Zm-3.309-4.976v-1.282h-2.06c.72.382 1.408.81 2.06 1.282Zm0-1.811v-1.52h-2.351v1.52h2.351Zm0-2.049v-1.525h-2.351v1.525h2.351Zm0-2.054v-1.52h-2.351v1.52h2.351Zm0-2.049v-1.52h-2.351v1.52h2.351Zm0-2.049v-1.525h-2.351v1.525h2.351Zm0-2.054v-1.52h-1.642c-.222.477-.413.985-.587 1.52h2.229Zm0-2.049v-1.525h-.403a9.61 9.61 0 0 0-.979 1.525h1.382Zm-2.881 12.304v-1.52h-.587c-.016.445-.021.895-.027 1.345.133.053.265.111.397.175h.217Zm0-2.049v-1.525h-.492a67.273 67.273 0 0 0-.079 1.525h.571Zm0-2.054v-1.52h-.312a44.58 44.58 0 0 0-.143 1.52h.455Zm0-2.049v-1.52a26.526 26.526 0 0 0-.243 1.52h.243Z" style="fill-rule:nonzero"/>
  <path d="m445.443 285.003.35.397s-.011.011-.011.016c-.206.175-.418.339-.635.498.026.317.047.64.047.969 0 1.043-.153 2.123-.534 3.086-.376.964-1.001 1.827-1.933 2.362-.619.354-1.366.55-2.223.55h-.143c-.816 0-1.536-.185-2.145-.519a4.216 4.216 0 0 1-1.477-1.35c-.752-1.101-1.064-2.499-1.064-3.865 0-.259.016-.524.037-.778-.079-.048-.159-.085-.238-.132h-.016l-.011-.011h-.01l-.122-.079a8.044 8.044 0 0 1-2.923-2.886l.911-.54a6.93 6.93 0 0 0 2.552 2.515h.011l.106.069c.174.1.344.185.518.259l.392.17-.085.418a7.996 7.996 0 0 0-.063 1.001c0 .9.159 1.805.492 2.562.334.757.826 1.361 1.493 1.726.45.244.985.387 1.642.387h.143c.698 0 1.249-.154 1.699-.413.45-.26.81-.625 1.101-1.081.572-.91.832-2.191.832-3.446 0-.392-.027-.784-.069-1.154l-.058-.36.296-.191c.127-.079.254-.164.376-.254.122-.085.233-.175.349-.265l.08-.063.339.407-.006-.005Zm-8.984 120.311a.793.793 0 1 1 0 1.588h-42.997c-34.932 30.173-80.454 48.429-130.227 48.429-49.773 0-95.3-18.256-130.233-48.429H87.348a.793.793 0 1 1 0-1.588h69.701l1.679-3.14H72.55a.793.793 0 1 1 0-1.588h87.025l1.673-3.134H57.752a.793.793 0 1 1 0-1.589h104.343l1.678-3.139 1.398.746-4.357 8.164-.122.233-1.758 3.288h6.147l12.516-23.179a124.552 124.552 0 0 1-3.764-4.728l-7.815 14.634-1.398-.746 8.17-15.301a112.643 112.643 0 0 1-2.695-3.818 118.968 118.968 0 0 1-6.158-10.207 117.86 117.86 0 0 1-5.103-10.812c-1.52-3.695 0-.01-.006-.016h.006a4.6 4.6 0 0 1-.371-1.821c0-.789.185-1.535.482-2.171.286-.614.662-1.127 1.138-1.498a76.22 76.22 0 0 1 1.551-1.361l1.043 1.186c-.518.45-1.027.9-1.535 1.356l-.064.053c-.211.153-.492.487-.693.926-.201.44-.334.969-.334 1.509 0 .408.074.815.244 1.207v.011a116.537 116.537 0 0 0 11.113 20.749c.72 1.064 1.461 2.112 2.213 3.155.344.471.694.943 1.043 1.414a112.56 112.56 0 0 0 3.754 4.76c.365.439.725.884 1.096 1.313a115.315 115.315 0 0 0 8.963 9.366 117.106 117.106 0 0 0 9.758 8.169l.037.032h.005l.027.021c.503.471.937.783 1.355 1.112.418.328.842.698 1.181 1.239.227.354.418.778.572 1.281.201.677.349 1.514.471 2.631.355 3.352.836 6.645 1.938 9.858 1.101 3.219 2.822 6.364 5.707 9.467.09.09.18.122.286.127a.419.419 0 0 0 .212-.064.38.38 0 0 0 .148-.185 96.805 96.805 0 0 1 4.347-9.599 4.647 4.647 0 0 1 4.129-2.493c.482 0 .974.074 1.451.227 2.144.694 4.315 1.324 6.523 1.885 2.456.63 4.95 1.186 7.481 1.657l-.281 1.557a113.031 113.031 0 0 1-14.21-3.585 3.059 3.059 0 0 0-.964-.153 3.057 3.057 0 0 0-2.721 1.636 96.017 96.017 0 0 0-4.273 9.44 1.963 1.963 0 0 1-.757.937 1.95 1.95 0 0 1-1.085.328 1.988 1.988 0 0 1-1.451-.635c-3.039-3.261-4.887-6.634-6.046-10.033-1.165-3.399-1.652-6.814-2.012-10.202-.127-1.192-.291-1.991-.476-2.526-.191-.545-.382-.821-.63-1.091a6.005 6.005 0 0 0-.652-.555c-.349-.271-.789-.599-1.292-1.065a118.17 118.17 0 0 1-9.408-7.83H173.6l-6.798 12.59h3.293a.793.793 0 1 1 0 1.588h-34.001c34.403 29.289 78.384 46.311 127.141 46.311 48.756 0 92.647-17.414 126.955-46.311h-20.775v-1.588h67.044Zm-262.001-14.178h11.706a117.33 117.33 0 0 1-7.455-7.873l-4.251 7.873ZM400.34 277.014a3.675 3.675 0 0 1 1.35 5.024 3.68 3.68 0 1 1-1.35-5.024Z" style="fill-rule:nonzero"/>
  <circle cx="396.904" cy="208.138" r="3.68"/>
  <path d="M362.675 144.69a3.678 3.678 0 0 1-1.345 5.024 3.68 3.68 0 1 1 1.345-5.024Zm-10.843 212.196c0 .037-.005.069-.01.106a76.037 76.037 0 0 1-4.972 15.629.527.527 0 0 1-.487.312.502.502 0 0 1-.212-.042.537.537 0 0 1-.27-.699 71.448 71.448 0 0 0 1.742-4.315c.249-.672.487-1.35.72-2.028a75.155 75.155 0 0 0 2.441-9.064.525.525 0 0 1 .619-.413c.254.048.429.27.429.514Zm-4.929-24.863 1.551.302c-.99 5.045-1.842 9.376-3.171 13.532a46.528 46.528 0 0 1-3.357 7.974 46.535 46.535 0 0 1-.921 1.646 55.459 55.459 0 0 1-3.574 5.316c-.111.148-.222.297-.339.445-.19.249-.381.497-.571.741l-.154.185a26.091 26.091 0 0 1-6.74 5.967l-.026.021a114.246 114.246 0 0 1-4.31 2.542l-.768-1.382c1.43-.81 2.844-1.647 4.241-2.51l.032-.021a24.548 24.548 0 0 0 6.47-5.781c.095-.117.185-.239.28-.355l-20.044-37.125a29.834 29.834 0 0 0-2.727-4.161h-.095l-49.482-.064-49.514.064a30.251 30.251 0 0 0-2.721 4.161l-1.393-.752a31.729 31.729 0 0 1 5.57-7.454l.805-.8c2.001-1.99 4.362-3.266 6.83-3.701a2.847 2.847 0 0 0 1.985-1.392 2.83 2.83 0 0 0 .286-2.181 2.84 2.84 0 0 0-1.345-1.737l-6.374-3.653-6.354-3.696a2.837 2.837 0 0 0-2.181-.296 2.867 2.867 0 0 0-1.959 3.748c.932 2.573 1.218 5.051.853 7.365l-.265 1.668c-.053.328-.111.651-.175.974l-1.551-.302c.058-.307.111-.614.159-.921l.259-1.668c.328-2.044.064-4.257-.773-6.581a4.414 4.414 0 0 1 .334-3.738 4.398 4.398 0 0 1 2.71-2.08 4.435 4.435 0 0 1 3.389.455l6.348 3.695 6.369 3.648a4.42 4.42 0 0 1 2.091 2.706 4.407 4.407 0 0 1-.444 3.388 4.436 4.436 0 0 1-3.092 2.166c-2.139.37-4.209 1.503-5.983 3.261l-.805.799c-.344.345-.683.699-1.011 1.059l47.915-.058 48.052.058c-.328-.36-.662-.714-1.006-1.059l-.805-.799c-1.44-1.43-3.076-2.446-4.786-2.976l.445-1.519c1.964.604 3.833 1.747 5.459 3.367l.804.8a30.106 30.106 0 0 1 2.113 2.324 30.43 30.43 0 0 1 1.233 1.588 32.515 32.515 0 0 1 2.229 3.537l19.701 36.489a51.762 51.762 0 0 0 3.521-5.426L322.4 320.629l1.398-.746 17.223 32.248a45.888 45.888 0 0 0 2.753-6.761c1.292-4.029 2.134-8.307 3.129-13.347Zm-27.473-92.78-.048.556c-1.101 12.373-3.637 19.574-5.935 23.703-1.429 2.579-2.774 3.96-3.605 4.643a653.006 653.006 0 0 1-.731 9.499 2.008 2.008 0 0 1-1.98 1.826c-.175 0-.344-.026-.508-.069a1.974 1.974 0 0 1-1.472-2.123c.344-3.404.641-6.676.9-9.831-1.514-3.124-6.025-13.242-8.275-27.383l-.095-.625.635.016c1.302.026 3.108.074 4.58.095-1.716-.858-3.225-2.086-4.257-3.023l-.148-.138-.022-.196a96.019 96.019 0 0 1-.301-3.197c-.8-10.632-2.372-19.029-4.384-26.409-2.012-7.375-4.463-13.734-7.01-20.294-1.069-2.748-1.504-5.04-1.504-6.957-.005-1.853.408-3.351 1.027-4.542a8.185 8.185 0 0 1 2.277-2.716c1.652-1.282 3.272-1.61 3.32-1.626h.031l.032-.005c.334-.026.662-.042.99-.042 3.579 0 7.005 1.62 10.097 4.484 3.097 2.875 5.882 6.999 8.233 12.108 4.701 10.213 7.661 24.366 7.661 40.286 0 2.578-.074 5.199-.238 7.857-.059.985-.122 1.938-.196 2.869l-.027.318-.296.127c-.593.254-1.176.482-1.716.688l2.965.101Zm-1.154 1.022-3.643-.127a.715.715 0 0 1-.513-.233.727.727 0 0 1-.058-.879.71.71 0 0 1 .36-.27 54.428 54.428 0 0 0 3.049-1.154 129.433 129.433 0 0 0 .408-10.319c0-8.228-.8-15.979-2.219-22.936l-6.39 3.336c1.853 11.769 2.631 30.173.683 58.916.699-.735 1.604-1.879 2.568-3.61 2.171-3.902 4.638-10.806 5.755-22.724ZM308.82 267.6c2.028-29.204 1.244-47.692-.556-59.398-1.858-12.066-4.797-16.921-6.851-18.875a.434.434 0 0 0-.302-.127c-.317 0-.598.365-.365.699 1.668 2.425 4.23 7.693 5.956 18.504 1.885 11.817 2.775 30.252.429 58.842l-.079.964a598.04 598.04 0 0 1-.847 9.175.929.929 0 1 0 1.847.175c.27-3.203.509-6.29.72-9.271l.048-.688Zm-1.355-27.658c.196-13.946-.614-24.175-1.827-31.65l-10.61-1.139c1.922 7.238 3.426 15.471 4.199 25.763.074 1.006.169 1.991.275 2.96 1.329 1.196 3.431 2.801 5.506 3.372a.751.751 0 0 1 .381.265c.085.127.122.27.122.397a.704.704 0 0 1-.169.461.669.669 0 0 1-.498.233c-.249.01-.561.01-.911.01-1.382 0-3.425-.047-5.003-.09 1.938 11.738 5.422 20.606 7.296 24.784.752-9.589 1.138-17.996 1.239-25.366Zm9.879 148.954a1.099 1.099 0 0 1-.884 1.403l-4.379.694-.09.015h-.084c-.387 0-.747-.206-.943-.54a1.114 1.114 0 0 1-.026-1.085l2.075-3.838c.191-.355.561-.578.969-.578l.355.011.27.185.032.022a7.012 7.012 0 0 1 2.705 3.711Zm-1.048.355.032-.048a5.893 5.893 0 0 0-2.293-3.145l-.032-.021-.021-.011-.037.022-2.075 3.838.037.064h.005l4.384-.699Zm-5.888 4.283c.064.307-.01.635-.201.889-.19.254-.482.413-.799.435l-4.426.317h-.08c-.402 0-.773-.222-.963-.577a1.094 1.094 0 0 1 .047-1.128l.493-.746 1.043-1.588.857-1.308c.207-.313.551-.498.922-.498.254 0 .503.09.698.254l.032.021c.53.44.985.959 1.361 1.531.328.492.593 1.027.783 1.588.09.265.17.535.233.81Zm-1.074.265.037-.048a5.678 5.678 0 0 0-.323-1.027 5.896 5.896 0 0 0-1.694-2.303l-.027-.021-.026-.011-.038.021-.476.726-1.043 1.588-.874 1.329.032.063h.005l4.427-.317Zm-6.237 3.759c.042.312-.058.63-.265.863a1.111 1.111 0 0 1-.842.376l-4.437-.069a1.088 1.088 0 0 1-.974-.625 1.09 1.09 0 0 1 .127-1.154l2.701-3.426c.206-.27.524-.418.863-.418.291 0 .561.111.773.312l.026.027a7.03 7.03 0 0 1 2.028 4.114Zm-1.091.18.042-.048a5.898 5.898 0 0 0-1.726-3.489l-.026-.026-.026-.011-.032.011-2.7 3.43.031.064 4.437.069Zm-3.881-289.045a3.682 3.682 0 0 1 1.345 5.029 3.678 3.678 0 0 1-5.024 1.345 3.675 3.675 0 0 1-1.35-5.024 3.68 3.68 0 0 1 5.029-1.35Zm-2.652 292.253c.01.297-.101.588-.307.805a1.118 1.118 0 0 1-.794.333h-.112l-4.415-.45a1.086 1.086 0 0 1-.916-.709 1.088 1.088 0 0 1 .227-1.138l2.981-3.182c.207-.223.498-.35.805-.35.307 0 .625.143.837.387l.021.026a7.063 7.063 0 0 1 1.673 4.278Zm-1.101.08.042-.043a5.946 5.946 0 0 0-1.419-3.627l-.021-.026-.032-.016-.032.016-2.981 3.182.027.069 4.41.445h.006Zm-8.09-1.764a6.96 6.96 0 0 1 1.297 4.4 1.096 1.096 0 0 1-1.096 1.048h-.106l-.101-.021-4.357-.82a1.111 1.111 0 0 1-.858-.784 1.094 1.094 0 0 1 .329-1.117l3.245-2.912c.201-.185.461-.286.731-.286.354 0 .688.175.894.461l.022.031Zm.243 4.347a5.921 5.921 0 0 0-1.101-3.732l-.021-.027-.037-.021-.027.011-3.245 2.917.021.069 4.362.826h.006l.042-.043Zm-2.287-160.554-.048.556c-1.376 15.47-4.548 24.46-7.412 29.612-1.901 3.42-3.664 5.135-4.664 5.919-.27 3.844-.577 7.783-.916 11.823a2.237 2.237 0 0 1-2.213 2.038 2.31 2.31 0 0 1-.567-.074 2.216 2.216 0 0 1-1.646-2.377 692.12 692.12 0 0 0 1.117-12.119c-1.758-3.574-7.598-16.408-10.473-34.499l-.1-.625.635.011c1.811.042 4.416.111 6.337.127-2.35-1.059-4.447-2.753-5.839-4.019l-.149-.137-.021-.196a104.125 104.125 0 0 1-.376-4.003c-1-13.31-2.975-23.825-5.495-33.069-2.52-9.244-5.586-17.207-8.778-25.413-1.329-3.426-1.869-6.279-1.869-8.662 0-2.382.503-4.146 1.27-5.623a10.159 10.159 0 0 1 2.817-3.351c2.038-1.583 4.05-1.996 4.098-2.007h.032l.031-.01c.408-.032.821-.048 1.229-.048 4.436-.005 8.693 2.001 12.542 5.575 3.86 3.579 7.338 8.731 10.277 15.111 5.871 12.759 9.572 30.453 9.577 50.366 0 3.219-.1 6.496-.301 9.821a219.524 219.524 0 0 1-.244 3.589l-.026.318-.297.127c-.985.418-1.938.784-2.769 1.091l4.241.148Zm-1.16 1.017-4.701-.159a.79.79 0 0 1-.545-.249.782.782 0 0 1-.191-.514.742.742 0 0 1 .514-.709 66.936 66.936 0 0 0 3.902-1.477c.079-1.054.153-2.134.222-3.246.196-3.303.296-6.56.296-9.757 0-10.325-1.011-20.045-2.795-28.77l-8.381 4.373c.106.688.212 1.392.312 2.118 1.424 10.133 2.07 22.649 1.938 37.437-.095 10.398-.572 21.919-1.435 34.53.011-.011.021-.016.032-.026.932-.901 2.224-2.425 3.606-4.914 2.737-4.924 5.839-13.617 7.226-28.637Zm-11.986 34.509c2.552-36.643 1.572-59.833-.683-74.504-2.324-15.099-6.004-21.177-8.577-23.623a.54.54 0 0 0-.381-.159c-.397 0-.742.46-.456.873 2.092 3.034 5.295 9.631 7.455 23.163 2.367 14.82 3.478 37.972.513 73.89-.026.317-.047.635-.074.953a674.526 674.526 0 0 1-1.064 11.483 1.162 1.162 0 0 0 .863 1.245c.101.026.196.042.297.042.587 0 1.106-.45 1.159-1.069.334-4.008.635-7.873.9-11.601l.048-.693Zm-1.424-34.774c.243-17.419-.768-30.221-2.282-39.592l-13.686-1.467c2.409 9.065 4.293 19.373 5.257 32.265.101 1.281.217 2.536.355 3.764 1.673 1.509 4.336 3.553 6.983 4.283a.734.734 0 0 1 .402.281.735.735 0 0 1-.047.905.749.749 0 0 1-.53.249c-.312.011-.699.016-1.133.016-1.779 0-4.421-.069-6.422-.116 2.541 15.496 7.243 27.022 9.493 31.93.985-12.32 1.483-23.094 1.61-32.518Zm8.905 157.393a7.03 7.03 0 0 1 .916 4.495 1.11 1.11 0 0 1-1.091.953h-.159l-.137-.042-4.273-1.191a1.094 1.094 0 0 1-.784-.858c-.079-.413.08-.826.419-1.08l3.483-2.626.308-.223h.354c.387 0 .747.207.943.54l.021.032Zm-.132 4.352a5.928 5.928 0 0 0-.779-3.812l-.021-.031-.032-.022h-.026l-3.484 2.632.016.074 4.273 1.191h.01l.043-.032Zm-7.72-3.086a7.012 7.012 0 0 1 .53 4.558 1.095 1.095 0 0 1-1.075.858h-.207l-.18-.069-4.15-1.557a1.097 1.097 0 0 1-.202-1.958l3.696-2.319.28-.17h.302c.424 0 .81.244.99.625l.016.032Zm-.503 4.325a5.902 5.902 0 0 0-.45-3.865l-.016-.032-.037-.026h-.021l-3.695 2.324.01.074 4.151 1.557h.016l.042-.032Zm-7.423-3.738a7.037 7.037 0 0 1 .133 4.591c-.143.46-.567.767-1.049.767h-.259l-.212-.106-4.008-1.906a1.093 1.093 0 0 1-.624-.979c-.011-.418.222-.8.593-.995l3.88-1.991.249-.122h.254c.456 0 .869.286 1.028.71l.015.031Zm-.878 4.268a5.894 5.894 0 0 0-.112-3.886l-.01-.038-.043-.026h-.015l-3.881 1.996v.074l4.008 1.906h.015l.038-.026Zm-7.074-4.358a6.98 6.98 0 0 1-.259 4.58c-.17.413-.572.678-1.017.678h-.307l-.249-.149-3.828-2.244a1.085 1.085 0 0 1-.54-1.028c.032-.418.292-.778.678-.937l4.04-1.652.206-.084h.212a1.1 1.1 0 0 1 1.054.799l.01.037Zm-1.239 4.178a5.905 5.905 0 0 0 .223-3.887l-.011-.037-.037-.031h-.016l-4.04 1.657v.074l3.823 2.24h.021l.037-.016Zm-6.671-4.956a7.019 7.019 0 0 1-.651 4.543c-.191.37-.566.598-.979.598l-.36-.011-.276-.196-3.621-2.562a1.085 1.085 0 0 1-.45-1.07c.063-.413.355-.751.757-.878l4.167-1.298.164-.047h.164c.524 0 .979.37 1.075.889l.01.032Zm-1.593 4.056a5.872 5.872 0 0 0 .55-3.849v-.038l-.042-.031h-.016l-4.161 1.297-.011.074 3.621 2.562.022.011.037-.026Zm-1.112-166.998-.053.556c-1.096 12.373-3.637 19.574-5.935 23.703-1.43 2.579-2.775 3.96-3.6 4.643a771.3 771.3 0 0 1-.736 9.499 2.009 2.009 0 0 1-1.981 1.826c-.174 0-.344-.026-.508-.069a1.975 1.975 0 0 1-1.472-2.123c.345-3.404.641-6.676.9-9.831-1.514-3.124-6.019-13.242-8.27-27.383l-.1-.625.635.016c1.303.026 3.108.074 4.58.095-1.715-.858-3.224-2.086-4.257-3.023l-.148-.138-.021-.196a95.992 95.992 0 0 1-.302-3.197c-.799-10.632-2.372-19.029-4.384-26.409-2.012-7.375-4.458-13.734-7.01-20.294-1.069-2.748-1.503-5.04-1.503-6.957 0-1.916.407-3.351 1.027-4.542a8.254 8.254 0 0 1 2.276-2.716c1.652-1.282 3.278-1.61 3.32-1.626h.032l.032-.005c.333-.026.661-.042.995-.042 3.574 0 6.999 1.62 10.091 4.484 3.097 2.875 5.882 6.999 8.233 12.108 4.702 10.213 7.661 24.366 7.661 40.286a131.573 131.573 0 0 1-.434 10.726l-.027.318-.296.127c-.593.254-1.175.482-1.715.688l2.97.101Zm-1.16 1.022-3.642-.127a.728.728 0 0 1-.514-.233.722.722 0 0 1-.058-.879.71.71 0 0 1 .36-.27 54.714 54.714 0 0 0 3.05-1.154c.063-.821.121-1.657.174-2.526.159-2.636.233-5.236.233-7.793 0-8.228-.799-15.979-2.218-22.936l-6.391 3.336c1.854 11.769 2.632 30.173.683 58.916.705-.735 1.61-1.879 2.574-3.61 2.17-3.902 4.632-10.806 5.749-22.724Zm-9.456 27.335c2.028-29.204 1.245-47.692-.555-59.398-1.854-12.066-4.797-16.921-6.852-18.875a.433.433 0 0 0-.301-.127c-.318 0-.599.365-.366.699 1.673 2.425 4.231 7.693 5.957 18.504 1.884 11.817 2.774 30.252.428 58.842l-.079.964a585.71 585.71 0 0 1-.847 9.175.93.93 0 0 0 .926 1.027c.466 0 .885-.36.922-.852.27-3.203.513-6.29.72-9.271l.047-.688Zm-1.355-27.658c.196-13.946-.614-24.175-1.827-31.65l-10.61-1.139c1.922 7.238 3.426 15.471 4.199 25.763.074 1.006.169 1.991.275 2.96 1.329 1.196 3.431 2.801 5.506 3.372a.71.71 0 0 1 .382.265c.084.127.121.27.121.397a.704.704 0 0 1-.169.461.667.667 0 0 1-.498.233c-.249.01-.561.01-.91.01-1.382 0-3.426-.047-5.004-.09 1.938 11.738 5.422 20.606 7.296 24.784.752-9.589 1.138-17.996 1.239-25.366Zm6.856 160.798a6.985 6.985 0 0 1-1.037 4.468 1.098 1.098 0 0 1-.932.508 1.1 1.1 0 0 1-.71-.259l-3.388-2.864a1.098 1.098 0 0 1-.355-1.102c.101-.407.418-.72.831-.81l4.257-.937.122-.026h.116a1.1 1.1 0 0 1 1.096.985v.037Zm-1.932 3.902a5.902 5.902 0 0 0 .879-3.791v-.037l-.043-.037h-.01l-4.257.937-.021.074 3.388 2.864h.027l.037-.01Zm-5.729-6.02a7 7 0 0 1-1.419 4.362 1.105 1.105 0 0 1-1.657.112l-3.129-3.145a1.107 1.107 0 0 1-.265-1.133c.138-.397.482-.678.901-.736l4.325-.567.074-.01h.069c.593 0 1.085.487 1.101 1.08v.037Zm-2.266 3.722a5.909 5.909 0 0 0 1.207-3.701v-.037l-.042-.042-4.326.571-.021.069 3.129 3.145.027.011.032-.016h-.006Z" style="fill-rule:nonzero"/>
  <circle cx="224.22" cy="113.479" r="3.68"/>
  <path d="M223.707 394.995c.206.223.312.519.291.826v.037a6.992 6.992 0 0 1-1.79 4.225 1.1 1.1 0 0 1-1.657-.032l-2.848-3.404a1.096 1.096 0 0 1-.165-1.149c.17-.386.535-.635.959-.656l4.357-.196h.048c.302 0 .598.127.805.349Zm-.768.789v-.037l-.037-.042-4.358.196-.031.068 2.848 3.399.032.016.032-.016a5.89 5.89 0 0 0 1.514-3.584Zm-6.364-4.225c.201.244.286.556.238.863v.037c-.016.09-.042.175-.058.265a6.986 6.986 0 0 1-2.091 3.791c-.207.19-.472.296-.752.296-.355 0-.694-.175-.9-.466l-2.536-3.621-.011-.016a1.1 1.1 0 0 1 .905-1.731h.043l3.801.159.556.021c.313.016.609.159.805.402Zm-.81.704-.037-.047-4.358-.18-.037.068.44.62 2.107 3.012.032.016.032-.01a5.95 5.95 0 0 0 1.816-3.442v-.037h.005Zm-14.454-1.398c0 .096-.016.18-.026.271a2.43 2.43 0 0 1-.842 1.588c-.429.36-.969.582-1.573.582a2.414 2.414 0 0 1-1.567-.582 2.426 2.426 0 0 1-.842-1.588c-.01-.091-.026-.175-.026-.271a.527.527 0 1 1 1.053 0c.006.096.011.186.032.271a1.375 1.375 0 0 0 1.35 1.111 1.385 1.385 0 0 0 1.382-1.382.53.53 0 0 1 1.059 0Zm-35.51-241.813a3.676 3.676 0 0 1-1.35 5.025 3.678 3.678 0 0 1-5.024-1.345 3.685 3.685 0 0 1 1.344-5.03 3.681 3.681 0 0 1 5.03 1.35Z" style="fill-rule:nonzero"/>
  <circle cx="129.561" cy="286.162" r="3.68"/>
  <path d="M129.804 210.912a3.68 3.68 0 0 1 1.345 5.025 3.675 3.675 0 0 1-5.024 1.35 3.681 3.681 0 0 1-1.351-5.03 3.685 3.685 0 0 1 5.03-1.345Zm-30.956 51.891c0 .456-.138.922-.429 1.345a16.541 16.541 0 0 0-2.907 9.35c0 1.033.095 2.081.302 3.124a9.05 9.05 0 0 1-3.119 8.773l-.672-.816a8 8 0 0 0 2.912-6.162 8.02 8.02 0 0 0-.159-1.583 17.499 17.499 0 0 1 .477-8.567 17.545 17.545 0 0 1 2.292-4.717c.175-.249.244-.498.244-.747 0-.344-.149-.688-.392-.942a1.288 1.288 0 0 0-1.377-.334l-.021.011h-.021c-.222.058-.434.122-.657.191-.206.068-.391.132-.571.201-.18.069-.006.005-.006.005-.767.291-1.44.641-2.049 1.043-.428.286-.831.593-1.212.921-.646.551-1.223 1.149-1.79 1.779-.799.89-1.556 1.827-2.403 2.716-.826.869-1.747 1.695-2.87 2.362 0 0-.005 0-.005.005a3.55 3.55 0 0 1-.339.196l-.032.021-.037.011c-2.107.751-3.537 2.292-4.309 4.156a8.715 8.715 0 0 0-.641 3.293c0 1.461.36 2.917 1.08 4.161l-.461.265-.45.281s-.005-.011-.01-.016c-.869-1.398-1.366-3.023-1.366-4.696 0-.599.058-1.208.196-1.806a16.517 16.517 0 0 0-.456-8.042 16.576 16.576 0 0 0-2.149-4.432h-.006a2.392 2.392 0 0 1-.428-1.35c0-.646.27-1.239.693-1.683a2.373 2.373 0 0 1 1.7-.731c.275 0 .561.053.836.154h.016a.52.52 0 0 0 .117.047c.026-1.816.111-3.626.328-5.363.085-.709.19-1.414.328-2.091.297-1.546.725-2.986 1.324-4.273a10.98 10.98 0 0 1 1.577-2.483 8.17 8.17 0 0 1 2.235-1.811h.005a7.878 7.878 0 0 1 1.97-.762c.005 0 .005-.005.01-.005h.011a6.9 6.9 0 0 1 .789-.17l.084-.016.08.016a8.737 8.737 0 0 1 2.414.741s.005 0 .005.006c.143.063.27.132.382.19 1.18.646 2.128 1.567 2.88 2.669.757 1.106 1.313 2.393 1.736 3.796.201.677.366 1.376.509 2.102.137.683.243 1.376.328 2.086a44.648 44.648 0 0 1 .307 4.151c.01.386.016.767.021 1.154.016-.006.027-.011.042-.011.249-.079.498-.122.742-.122.672 0 1.27.292 1.694.731.423.445.688 1.038.688 1.678h-.01Zm-4.22-1.948a94.242 94.242 0 0 0-.021-1.197h-1.943v1.52h1.138c.18-.079.36-.154.551-.228h.005s.005-.005.01-.005c.085-.032.17-.058.26-.09Zm-1.964-1.726h1.927a46.96 46.96 0 0 0-.08-1.525h-1.847v1.525Zm0-2.054h1.805a34.678 34.678 0 0 0-.143-1.52h-1.662v1.52Zm0-2.049h1.593a26.526 26.526 0 0 0-.243-1.52h-1.35v1.52Zm0-2.049h1.244a20.6 20.6 0 0 0-.376-1.525h-.868v1.525Zm0-2.054h.698a14.507 14.507 0 0 0-.582-1.52h-.116v1.52Zm0 10.827.084-.043h-.084v.043Zm-.53.328v-.371h-2.578v1.525h1.075c.052-.047.1-.095.153-.137.408-.35.847-.689 1.324-1.001l.026-.016Zm0-.9v-1.52h-2.578v1.52h2.578Zm0-2.049v-1.525h-2.578v1.525h2.578Zm0-2.054v-1.52h-2.578v1.52h2.578Zm0-2.049v-1.52h-2.578v1.52h2.578Zm0-2.049v-1.525h-2.578v1.525h2.578Zm0-2.054v-1.52h-2.578v1.52h2.578Zm0-2.049v-.667c-.074-.122-.148-.255-.227-.371a8.917 8.917 0 0 0-.371-.487h-1.98v1.525h2.578Zm-2.578-2.055h1.519a6.893 6.893 0 0 0-1.519-1.217v1.217Zm0 17.446c.164-.17.328-.339.497-.503h-.497v.503Zm-.53.566v-1.069h-2.483v2.827c.021.032.043.058.064.085.005 0 .005.005.005.005.122.159.238.323.349.487.641-.709 1.271-1.451 1.933-2.192.042-.048.09-.095.132-.143Zm0-1.599v-1.525h-2.483v1.525h2.483Zm0-2.054v-1.52h-2.483v1.52h2.483Zm0-2.049v-1.525h-2.483v1.525h2.483Zm0-2.054v-1.52h-2.483v1.52h2.483Zm0-2.049v-1.52h-2.483v1.52h2.483Zm0-2.049v-1.525h-2.483v1.525h2.483Zm0-2.054v-1.52h-2.483v1.52h2.483Zm0-2.049v-1.525h-2.483v1.525h2.483Zm0-2.055v-1.503l-.037-.016h-2.446v1.519h2.483Zm-2.387-2.049h.767l-.392-.079c-.132.027-.259.053-.375.079Zm-.625 21.152v-2.16H83.87a17.564 17.564 0 0 1 2.144 2.16Zm0-2.69v-1.525h-2.579v1.525h2.579Zm0-2.054v-1.52h-2.579v1.52h2.579Zm0-2.049v-1.525h-2.579v1.525h2.579Zm0-2.054v-1.52h-2.579v1.52h2.579Zm0-2.049v-1.52h-2.579v1.52h2.579Zm0-2.049v-1.525h-2.579v1.525h2.579Zm0-2.054v-1.52h-2.579v1.52h2.579Zm0-2.049v-1.525h-2.579v1.525h2.579Zm0-2.055V245.3h-.927c-.132.063-.28.116-.407.191l-.016.01c-.45.238-.853.535-1.229.863v.455h2.579Zm.201 21.146c-.148-.217-.291-.439-.45-.651a16.045 16.045 0 0 0-2.923-3.039c-.137-.122-.285-.233-.439-.355a15.827 15.827 0 0 0-2.34-1.445h-.011c-.37-.201-.757-.381-1.154-.545h-.005c-.08-.037-.138-.064-.186-.08h-.01l-.011-.01a18.122 18.122 0 0 0-.794-.297h-.01a1.259 1.259 0 0 0-.482-.095c-.36 0-.689.159-.937.413a1.367 1.367 0 0 0-.397.942c0 .244.068.493.243.747a17.614 17.614 0 0 1 3.092 9.879 8.185 8.185 0 0 1 4.193-3.415 2.56 2.56 0 0 0 .238-.137l.011-.011h.016c.889-.535 1.652-1.186 2.367-1.901h-.011Zm-3.309-4.976v-1.282h-2.065c.725.382 1.414.81 2.065 1.282Zm0-1.811v-1.52h-2.351v1.52h2.351Zm0-2.049v-1.525h-2.351v1.525h2.351Zm0-2.054v-1.52h-2.351v1.52h2.351Zm0-2.049v-1.52h-2.351v1.52h2.351Zm0-2.049v-1.525h-2.351v1.525h2.351Zm0-2.054v-1.52h-1.647c-.217.477-.407.985-.582 1.52h2.229Zm0-2.049v-1.525h-.402a9.21 9.21 0 0 0-.98 1.525h1.382Zm-2.88 12.304v-1.52h-.593c-.011.445-.016.895-.021 1.345.132.053.264.111.391.175h.223Zm0-2.049v-1.525h-.493a73.637 73.637 0 0 0-.079 1.525h.572Zm0-2.054v-1.52h-.313a36.29 36.29 0 0 0-.143 1.52h.456Zm0-2.049v-1.52a25.669 25.669 0 0 0-.244 1.52h.244Z" style="fill-rule:nonzero"/>
  <path d="m92.341 285.003.349.397s0 .005-.011.005c0 .006-.005.006-.005.006-.206.18-.418.344-.64.503.031.317.053.64.053.969-.006 1.043-.154 2.123-.535 3.086-.381.964-1.001 1.827-1.933 2.362-.619.354-1.366.55-2.223.55h-.143c-.816 0-1.541-.185-2.15-.519a4.192 4.192 0 0 1-1.472-1.35c-.752-1.101-1.064-2.499-1.069-3.865 0-.259.016-.524.042-.778-.079-.048-.164-.085-.238-.132h-.016l-.011-.011h-.01l-.005-.005-.117-.074a7.957 7.957 0 0 1-2.922-2.886l.91-.54a6.953 6.953 0 0 0 2.547 2.515h.01l.006.005.106.064c.174.1.344.185.518.259l.387.17-.079.418a7.818 7.818 0 0 0-.069 1.001c0 .9.164 1.805.497 2.562.334.757.826 1.361 1.493 1.726.445.244.98.387 1.642.387h.143c.699 0 1.249-.154 1.699-.413.45-.26.81-.625 1.096-1.081.577-.91.837-2.191.837-3.446 0-.392-.027-.778-.069-1.154l-.064-.36.297-.191c.132-.079.254-.164.376-.254.127-.085.243-.18.36-.27.021-.021.047-.037.069-.058l.344.407v-.005Zm352.938-87.284 5.03 19.462-6.062 1.567-.344-1.334c.841-.466 1.662-1.223 2.467-2.271.81-1.043 1.17-1.938 1.08-2.669a17.741 17.741 0 0 0-.233-1.339 35.925 35.925 0 0 0-.413-1.747l-1.022-3.95-9.996 2.584.731 2.832c.238.911.492 1.552.773 1.927.28.376.662.673 1.149.89.407.169.921.27 1.54.307a8.998 8.998 0 0 0 1.716-.053l.344 1.329-9.853 2.547-.344-1.335a7.898 7.898 0 0 0 1.699-.841c.583-.371.985-.705 1.208-1.006.365-.482.561-.98.582-1.483.021-.503-.069-1.138-.265-1.906l-.736-2.838-7.534 1.949c-.757.196-1.339.402-1.747.624-.408.217-.688.509-.831.874-.143.365-.18.826-.111 1.371.074.551.238 1.313.492 2.293l.397 1.546c.164.635.328 1.17.487 1.593.164.435.371.879.62 1.324.243.445.503.741.767.889.705.398 1.716.747 3.018 1.043 1.308.302 2.256.461 2.843.488l.329 1.276-7.534 1.434-5.395-20.876 1.26-.328c.116.349.286.81.513 1.382.233.572.413.932.54 1.091.276.328.572.534.895.608.323.075.699.053 1.138-.058l18.081-4.67c.386-.1.715-.259.985-.465.264-.207.439-.54.524-1.006.069-.36.095-.821.074-1.388-.021-.571-.058-1.016-.117-1.344l1.255-.323Zm-10.065-25.122 3.971 9.466-1.318.551c-.148-.36-.349-.81-.593-1.345-.244-.54-.45-.99-.619-1.356l-9.218 3.865.9 2.139c.386.922.831 1.658 1.345 2.219.127.137.259.264.397.386l-.71 1.038-.153.063-1.276.117c-.058-.762-.27-1.578-.635-2.451a65.388 65.388 0 0 0-.789-1.811c-.228-.492-.397-.858-.514-1.101l-8.439 3.542c-.71.296-1.123.81-1.244 1.535-.117.725.037 1.599.465 2.621l-1.334.561-4.241-10.112 1.202-.503c.133.259.35.635.636 1.122.291.487.534.821.73 1.006.302.281.62.439.948.477.323.031.693-.038 1.112-.212l17.217-7.222c.382-.159.694-.365.932-.614.238-.254.365-.609.387-1.07a5.2 5.2 0 0 0-.085-1.291 8.991 8.991 0 0 0-.27-1.117l1.196-.503Zm-8.423-15.116 5.729 10.197-1.133.635a11.539 11.539 0 0 0-.784-1.111 9.064 9.064 0 0 0-.932-1.049c-.355-.333-.715-.487-1.08-.466a2.427 2.427 0 0 0-1.075.334l-16.391 9.207c-.35.196-.62.45-.805.757-.185.302-.249.688-.201 1.149.042.27.153.688.333 1.249.186.567.371 1.022.556 1.382l-1.133.636-5.728-10.198.418-.232.302-.175.413-.228c.18.275.444.673.794 1.191.349.519.625.863.836 1.038.334.275.667.424.996.45.328.027.709-.085 1.133-.323l16.407-9.217c.371-.207.651-.44.837-.699.185-.254.238-.652.164-1.181a9.9 9.9 0 0 0-.318-1.408c-.164-.546-.318-.98-.471-1.303l1.133-.635Z" style="fill-rule:nonzero"/>
  <path d="M429.666 192.144c.09.958.042 1.874-.154 2.732-.18.9-.556 1.736-1.127 2.52-.572.783-1.403 1.403-2.494 1.858-1.117.466-2.187.635-3.209.492a6.83 6.83 0 0 1-2.821-1.037 9.493 9.493 0 0 1-2.251-2.065 11.52 11.52 0 0 1-1.641-2.774l-.519-1.234 1.334-.561c.705 1.678 1.732 2.753 3.082 3.235 1.355.476 2.981.317 4.881-.477 1.419-.598 2.383-1.562 2.896-2.896.26-.678.36-1.408.297-2.197l1.276-.117c.206.721.36 1.557.45 2.521Zm-9.742-42.764a5.56 5.56 0 0 1-.476 2.595c-.371.826-1.001 1.572-1.901 2.223-.805.593-1.61.99-2.409 1.197a5.398 5.398 0 0 1-2.414.085 8.045 8.045 0 0 1-2.266-.789 15.49 15.49 0 0 1-2.293-1.477 422.207 422.207 0 0 1-1.572 5.109 865.376 865.376 0 0 0-1.573 5.014c-.275.863-.423 1.572-.45 2.128-.021.556 0 1.069.074 1.546a4.6 4.6 0 0 0 .408 1.175c.212.434.408.784.588 1.049l-.773.561-.302.175-4.103-5.618a171.444 171.444 0 0 0 2.605-7.105 154.8 154.8 0 0 0 2.017-6.512l-1.573-2.15 1.271-.926 1.419 1.932c.99 1.361 2.255 2.176 3.791 2.446 1.53.27 3.044-.143 4.542-1.233 1.266-.927 2.007-2.028 2.213-3.299.212-1.276-.169-2.573-1.143-3.907l-1.832-2.51 1.212-.884 2.722 3.722c.646.89 1.164 1.79 1.551 2.7.386.911.609 1.827.667 2.753Z" style="fill-rule:nonzero"/>
  <path d="m414.984 140.205-1.212.884-8.99 6.571-1.271.926-6.65 4.861c-.344.254-.608.529-.788.831-.18.296-.212.672-.09 1.133.058.227.222.582.487 1.069.264.487.503.884.72 1.197l-1.049.767-6.485-8.868 1.048-.767c.196.222.482.54.858.953.376.413.667.677.879.799.344.201.688.281 1.027.233.344-.048.709-.212 1.096-.492l15.163-11.087c.344-.249.609-.524.805-.815.196-.297.227-.673.1-1.139a8.1 8.1 0 0 0-.46-1.138c-.212-.45-.413-.821-.593-1.106l1.048-.768 4.357 5.956Zm-23.38-25.874 15.846 16.175-5.035 4.934-.884-.905c.238-.387.471-.895.704-1.52.228-.63.413-1.26.546-1.885a8.492 8.492 0 0 0 .211-1.89c0-.609-.121-1.074-.36-1.403-.233-.307-.54-.672-.926-1.101a31.416 31.416 0 0 0-1.091-1.165l-.741-.762-14.846 14.538a2.393 2.393 0 0 0-.609.959c-.121.36-.1.752.069 1.186.096.217.334.624.72 1.228.387.604.71 1.054.975 1.339l-.927.911-8.582-8.762.926-.911c.26.228.657.567 1.202 1.017.545.45.948.73 1.213.847.397.175.767.227 1.111.153.35-.074.699-.286 1.059-.635l14.957-14.655-.741-.757c-.265-.27-.598-.604-1.006-.99-.408-.387-.81-.741-1.213-1.064-.317-.255-.783-.387-1.392-.392a9.83 9.83 0 0 0-1.895.175c-.646.121-1.287.296-1.928.529-.635.233-1.133.45-1.498.651l-.9-.916 5.035-4.929Zm-10.869-8.842-.773 1.049a11.465 11.465 0 0 0-1.171-.694 9.007 9.007 0 0 0-1.286-.566c-.461-.159-.852-.154-1.175.021a2.436 2.436 0 0 0-.842.746l-11.124 15.153a2.086 2.086 0 0 0-.418 1.022c-.042.355.053.731.291 1.133.148.228.424.561.821 1.001.397.434.757.778 1.074 1.027l-.773 1.048-9.429-6.925.773-1.048c.281.174.683.428 1.212.757.53.328.932.529 1.197.603.418.111.778.111 1.091 0 .312-.111.609-.365.9-.757l11.134-15.169c.254-.344.408-.672.471-.984.064-.313-.053-.694-.339-1.144a9.235 9.235 0 0 0-.868-1.154c-.376-.429-.694-.762-.964-.99l.768-1.048 9.43 6.925v-.006Zm-12.728-9.657-.636 1.139c-.301-.159-.81-.329-1.519-.509-.704-.185-1.239-.264-1.599-.243-.535.053-1.08.423-1.631 1.106-.556.683-1.154 1.605-1.8 2.769l-9.228 16.63-1.393-.773-3.452-26.223-6.501 11.716c-.731 1.313-1.207 2.367-1.435 3.167-.222.794-.249 1.434-.074 1.921.116.376.503.874 1.159 1.504.652.63 1.102 1.017 1.34 1.165l-.63 1.133-9.313-5.168.63-1.138c.302.138.842.302 1.631.498.783.19 1.302.259 1.556.206.54-.09 1.049-.407 1.53-.942.477-.535 1.128-1.546 1.954-3.029l6.21-11.187c.27-.492.461-1.032.562-1.615.1-.587.079-1.095-.059-1.519-.19-.567-.54-1.154-1.058-1.774-.519-.614-.975-1.043-1.366-1.291l.63-1.134 6.491 3.601 3.155 24.402 5.993-10.806c.736-1.318 1.213-2.383 1.435-3.187.223-.805.244-1.414.053-1.827-.185-.365-.566-.837-1.138-1.403-.572-.567-1.027-.964-1.366-1.181l.63-1.133 9.239 5.125Zm-32.688-8.974c.047 1.811-.27 3.68-.959 5.612-.688 1.943-1.625 3.601-2.806 4.967-1.186 1.371-2.525 2.414-4.023 3.139a11.897 11.897 0 0 1-4.633 1.234 12.238 12.238 0 0 1-4.839-.704c-1.705-.604-3.161-1.478-4.379-2.626-1.217-1.155-2.144-2.478-2.774-3.987-.641-1.483-.974-3.124-1.006-4.929-.026-1.8.281-3.611.927-5.427.704-1.991 1.641-3.659 2.816-4.998 1.17-1.334 2.505-2.383 4.003-3.134a11.808 11.808 0 0 1 4.691-1.25 12.116 12.116 0 0 1 4.807.694 12.239 12.239 0 0 1 4.267 2.541 11.63 11.63 0 0 1 2.817 3.886c.683 1.514 1.048 3.172 1.091 4.982Zm-3.987-.667c.169-1.519.111-2.885-.169-4.098-.286-1.202-.81-2.245-1.573-3.129-.762-.884-1.758-1.546-2.986-1.98-1.382-.492-2.668-.588-3.86-.296-1.185.291-2.276.857-3.261 1.699-.932.805-1.779 1.837-2.541 3.097a22.713 22.713 0 0 0-1.943 4.13c-.583 1.657-.964 3.203-1.139 4.643-.174 1.44-.121 2.796.159 4.056.26 1.233.763 2.303 1.504 3.203.741.905 1.768 1.588 3.081 2.054 1.229.434 2.441.54 3.632.318 1.197-.228 2.287-.747 3.272-1.562 1.017-.815 1.906-1.837 2.669-3.055.762-1.218 1.429-2.647 2.011-4.278.593-1.678.975-3.282 1.144-4.802Zm-24.18-14.353c1.26 1.435 1.705 3.102 1.335 5.003-.255 1.334-.747 2.457-1.467 3.383a7.171 7.171 0 0 1-2.653 2.123 9.476 9.476 0 0 1-3.287.895 12.703 12.703 0 0 1-3.558-.206l-2.859-.551-1.499 7.73a2.88 2.88 0 0 0-.005 1.144c.074.344.312.64.715.894.196.122.561.276 1.096.45.529.18 1.022.318 1.477.419l-.249 1.276-10.944-2.118.244-1.276c.291.032.715.069 1.276.116.556.048.953.043 1.186-.01.392-.09.694-.265.916-.535.217-.27.37-.635.46-1.101L292.9 71.07c.079-.423.09-.81.037-1.17-.053-.36-.286-.662-.699-.916a7.695 7.695 0 0 0-1.292-.598c-.434-.148-.815-.27-1.133-.355l.249-1.281 11.642 2.255c2.378.461 4.188 1.403 5.448 2.833Zm-3.293 5.04a9.369 9.369 0 0 0 .159-2.128 4.994 4.994 0 0 0-.476-2.017 4.304 4.304 0 0 0-1.404-1.631c-.619-.445-1.44-.762-2.461-.958l-2.531-.493-2.182 11.272 1.832.355c1.298.249 2.388.249 3.272.005.885-.243 1.589-.625 2.113-1.149.519-.497.905-1.037 1.154-1.63a8.053 8.053 0 0 0 .524-1.626Zm-18.594 13.835-.063 1.297-10.785-.551.063-1.297c.959-.011 1.753-.095 2.388-.244.635-.153.964-.36.974-.63a2.67 2.67 0 0 0-.016-.402 2.014 2.014 0 0 0-.084-.429l-1.853-5.924-9.107-.461a43.024 43.024 0 0 0-.948 2.187c-.243.619-.465 1.196-.667 1.726a11.51 11.51 0 0 0-.391 1.26c-.08.328-.122.593-.133.799-.026.487.339.89 1.091 1.197.757.307 1.615.508 2.573.603l-.064 1.297-9.773-.497.069-1.297a8.263 8.263 0 0 0 1.196-.149c.482-.09.879-.227 1.197-.407.503-.302.9-.63 1.186-.974.286-.345.572-.832.863-1.451 1.466-3.187 3.092-6.772 4.871-10.748 1.784-3.981 3.367-7.523 4.759-10.626l1.467.074 7.502 22.819c.159.482.344.879.561 1.181.217.307.524.609.927.911.27.185.63.349 1.075.487.444.137.82.222 1.122.249Zm-9.959-9.837-3.415-10.272-4.389 9.869 7.804.403Zm-17.805-15.995.625 7.02-1.26.112c-.149-.429-.392-.927-.731-1.504a13.615 13.615 0 0 0-1.112-1.62 8.306 8.306 0 0 0-1.329-1.361c-.466-.386-.905-.587-1.313-.614-.381-.011-.863 0-1.435.021a39.14 39.14 0 0 0-1.593.101l-1.059.095 1.832 20.696c.032.403.153.763.349 1.08.201.318.524.551.964.699.227.064.693.138 1.408.222.71.085 1.26.117 1.652.09l.117 1.298-12.22 1.08-.111-1.292c.333-.058.852-.148 1.546-.286.688-.132 1.164-.27 1.424-.402.386-.191.662-.445.821-.763.164-.312.222-.72.18-1.218l-1.848-20.86-1.059.096c-.376.031-.842.079-1.398.148-.561.069-1.09.153-1.599.259-.392.085-.789.366-1.18.831a9.233 9.233 0 0 0-1.065 1.578 12.446 12.446 0 0 0-.815 1.827c-.222.635-.376 1.159-.45 1.572l-1.276.111-.619-7.02 22.554-1.996Zm-25.763 2.499 1.562 6.872-1.228.281c-.207-.403-.519-.869-.932-1.393a13.944 13.944 0 0 0-1.318-1.456 8.428 8.428 0 0 0-1.499-1.17c-.519-.312-.979-.455-1.387-.423a16.67 16.67 0 0 0-1.419.212c-.566.1-1.085.206-1.562.317l-1.037.233 4.611 20.262c.09.392.254.731.498 1.022.243.291.587.476 1.048.561.233.032.71.042 1.424.032.715-.016 1.266-.058 1.652-.133l.286 1.266-11.955 2.726-.291-1.27c.328-.096.826-.26 1.493-.487.667-.228 1.122-.424 1.361-.593.354-.244.593-.535.709-.869.122-.333.122-.741.011-1.228l-4.649-20.421-1.037.239c-.371.079-.826.196-1.372.339-.54.142-1.053.301-1.54.471-.382.137-.736.466-1.065.984a10.02 10.02 0 0 0-.841 1.705 12.598 12.598 0 0 0-.556 1.917c-.138.667-.217 1.207-.233 1.625l-1.25.281-1.562-6.872 22.078-5.03Zm-15.433 28.579.466 1.213-10.081 3.87-.466-1.218c.869-.397 1.562-.794 2.081-1.186.524-.397.736-.72.641-.974a2.603 2.603 0 0 0-.18-.36 1.793 1.793 0 0 0-.255-.355l-4.092-4.664-8.514 3.267c-.01.921-.005 1.715.022 2.382.026.667.058 1.287.09 1.848.042.545.09.985.153 1.313.058.328.127.593.201.789.175.455.673.667 1.483.646.815-.027 1.683-.191 2.599-.487l.466 1.212-9.133 3.505-.074-.185-.132-.344-.26-.683c.286-.138.63-.344 1.033-.625.402-.281.715-.567.926-.858.339-.482.572-.937.694-1.371.122-.434.185-.99.196-1.673.053-3.51.09-7.444.1-11.801.016-4.363.032-8.244.043-11.648l1.371-.524 16.106 17.821c.344.376.672.662.995.852.323.191.725.344 1.218.455.317.064.715.064 1.175.011.466-.053.842-.127 1.128-.228Zm-13.093-4.955-7.285-8.005-.011 10.8 7.296-2.795Z" style="fill-rule:nonzero"/>
  <path d="m191.58 106.231.132.344-9.773 5.887-.673-1.112c.35-.227.784-.54 1.308-.937.519-.402.852-.72.99-.963.206-.392.307-.763.302-1.112 0-.344-.122-.715-.35-1.101l-9.747-16.186-.238.143 2.875 17.673-1.445.233-2.976-17.249a15.44 15.44 0 0 0-.455-1.917c-.196-.646-.344-1.064-.45-1.26l7.258-4.368.667 1.112c-.285.191-.63.461-1.032.821-.408.355-.694.635-.858.831-.28.339-.391.694-.344 1.064.053.366.18.726.392 1.07l9.657 16.042c.222.365.471.635.747.81.275.175.651.249 1.117.222.254-.005.646-.111 1.18-.312.535-.201.948-.381 1.234-.54l.482.805Z" style="fill-rule:nonzero"/>
  <path d="m176.406 108.867.953 5.861-.784.471L157.69 100.2l-.201.122 8 13.284c.773 1.286 1.44 2.213 2.006 2.785.567.571 1.107.905 1.615.995.36.079.964.005 1.806-.233.841-.233 1.376-.413 1.598-.535l.673 1.112-8.985 5.411-.672-1.112c.445-.323.889-.704 1.339-1.127.45-.429.747-.842.89-1.239.19-.514.169-1.117-.058-1.806-.233-.688-.773-1.742-1.631-3.161l-6.856-11.388c-.398-.656-.8-1.149-1.208-1.472-.407-.323-.836-.529-1.286-.614a3.648 3.648 0 0 0-1.573.09c-.55.148-1.064.35-1.535.604l-.672-1.112 7.587-4.569 16.434 12.865 1.445-.233Zm-19.087 18.33.906.931-5.009 4.882a167.43 167.43 0 0 0-7.401-1.583 155.132 155.132 0 0 0-6.735-1.08l-.191.185-1.096-1.128c1.208-1.175 1.838-2.541 1.891-4.097.053-1.557-.572-2.997-1.864-4.326-1.096-1.122-2.287-1.7-3.579-1.731-1.287-.027-2.52.534-3.701 1.683l-1.048-1.074 1.075-1.049a13.679 13.679 0 0 1 2.451-1.916 8.519 8.519 0 0 1 2.637-1.049 5.54 5.54 0 0 1 2.631.106c.873.249 1.699.773 2.472 1.567.699.715 1.208 1.456 1.525 2.224.318.762.461 1.551.424 2.372-.027.757-.186 1.546-.466 2.356-.281.81-.662 1.636-1.138 2.478 2.101.323 3.859.603 5.278.836 1.414.244 3.145.524 5.183.853.895.148 1.62.201 2.176.148a7.908 7.908 0 0 0 1.515-.291c.338-.111.709-.302 1.111-.572.398-.27.715-.508.953-.725Z" style="fill-rule:nonzero"/>
  <path d="m147.064 137.187.911.932-7.868 7.666-.91-.931c.195-.223.471-.551.825-.98.355-.434.578-.757.668-.985.148-.365.18-.72.084-1.053-.095-.334-.312-.667-.64-1.011l-13.109-13.454c-.297-.301-.604-.534-.922-.683-.317-.153-.699-.132-1.143.064a7.907 7.907 0 0 0-1.059.614c-.418.275-.752.524-1.017.741l-.905-.932 7.513-7.316 1.048 1.074-2.229 2.171 7.767 7.973 1.715-1.673 1.096 1.128-1.715 1.673 5.75 5.898c.302.307.609.53.932.667.323.138.699.117 1.133-.069.217-.09.545-.301.99-.635.444-.328.81-.625 1.085-.879Zm-8.434 10.314-13.061 17.159-1.038-.789c.206-.307.461-.725.768-1.26.301-.529.481-.895.524-1.096.09-.418.063-.778-.08-1.08-.137-.296-.386-.582-.746-.857l-14.856-11.309a2.773 2.773 0 0 0-.975-.493c-.328-.079-.698-.01-1.117.212-.323.164-.704.434-1.138.799-.434.371-.757.678-.979.927l-1.033-.789 12.177-15.994 4.982 3.796-.831 1.09c-.889-.365-1.991-.545-3.314-.529-1.324.01-2.245.28-2.764.805-.27.27-.572.608-.911 1.011-.333.402-.709.868-1.111 1.403l-2.473 3.251 8.212 6.252 1.773-2.329c.572-.747.916-1.35 1.038-1.8.122-.45.117-.937-.016-1.451-.116-.423-.354-.895-.709-1.403a9.025 9.025 0 0 0-1.107-1.313l.832-1.091 8.1 6.163-.831 1.096a8.197 8.197 0 0 0-1.721-.815c-.646-.228-1.159-.334-1.53-.329-.609.016-1.117.17-1.525.461-.407.297-.852.757-1.334 1.393l-1.774 2.329 6.195 4.717c.619.472 1.143.8 1.567.985.424.186.826.223 1.202.111.376-.111.757-.365 1.143-.762.387-.397.885-1.001 1.499-1.805.243-.323.566-.742.969-1.266.397-.524.714-.985.947-1.371.244-.397.461-.831.662-1.302.196-.472.27-.858.223-1.155-.127-.804-.477-1.81-1.054-3.018-.572-1.212-1.027-2.054-1.371-2.53l.799-1.049 5.787 5.025Zm-18.372 26.382-5.469 9.715-1.133-.635c.122-.265.291-.656.514-1.17.217-.514.339-.889.36-1.133.042-.397-.032-.741-.217-1.032-.186-.292-.482-.556-.9-.789l-16.334-9.197a3.373 3.373 0 0 0-1.096-.402c-.354-.064-.72.063-1.09.37a8.163 8.163 0 0 0-.975 1.038c-.28.366-.513.688-.698.964l-1.133-.641 5.818-10.335c1.186-2.107 2.658-3.531 4.41-4.272 1.753-.741 3.479-.636 5.168.317 1.18.662 2.096 1.483 2.748 2.457a7.257 7.257 0 0 1 1.175 3.193 9.65 9.65 0 0 1-.191 3.399 12.957 12.957 0 0 1-1.318 3.314l-1.429 2.536 6.861 3.86c.371.211.731.333 1.08.37.355.037.71-.095 1.075-.397.18-.148.439-.445.778-.895.334-.45.625-.873.863-1.27l1.133.635Zm-11.224-7.815c.048-.915-.09-1.704-.418-2.366a4.885 4.885 0 0 0-1.186-1.61 7.823 7.823 0 0 0-1.377-1.006 9.378 9.378 0 0 0-1.969-.831 5.039 5.039 0 0 0-2.06-.18c-.709.09-1.376.36-1.991.81-.619.456-1.18 1.133-1.688 2.033l-1.266 2.25 10.001 5.628.916-1.625c.646-1.149.99-2.181 1.038-3.103Zm1.562 27.569-4.119 10.361-1.207-.482c.084-.28.201-.688.349-1.228.148-.54.222-.927.212-1.17-.016-.397-.132-.731-.355-.996-.222-.264-.556-.487-.995-.661l-17.419-6.926a3.504 3.504 0 0 0-1.138-.259c-.366-.011-.71.159-1.033.519-.323.37-.593.757-.826 1.154-.233.402-.418.752-.566 1.048l-1.207-.481 4.384-11.023c.894-2.245 2.16-3.85 3.801-4.818 1.636-.969 3.362-1.102 5.162-.382 1.26.498 2.277 1.192 3.05 2.071a7.21 7.21 0 0 1 1.593 3.007 9.619 9.619 0 0 1 .265 3.393 12.978 12.978 0 0 1-.863 3.458l-1.08 2.705 7.317 2.912c.397.154.773.228 1.122.217.355-.01.689-.19 1.012-.534.158-.17.375-.503.651-.991.275-.487.503-.947.683-1.371l1.207.477Zm-12.781-3.034c.487-1.223.694-2.293.62-3.208-.075-.916-.323-1.684-.736-2.293a4.944 4.944 0 0 0-1.388-1.44 8.24 8.24 0 0 0-1.498-.81 9.214 9.214 0 0 0-2.065-.556 4.808 4.808 0 0 0-2.065.095 4.232 4.232 0 0 0-1.863 1.07c-.556.529-1.022 1.276-1.403 2.239l-.958 2.399 10.668 4.241.688-1.737Zm5.819 24.709a12.036 12.036 0 0 1-.27 3.082c-.355 1.524-.869 2.832-1.541 3.928-.672 1.096-1.445 1.97-2.308 2.621-.863.64-1.779 1.059-2.748 1.265a6.577 6.577 0 0 1-2.875-.032l-14.962-3.467c-.418-.096-.778-.106-1.091-.038-.312.075-.635.292-.969.652-.233.259-.455.609-.667 1.048-.206.439-.36.805-.45 1.096l-1.265-.291 2.441-10.542 1.265.297a9.06 9.06 0 0 0-.127 1.292 9.302 9.302 0 0 0 0 1.175c.053.44.227.763.524.98.302.211.651.365 1.043.455l13.967 3.24c.677.154 1.408.244 2.181.27a5.764 5.764 0 0 0 2.282-.402c.762-.313 1.44-.821 2.044-1.52.598-.699 1.058-1.747 1.381-3.134.302-1.308.35-2.457.138-3.436-.206-.985-.593-1.806-1.154-2.478a6.204 6.204 0 0 0-1.774-1.498 7.65 7.65 0 0 0-2.049-.794l-10.371-2.404c-1.319-.307-2.415-.461-3.299-.466-.879-.005-1.498.148-1.842.455-.392.35-.758.863-1.091 1.546-.334.678-.556 1.207-.667 1.583l-1.266-.296 2.399-10.34 1.265.291c-.063.339-.106.842-.127 1.514-.016.673.058 1.239.228 1.705.18.466.678.879 1.498 1.228.821.355 1.848.673 3.087.964l11.002 2.547c1.403.328 2.552.9 3.452 1.72.9.821 1.572 1.79 2.017 2.891a9.982 9.982 0 0 1 .693 3.293h.006Zm336.997-29.098a7.9 7.9 0 0 1 .042 2.615 5.316 5.316 0 0 1-.916 2.309c-.498.709-1.228 1.27-2.197 1.673-.842.354-1.657.519-2.446.492a5.3 5.3 0 0 1-2.234-.572 7.974 7.974 0 0 1-1.885-1.302 11.204 11.204 0 0 1-1.626-1.869l.71-1.038c.407.35.858.604 1.339.757a4.514 4.514 0 0 0 1.954.202c.641-.08 1.355-.286 2.144-.615 1.324-.556 2.203-1.344 2.653-2.382.45-1.033.349-2.324-.302-3.87l1.318-.551.667 1.594c.36.852.62 1.704.779 2.557Z" style="fill-rule:nonzero"/>
</svg>
